<?xml version="1.0" encoding="utf-8"?>
<!-- Generator: Adobe Illustrator 25.4.0, SVG Export Plug-In . SVG Version: 6.00 Build 0)  -->
<svg version="1.1" id="Modo_de_aislamiento" xmlns="http://www.w3.org/2000/svg" xmlns:xlink="http://www.w3.org/1999/xlink"
	 x="0px" y="0px" viewBox="0 0 164.67 148.09" style="enable-background:new 0 0 164.67 148.09;" xml:space="preserve">
<style type="text/css">
	.st0{fill:#455F5D;}
	.st1{fill:#FFFFFF;}
</style>
<circle id="Elipse_42" class="st0" cx="81.57" cy="72.09" r="71"/>
<g id="Grupo_39793" transform="translate(2.421 12.222)">
	<g id="Grupo_39795" transform="translate(12.119 7.5)">
		<g id="Grupo_39793-2" transform="translate(23.472)">
			<path id="Trazado_78039" class="st1" d="M43.44,66.84c18.15,0,32.87-14.72,32.87-32.87S61.6,1.1,43.44,1.1
				c-18.15,0-32.87,14.72-32.87,32.87C10.58,52.12,25.29,66.83,43.44,66.84z"/>
		</g>
		<g id="Grupo_39794" transform="translate(0 67.935)">
			<path id="Trazado_78040" class="st1" d="M123.28,25.08c-0.94-2.11-2.04-4.15-3.27-6.1c-6.49-9.66-16.75-16.14-28.26-17.85
				c-1.47-0.19-2.96,0.18-4.17,1.04c-12.23,8.92-28.82,8.92-41.05,0c-1.21-0.86-2.7-1.23-4.17-1.04
				C30.84,2.78,20.55,9.27,14.11,18.98c-1.29,1.92-2.39,3.96-3.27,6.1c-0.4,0.86-0.35,1.87,0.15,2.68c1.19,1.93,2.53,4.02,3.87,5.8
				c1.94,2.68,4.13,5.17,6.54,7.44c2.09,2.04,4.33,3.93,6.69,5.65c23.11,17.25,54.82,17.25,77.94,0c2.33-1.77,4.56-3.65,6.69-5.65
				c2.41-2.27,4.6-4.76,6.54-7.44c1.41-1.85,2.7-3.79,3.87-5.8C123.55,26.92,123.61,25.95,123.28,25.08z"/>
		</g>
	</g>
</g>
</svg>
