<?xml version="1.0" encoding="utf-8"?>
<!-- Generator: Adobe Illustrator 24.3.0, SVG Export Plug-In . SVG Version: 6.00 Build 0)  -->
<svg version="1.1" id="Capa_1" xmlns="http://www.w3.org/2000/svg" xmlns:xlink="http://www.w3.org/1999/xlink" x="0px" y="0px"
	 viewBox="0 0 28.3 28.3" style="enable-background:new 0 0 28.3 28.3;" xml:space="preserve">
<style type="text/css">
	.st0{fill:#698D86;}
	.st1{fill:#698D86;stroke:#698D86;stroke-width:0.2;stroke-linecap:round;stroke-linejoin:round;stroke-miterlimit:10;}
	.st2{fill:#455F5D;}
	.st3{fill:#FFFFFF;}
	.st4{fill-rule:evenodd;clip-rule:evenodd;fill:#698D86;}
	.st5{stroke:#1D1D1B;stroke-width:0.6;stroke-miterlimit:10;}
	.st6{fill:none;stroke:#698D86;stroke-width:0.6;stroke-linejoin:round;stroke-miterlimit:10;}
	.st7{fill:none;stroke:#698D86;stroke-width:0.6;stroke-linecap:round;stroke-linejoin:round;stroke-miterlimit:10;}
	.st8{fill:none;stroke:#E30613;stroke-linejoin:round;stroke-miterlimit:10;}
	.st9{fill:#FFFFFF;stroke:#698D86;stroke-width:0.6;stroke-linecap:round;stroke-linejoin:round;stroke-miterlimit:10;}
	.st10{fill:#FFFFFF;stroke:#000000;stroke-width:0.6;stroke-linecap:round;stroke-miterlimit:10;}
	.st11{stroke:#698D86;stroke-width:0.6;stroke-linecap:round;stroke-linejoin:round;stroke-miterlimit:10;}
	.st12{fill:none;stroke:#698D86;stroke-width:0.75;stroke-linecap:round;stroke-linejoin:round;stroke-miterlimit:10;}
	.st13{fill:#698D86;stroke:#698D86;stroke-width:0.25;stroke-linecap:round;stroke-linejoin:round;stroke-miterlimit:10;}
</style>
<path class="st0" d="M19.7,7.2c-0.2,0-0.3,0-0.5,0c-1-1.9-2.9-3.1-4.9-3.1c-2.1,0-3.9,1.2-4.9,3.1C6.6,6.9,4.2,9,4.2,11.6
	c0,1.9,1.3,3.6,3.2,4.2v8c0,0.2,0.2,0.4,0.4,0.4h13c0.2,0,0.4-0.2,0.4-0.4v-8.1c1.8-0.6,3-2.2,3-4.1C24.2,9.2,22.2,7.2,19.7,7.2z
	 M20.7,15c-0.2,0-0.3,0.2-0.3,0.4v4.9h-8.8c-0.2,0-0.4,0.2-0.4,0.4s0.2,0.4,0.4,0.4h8.8v2.3H8.2v-2.3h1.1c0.2,0,0.4-0.2,0.4-0.4
	s-0.2-0.4-0.4-0.4H8.2v-4.8c0-0.2-0.1-0.4-0.3-0.4C6.2,14.7,5,13.2,5,11.6c0-2.2,2.1-3.9,4.5-3.5c0.2,0,0.4-0.1,0.4-0.2
	C10.7,6.1,12.4,5,14.2,5c1.9,0,3.5,1.1,4.3,2.9c0.1,0.2,0.3,0.3,0.4,0.2c0.3,0,0.5-0.1,0.7-0.1c2,0,3.7,1.6,3.7,3.5
	C23.4,13.2,22.3,14.6,20.7,15z"/>
</svg>
