<?xml version="1.0" encoding="utf-8"?>
<!-- Generator: Adobe Illustrator 24.3.0, SVG Export Plug-In . SVG Version: 6.00 Build 0)  -->
<svg version="1.1" id="Capa_1" xmlns="http://www.w3.org/2000/svg" xmlns:xlink="http://www.w3.org/1999/xlink" x="0px" y="0px"
	 viewBox="0 0 28.3 28.3" style="enable-background:new 0 0 28.3 28.3;" xml:space="preserve">
<style type="text/css">
	.st0{fill:#698D86;}
	.st1{fill:#698D86;stroke:#698D86;stroke-width:0.2;stroke-linecap:round;stroke-linejoin:round;stroke-miterlimit:10;}
	.st2{fill:#455F5D;}
	.st3{fill:#FFFFFF;}
	.st4{fill-rule:evenodd;clip-rule:evenodd;fill:#698D86;}
	.st5{stroke:#1D1D1B;stroke-width:0.6;stroke-miterlimit:10;}
	.st6{fill:none;stroke:#698D86;stroke-width:0.6;stroke-linejoin:round;stroke-miterlimit:10;}
	.st7{fill:none;stroke:#698D86;stroke-width:0.6;stroke-linecap:round;stroke-linejoin:round;stroke-miterlimit:10;}
	.st8{fill:none;stroke:#E30613;stroke-linejoin:round;stroke-miterlimit:10;}
	.st9{fill:#FFFFFF;stroke:#698D86;stroke-width:0.6;stroke-linecap:round;stroke-linejoin:round;stroke-miterlimit:10;}
	.st10{fill:#FFFFFF;stroke:#000000;stroke-width:0.6;stroke-linecap:round;stroke-miterlimit:10;}
	.st11{stroke:#698D86;stroke-width:0.6;stroke-linecap:round;stroke-linejoin:round;stroke-miterlimit:10;}
	.st12{fill:none;stroke:#698D86;stroke-width:0.75;stroke-linecap:round;stroke-linejoin:round;stroke-miterlimit:10;}
	.st13{fill:#698D86;stroke:#698D86;stroke-width:0.25;stroke-linecap:round;stroke-linejoin:round;stroke-miterlimit:10;}
</style>
<g>
	<path class="st0" d="M13,23.1H7.8c-0.2,0-0.4,0.2-0.4,0.4c0,0.2,0.2,0.4,0.4,0.4H13c0.2,0,0.4-0.2,0.4-0.4
		C13.4,23.2,13.2,23.1,13,23.1z"/>
	<path class="st0" d="M7.8,22.3h3c0.2,0,0.4-0.2,0.4-0.4c0-0.2-0.2-0.4-0.4-0.4h-3c-0.2,0-0.4,0.2-0.4,0.4
		C7.4,22.1,7.6,22.3,7.8,22.3z"/>
	<path class="st0" d="M7.8,20.8h1.9c0.2,0,0.4-0.2,0.4-0.4c0-0.2-0.2-0.4-0.4-0.4H7.8c-0.2,0-0.4,0.2-0.4,0.4
		C7.4,20.6,7.6,20.8,7.8,20.8z"/>
	<path class="st0" d="M23,4.4c-0.2-0.1-0.4,0-0.5,0.2l-4.8,11.1l0,0l-1-0.5l0,0c0,0-0.1,0-0.1,0c-0.2,0-0.3,0.1-0.4,0.2
		c-0.8,1.7-2.2,3.1-3.9,4l-0.7,0.4c-0.1,0.1-0.2,0.2-0.2,0.3c0,0.1,0,0.2,0.1,0.3c1.9,2,4.5,3.2,7.2,3.4c0.1,0,0.2,0,0.3-0.1
		c0.1-0.1,0.1-0.2,0.1-0.3L19,22.6c-0.4-1.9-0.1-3.8,0.7-5.6c0.1-0.1,0-0.3-0.1-0.4c0,0-0.1-0.1-0.1-0.1l0,0l-1-0.5l4.8-11.1
		C23.3,4.7,23.2,4.5,23,4.4z M18.2,22.8l0,0.3c-1.7-0.2-3.3-0.8-4.6-1.8c0.6-0.4,1.1-0.8,1.7-1.2c0.2-0.1,0.2-0.4,0-0.5
		c-0.1-0.2-0.4-0.2-0.5,0c-0.5,0.4-1,0.8-1.6,1.2c-0.1,0-0.1,0.1-0.2,0.1c-0.2-0.2-0.4-0.3-0.6-0.5l0.2-0.1c1.3-0.7,2.4-1.6,3.2-2.7
		l2.4,1.2C18,19.9,18,21.4,18.2,22.8z M18.8,17.1c-0.1,0.2-0.2,0.5-0.3,0.7l-0.8-0.4l-0.7-0.3l-0.8-0.4c0.1-0.2,0.3-0.4,0.4-0.7
		l0.7,0.3l0.7,0.3L18.8,17.1z"/>
</g>
</svg>
