<?xml version="1.0" encoding="utf-8"?>
<!-- Generator: Adobe Illustrator 24.3.0, SVG Export Plug-In . SVG Version: 6.00 Build 0)  -->
<svg version="1.1" id="Capa_1" xmlns="http://www.w3.org/2000/svg" xmlns:xlink="http://www.w3.org/1999/xlink" x="0px" y="0px"
	 viewBox="0 0 28.3 28.3" style="enable-background:new 0 0 28.3 28.3;" xml:space="preserve">
<style type="text/css">
	.st0{fill:#698D86;}
	.st1{fill:#698D86;stroke:#698D86;stroke-width:0.2;stroke-linecap:round;stroke-linejoin:round;stroke-miterlimit:10;}
	.st2{fill:#455F5D;}
	.st3{fill:#FFFFFF;}
	.st4{fill-rule:evenodd;clip-rule:evenodd;fill:#698D86;}
	.st5{fill:none;stroke:#698D86;stroke-width:0.6;stroke-linejoin:round;stroke-miterlimit:10;}
	.st6{fill:none;stroke:#698D86;stroke-width:0.6;stroke-linecap:round;stroke-linejoin:round;stroke-miterlimit:10;}
	.st7{fill:none;stroke:#E30613;stroke-linejoin:round;stroke-miterlimit:10;}
	.st8{fill:#FFFFFF;stroke:#698D86;stroke-width:0.6;stroke-linecap:round;stroke-linejoin:round;stroke-miterlimit:10;}
	.st9{fill:#FFFFFF;stroke:#000000;stroke-width:0.6;stroke-linecap:round;stroke-miterlimit:10;}
	.st10{stroke:#698D86;stroke-width:0.6;stroke-linecap:round;stroke-linejoin:round;stroke-miterlimit:10;}
	.st11{fill:none;stroke:#698D86;stroke-width:0.75;stroke-miterlimit:10;}
</style>
<g>
	<path class="st0" d="M21.8,4.1c-2.2,0-4.1,1.8-4.1,4.1c0,0.2,0.2,0.3,0.3,0.3c0.2,0,0.3-0.2,0.3-0.3c0-1.9,1.5-3.4,3.4-3.4
		s3.4,1.5,3.4,3.4c0,1.9-1.5,3.4-3.4,3.4c-1.2,0-2.3-0.6-2.9-1.6V9.6c0-0.2-0.1-0.3-0.3-0.3H6.3C6.1,9.3,6,9.4,6,9.6V14l-1.3,4.1
		c0,0.1,0,0.1,0,0.2v5.6c0,0.2,0.1,0.3,0.3,0.3s0.3-0.1,0.3-0.3v-1.4h15.7v1.4c0,0.2,0.1,0.3,0.3,0.3c0.2,0,0.3-0.1,0.3-0.3l0-5.6
		c0-0.1,0-0.1,0-0.2L20.2,14v-2.1c0.5,0.2,1,0.3,1.6,0.3c2.2,0,4.1-1.8,4.1-4.1C25.8,5.9,24,4.1,21.8,4.1z M6.6,9.9h11.5
		c0.3,0.7,0.9,1.3,1.5,1.7v0.5c-0.3-0.3-0.8-0.5-1.2-0.5h-3.7c-0.6,0-1.2,0.3-1.6,0.8c-0.3-0.5-0.9-0.8-1.6-0.8H7.9
		c-0.5,0-0.9,0.2-1.2,0.5V9.9z M19.6,13.4v0.3h-6.2v-0.3c0-0.3,0.1-0.6,0.4-0.9c0.2-0.2,0.5-0.4,0.9-0.4h3.7c0,0,0,0,0,0
		C19,12.2,19.6,12.7,19.6,13.4z M6.6,13.4c0-0.7,0.6-1.2,1.2-1.2h3.7c0,0,0,0,0,0c0.7,0,1.2,0.6,1.2,1.2v0.3H6.6V13.4z M20.9,21.9
		H5.2c0-0.2,0-1,0-3.3h15.7V21.9z M20.8,18H5.4l1.2-3.7h13.2L20.8,18z"/>
	<path class="st0" d="M21.8,5.9c-0.2,0-0.4,0.2-0.4,0.4v1.5h-1.5c-0.2,0-0.4,0.2-0.4,0.4c0,0.2,0.2,0.4,0.4,0.4h1.5V10
		c0,0.2,0.2,0.4,0.4,0.4s0.4-0.2,0.4-0.4V8.5h1.5c0.2,0,0.4-0.2,0.4-0.4c0-0.2-0.2-0.4-0.4-0.4h-1.5V6.2C22.1,6,22,5.9,21.8,5.9z"/>
</g>
</svg>
