<?xml version="1.0" encoding="utf-8"?>
<!-- Generator: Adobe Illustrator 24.3.0, SVG Export Plug-In . SVG Version: 6.00 Build 0)  -->
<svg version="1.1" id="Capa_1" xmlns="http://www.w3.org/2000/svg" xmlns:xlink="http://www.w3.org/1999/xlink" x="0px" y="0px"
	 viewBox="0 0 28.3 28.3" style="enable-background:new 0 0 28.3 28.3;" xml:space="preserve">
<style type="text/css">
	.st0{fill:#698D86;}
	.st1{fill:#698D86;stroke:#698D86;stroke-width:0.2;stroke-linecap:round;stroke-linejoin:round;stroke-miterlimit:10;}
	.st2{fill:#455F5D;}
	.st3{fill:#FFFFFF;}
	.st4{fill-rule:evenodd;clip-rule:evenodd;fill:#698D86;}
	.st5{stroke:#1D1D1B;stroke-width:0.6;stroke-miterlimit:10;}
	.st6{fill:none;stroke:#698D86;stroke-width:0.6;stroke-linejoin:round;stroke-miterlimit:10;}
	.st7{fill:none;stroke:#698D86;stroke-width:0.6;stroke-linecap:round;stroke-linejoin:round;stroke-miterlimit:10;}
	.st8{fill:none;stroke:#E30613;stroke-linejoin:round;stroke-miterlimit:10;}
	.st9{fill:#FFFFFF;stroke:#698D86;stroke-width:0.6;stroke-linecap:round;stroke-linejoin:round;stroke-miterlimit:10;}
	.st10{fill:#FFFFFF;stroke:#000000;stroke-width:0.6;stroke-linecap:round;stroke-miterlimit:10;}
	.st11{stroke:#698D86;stroke-width:0.6;stroke-linecap:round;stroke-linejoin:round;stroke-miterlimit:10;}
</style>
<g>
	<path class="st0" d="M22.9,7.6l0-0.3c0-0.1-0.1-0.1-0.1-0.1l-0.3,0c-5.6-0.3-8-2.7-8-2.7l-0.2-0.2c0,0-0.1,0-0.1,0s-0.1,0-0.1,0
		l-0.2,0.2c0,0-2.4,2.5-8,2.7l-0.3,0c-0.1,0-0.1,0.1-0.1,0.1l0,0.3c0,0-0.2,3.4,0.7,7.2c1.2,5,4,8.2,7.9,9.4l0.1,0c0,0,0,0,0,0
		c0,0,0,0,0,0l0.1,0c3.9-1.1,6.7-4.4,7.9-9.4C23.1,11,22.9,7.7,22.9,7.6z M21.1,15.4c-1.3,4.2-3.6,6.9-6.9,7.9
		c-3.4-1-5.7-3.7-6.9-7.9c-1-3.2-1-6.4-0.9-7.4c4.7-0.3,7.1-2,7.9-2.7c0.9,0.8,3.3,2.4,7.9,2.7C22.1,9.1,22.1,12.2,21.1,15.4z"/>
	<path class="st0" d="M8.6,14.2c0,3.1,2.5,5.6,5.6,5.6s5.6-2.5,5.6-5.6s-2.5-5.6-5.6-5.6S8.6,11.2,8.6,14.2z M9.4,14.2
		c0-2.6,2.1-4.7,4.7-4.7c2.6,0,4.7,2.1,4.7,4.7c0,2.6-2.1,4.7-4.7,4.7C11.6,19,9.4,16.9,9.4,14.2z"/>
	<path class="st0" d="M14.2,18c2.1,0,3.8-1.7,3.8-3.8c0-2.1-1.7-3.8-3.8-3.8c-2.1,0-3.8,1.7-3.8,3.8C10.4,16.3,12.1,18,14.2,18z
		 M11.3,14.2c0-1.6,1.3-2.9,2.9-2.9c1.6,0,2.9,1.3,2.9,2.9c0,1.6-1.3,2.9-2.9,2.9C12.6,17.2,11.3,15.8,11.3,14.2z"/>
</g>
</svg>
