<?xml version="1.0" encoding="utf-8"?>
<!-- Generator: Adobe Illustrator 24.3.0, SVG Export Plug-In . SVG Version: 6.00 Build 0)  -->
<svg version="1.1" id="Capa_1" xmlns="http://www.w3.org/2000/svg" xmlns:xlink="http://www.w3.org/1999/xlink" x="0px" y="0px"
	 viewBox="0 0 28.3 28.3" style="enable-background:new 0 0 28.3 28.3;" xml:space="preserve">
<style type="text/css">
	.st0{fill:#698D86;}
	.st1{fill:#698D86;stroke:#698D86;stroke-width:0.2;stroke-linecap:round;stroke-linejoin:round;stroke-miterlimit:10;}
	.st2{fill:#455F5D;}
	.st3{fill:#FFFFFF;}
	.st4{fill-rule:evenodd;clip-rule:evenodd;fill:#698D86;}
	.st5{fill:none;stroke:#698D86;stroke-width:0.6;stroke-linejoin:round;stroke-miterlimit:10;}
	.st6{fill:none;stroke:#698D86;stroke-width:0.6;stroke-linecap:round;stroke-linejoin:round;stroke-miterlimit:10;}
	.st7{fill:none;stroke:#E30613;stroke-linejoin:round;stroke-miterlimit:10;}
	.st8{fill:#FFFFFF;stroke:#698D86;stroke-width:0.6;stroke-linecap:round;stroke-linejoin:round;stroke-miterlimit:10;}
	.st9{fill:none;stroke:#698D86;stroke-width:0.75;stroke-miterlimit:10;}
</style>
<g>
	<path class="st0" d="M14.2,8.9c1.2,0,2.2-1,2.2-2.2s-1-2.2-2.2-2.2c-1.2,0-2.2,1-2.2,2.2S13,8.9,14.2,8.9z M12.7,6.7
		c0-0.8,0.7-1.5,1.5-1.5c0.8,0,1.5,0.7,1.5,1.5S15,8.2,14.2,8.2C13.4,8.2,12.7,7.5,12.7,6.7z"/>
	<g>
		<path class="st0" d="M17.2,11.4C17,10.3,16,9.6,15,9.6h-1.7l0,0.7H15c0.7,0,1.4,0.5,1.5,1.2l1,6.2c0,0.2,0.2,0.3,0.3,0.3
			c0,0,0,0,0.1,0c0.1,0,0.2-0.1,0.2-0.1c0.1-0.1,0.1-0.2,0.1-0.3L17.2,11.4z"/>
		<path class="st0" d="M11.1,11.4l-1,6.2c0,0.1,0,0.2,0.1,0.3c0.1,0.1,0.1,0.1,0.2,0.1c0,0,0,0,0.1,0c0.2,0,0.3-0.1,0.3-0.3l1-6.2
			c0.2-0.7,0.8-1.2,1.5-1.2V9.6C12.3,9.6,11.4,10.3,11.1,11.4z"/>
	</g>
	<path class="st0" d="M15.3,16.9c-0.2,0-0.3,0.2-0.3,0.3v6.2c0,0.2,0.2,0.3,0.3,0.3c0.2,0,0.3-0.2,0.3-0.3v-6.2
		C15.7,17,15.5,16.9,15.3,16.9z"/>
	<path class="st0" d="M13,16.9c-0.2,0-0.3,0.2-0.3,0.3v6.2c0,0.2,0.2,0.3,0.3,0.3s0.3-0.2,0.3-0.3v-6.2C13.4,17,13.2,16.9,13,16.9z"
		/>
	<g>
		<path class="st0" d="M21.3,8.9c1.2,0,2.2-1,2.2-2.2s-1-2.2-2.2-2.2c-1.2,0-2.2,1-2.2,2.2S20.1,8.9,21.3,8.9z M19.9,6.7
			c0-0.8,0.7-1.5,1.5-1.5c0.8,0,1.5,0.7,1.5,1.5s-0.7,1.5-1.5,1.5C20.5,8.2,19.9,7.5,19.9,6.7z"/>
		<g>
			<path class="st0" d="M24.4,11.4c-0.3-1-1.2-1.7-2.2-1.7h-1.7l0,0.7h1.7c0.7,0,1.4,0.5,1.5,1.2l1,6.2c0,0.2,0.2,0.3,0.3,0.3
				c0,0,0,0,0.1,0c0.1,0,0.2-0.1,0.2-0.1c0.1-0.1,0.1-0.2,0.1-0.3L24.4,11.4z"/>
			<path class="st0" d="M18.3,11.4l-0.1,0.6c0,0.1,0,0.2,0.1,0.3c0.1,0.1,0.1,0.1,0.2,0.1c0,0,0,0,0.1,0c0.2,0,0.3-0.1,0.3-0.3
				l0.1-0.5c0.2-0.7,0.8-1.2,1.5-1.2V9.6C19.5,9.6,18.6,10.3,18.3,11.4z"/>
		</g>
		<path class="st0" d="M22.5,16.9c-0.2,0-0.3,0.2-0.3,0.3v6.2c0,0.2,0.2,0.3,0.3,0.3c0.2,0,0.3-0.2,0.3-0.3v-6.2
			C22.8,17,22.7,16.9,22.5,16.9z"/>
		<path class="st0" d="M20.2,16.9c-0.2,0-0.3,0.2-0.3,0.3v6.2c0,0.2,0.2,0.3,0.3,0.3c0.2,0,0.3-0.2,0.3-0.3v-6.2
			C20.5,17,20.4,16.9,20.2,16.9z"/>
	</g>
	<g>
		<path class="st0" d="M9.2,6.7c0-1.2-1-2.2-2.2-2.2c-1.2,0-2.2,1-2.2,2.2s1,2.2,2.2,2.2C8.2,8.9,9.2,7.9,9.2,6.7z M7,8.2
			c-0.8,0-1.5-0.7-1.5-1.5S6.2,5.2,7,5.2c0.8,0,1.5,0.7,1.5,1.5S7.8,8.2,7,8.2z"/>
		<g>
			<path class="st0" d="M4,11.4c0.3-1,1.2-1.7,2.2-1.7h1.7l0,0.7H6.2c-0.7,0-1.4,0.5-1.5,1.2l-1,6.2c0,0.2-0.2,0.3-0.3,0.3
				c0,0,0,0-0.1,0c-0.1,0-0.2-0.1-0.2-0.1C3,17.8,3,17.7,3,17.6L4,11.4z"/>
			<path class="st0" d="M10,11.4l0.1,0.6c0,0.1,0,0.2-0.1,0.3c-0.1,0.1-0.1,0.1-0.2,0.1c0,0,0,0-0.1,0c-0.2,0-0.3-0.1-0.3-0.3
				l-0.1-0.5c-0.2-0.7-0.8-1.2-1.5-1.2V9.6C8.9,9.6,9.8,10.3,10,11.4z"/>
		</g>
		<path class="st0" d="M5.8,16.9c0.2,0,0.3,0.2,0.3,0.3v6.2c0,0.2-0.2,0.3-0.3,0.3c-0.2,0-0.3-0.2-0.3-0.3v-6.2
			C5.5,17,5.7,16.9,5.8,16.9z"/>
		<path class="st0" d="M8.2,16.9c0.2,0,0.3,0.2,0.3,0.3v6.2c0,0.2-0.2,0.3-0.3,0.3s-0.3-0.2-0.3-0.3v-6.2C7.8,17,8,16.9,8.2,16.9z"
			/>
	</g>
</g>
</svg>
