<?xml version="1.0" encoding="utf-8"?>
        <!-- Generator: Adobe Illustrator 25.4.0, SVG Export Plug-In . SVG Version: 6.00 Build 0)  -->
        <svg version="1.1" id="Capa_1" xmlns="http://www.w3.org/2000/svg" xmlns:xlink="http://www.w3.org/1999/xlink"
            x="0px" y="0px" viewBox="0 0 800 80.3" style="enable-background:new 0 0 800 80.3;" xml:space="preserve">
            <style type="text/css">
                .st0 {
                    fill: #C0E5D8;
                }

                .st1 {
                    fill: #455F5D;
                }

                .st2 {
                    fill: #A9C7B1;
                }

                .st3 {
                    clip-path: url(#SVGID_00000159434648811513822600000009466284669961290664_);
                    fill: none;
                    stroke: #A9C7B1;
                    stroke-width: 5;
                    stroke-linecap: round;
                    stroke-linejoin: round;
                }
            </style>
            <g>
                <rect y="0" class="st0" width="800" height="80.3" />
                <g>
                    <path class="st1" d="M734.4,41.8l-7.8-13.2c-0.7-1.2,0.2-2.7,1.6-2.7c0.6,0,1.2,0.3,1.6,0.9l6,10.4c0.4,0.6,1.3,0.6,1.6,0l6-10.4
			c0.3-0.6,0.9-0.9,1.6-0.9h0c1.4,0,2.3,1.5,1.6,2.7l-7.9,13.3c-0.2,0.3-0.3,0.6-0.3,0.9v10.7c0,1-0.8,1.8-1.8,1.8h-0.1
			c-1,0-1.8-0.8-1.8-1.8V42.7C734.7,42.4,734.6,42.1,734.4,41.8" />
                    <path class="st1" d="M757.4,30c4.1-1.7,8.5-0.9,11.6,1.7c0.5,0.5,1.3,0.6,2,0.3l0,0c1.3-0.6,1.6-2.3,0.5-3.3
			c-4.1-3.5-9.9-4.5-15.5-2.2c-5.5,2.3-8.9,7.1-9.3,12.5c-0.1,1.4,1.3,2.5,2.7,1.9l0,0c0.7-0.3,1.1-0.9,1.2-1.6
			C750.8,35.3,753.3,31.7,757.4,30" />
                    <path class="st1"
                        d="M766.2,51.1c-4.1,1.7-8.4,0.9-11.5-1.7c-0.6-0.5-1.3-0.6-2-0.3l0,0c-1.3,0.6-1.6,2.3-0.5,3.3
			c4.1,3.5,9.9,4.5,15.5,2.2s8.9-7.1,9.3-12.5c0.1-1.4-1.3-2.5-2.7-1.9c-0.7,0.3-1.1,0.9-1.2,1.6C772.8,45.8,770.3,49.4,766.2,51.1" />
                    <path class="st1" d="M774.8,37c-0.9,0.4-1.8,0-2.2-0.9c-0.4-0.9,0-1.8,0.9-2.2c0.9-0.4,1.8,0,2.2,0.9
			C776,35.7,775.6,36.6,774.8,37" />
                    <path class="st1" d="M750.5,47.1c-0.9,0.4-1.8,0-2.2-0.9c-0.4-0.9,0-1.8,0.9-2.2c0.9-0.4,1.8,0,2.2,0.9
			C751.8,45.8,751.4,46.8,750.5,47.1" />
                    <path class="st1" d="M767.2,23.9c-0.5,0-1-0.2-1.3-0.6l-3-3c-0.6-0.6-1.7-0.6-2.3,0l-2.9,2.9c-0.6,0.6-1.7,0.8-2.4,0.3
			c-1-0.7-1.1-2.1-0.3-2.9l4.2-4.2c0.5-0.5,1.2-0.9,1.9-1.1c1.2-0.2,2.4,0.1,3.3,1l4.2,4.2c0.6,0.6,0.8,1.8,0.3,2.5
			C768.3,23.6,767.7,23.9,767.2,23.9" />
                    <path class="st1" d="M730.1,65.3c-0.3,0.2-0.7,0.3-1,0.3c-1.2,0-2.2-1-2.2-2.2c0-1.2,0.9-2.2,2.2-2.2c0.4,0,0.7,0.1,1,0.3v0.8
			c-0.3-0.2-0.6-0.4-1-0.4c-0.8,0-1.5,0.7-1.5,1.5c0,0.8,0.6,1.5,1.5,1.5c0.4,0,0.8-0.1,1-0.4V65.3z" />
                    <polygon class="st1"
                        points="731.2,65.5 731.2,61.2 731.9,61.2 731.9,64.8 733.5,64.8 733.5,65.5 		" />
                    <path class="st1" d="M737.5,61.2v2.7c0,1-0.6,1.6-1.6,1.6c-1,0-1.6-0.6-1.6-1.6v-2.7h0.7V64c0,0.5,0.3,0.9,0.9,0.9
			c0.5,0,0.9-0.4,0.9-0.9v-2.7H737.5z" />
                    <path class="st1" d="M740.2,63.6h-0.7v1.2h0.7c0.4,0,0.6-0.2,0.6-0.6C740.9,63.8,740.6,63.6,740.2,63.6 M740.2,61.9h-0.6v1h0.6
			c0.3,0,0.6-0.2,0.6-0.5C740.7,62.1,740.5,61.9,740.2,61.9 M738.8,61.2h1.4c0.8,0,1.3,0.4,1.3,1.1c0,0.5-0.2,0.8-0.6,0.9
			c0.4,0.2,0.7,0.5,0.7,1c0,0.7-0.6,1.2-1.4,1.2h-1.4L738.8,61.2L738.8,61.2z" />
                    <polygon class="st1" points="742.7,65.5 742.7,61.2 745,61.2 745,61.9 743.4,61.9 743.4,63 744.9,63 744.9,63.7 743.4,63.7 
			743.4,64.8 745,64.8 745,65.5 		" />
                    <path class="st1" d="M748.7,61.9v2.9h0.8c0.9,0,1.4-0.6,1.4-1.4c0-0.8-0.5-1.4-1.4-1.4H748.7z M747.9,61.2h1.5
			c1.3,0,2.1,0.9,2.1,2.1c0,1.2-0.8,2.1-2.1,2.1h-1.5V61.2z" />
                    <polygon class="st1" points="752.6,65.5 752.6,61.2 755,61.2 755,61.9 753.3,61.9 753.3,63 754.9,63 754.9,63.7 753.3,63.7 
			753.3,64.8 755,64.8 755,65.5 		" />
                    <path class="st1" d="M760.8,65.3c-0.3,0.2-0.7,0.3-1,0.3c-1.2,0-2.2-1-2.2-2.2c0-1.2,0.9-2.2,2.2-2.2c0.4,0,0.7,0.1,1,0.3v0.8
			c-0.3-0.2-0.6-0.4-1-0.4c-0.8,0-1.5,0.7-1.5,1.5c0,0.8,0.6,1.5,1.5,1.5c0.4,0,0.8-0.1,1-0.4V65.3z" />
                    <path class="st1"
                        d="M762.9,63.8h1.2l-0.6-1.6L762.9,63.8z M764.3,64.4h-1.6l-0.4,1h-0.8l1.6-4.3h0.8l1.6,4.3h-0.8L764.3,64.4z" />
                    <path class="st1"
                        d="M768.4,62.2c-0.2-0.2-0.6-0.3-0.9-0.3c-0.4,0-0.6,0.2-0.6,0.5c0,0.2,0.1,0.3,0.3,0.5l0.6,0.4
			c0.5,0.3,0.8,0.7,0.8,1.1c0,0.6-0.4,1.2-1.4,1.2c-0.4,0-0.8-0.1-1.1-0.2v-0.8c0.2,0.2,0.6,0.4,1,0.4c0.4,0,0.7-0.2,0.7-0.5
			c0-0.2-0.1-0.3-0.4-0.5l-0.7-0.4c-0.5-0.3-0.7-0.6-0.7-1.1c0-0.6,0.4-1.2,1.4-1.2c0.3,0,0.7,0.1,0.9,0.2L768.4,62.2L768.4,62.2z" />
                    <path class="st1"
                        d="M770.5,63.8h1.2l-0.6-1.6L770.5,63.8z M771.9,64.4h-1.6l-0.4,1h-0.8l1.6-4.3h0.8l1.6,4.3h-0.8L771.9,64.4z" />
                    <path class="st1"
                        d="M776,62.2c-0.2-0.2-0.6-0.3-0.9-0.3c-0.4,0-0.6,0.2-0.6,0.5c0,0.2,0.1,0.3,0.3,0.5l0.6,0.4
			c0.5,0.3,0.8,0.7,0.8,1.1c0,0.6-0.4,1.2-1.4,1.2c-0.4,0-0.8-0.1-1.1-0.2v-0.8c0.2,0.2,0.6,0.4,1,0.4c0.4,0,0.7-0.2,0.7-0.5
			c0-0.2-0.1-0.3-0.4-0.5l-0.7-0.4c-0.5-0.3-0.7-0.6-0.7-1.1c0-0.6,0.4-1.2,1.4-1.2c0.3,0,0.7,0.1,0.9,0.2L776,62.2L776,62.2z" />
                </g>
                <path class="st2" d="M305.3,38.4c1.7,0.4,3.3-0.7,3.7-2.3c0.4-1.7-0.7-3.3-2.3-3.7c-1.7-0.4-3.3,0.7-3.7,2.3
		C302.6,36.4,303.6,38.1,305.3,38.4" />
                <g>
                    <g>
                        <defs>
                            <rect id="SVGID_1_" y="0" width="554.2" height="80.3" />
                        </defs>
                        <clipPath id="SVGID_00000100348336133177192090000008599311805300389526_">
                            <use xlink:href="#SVGID_1_" style="overflow:visible;" />
                        </clipPath>

                        <path
                            style="clip-path:url(#SVGID_00000100348336133177192090000008599311805300389526_);fill:none;stroke:#A9C7B1;stroke-width:5;stroke-linecap:round;stroke-linejoin:round;"
                            d="
				M-4.1,19c-1.8-0.1,38.6,39.5,128,41.8C213.3,63,260.6,5.9,298.2,29.2" />
                    </g>
                </g>
            </g>
        </svg>
