<?xml version="1.0" encoding="utf-8"?>
<!-- Generator: Adobe Illustrator 24.3.0, SVG Export Plug-In . SVG Version: 6.00 Build 0)  -->
<svg version="1.1" id="Capa_1" xmlns="http://www.w3.org/2000/svg" xmlns:xlink="http://www.w3.org/1999/xlink" x="0px" y="0px"
	 viewBox="0 0 28.3 28.3" style="enable-background:new 0 0 28.3 28.3;" xml:space="preserve">
<style type="text/css">
	.st0{fill:#698D86;}
	.st1{fill:#698D86;stroke:#698D86;stroke-width:0.2;stroke-linecap:round;stroke-linejoin:round;stroke-miterlimit:10;}
	.st2{fill:#455F5D;}
	.st3{fill:#FFFFFF;}
	.st4{fill-rule:evenodd;clip-rule:evenodd;fill:#698D86;}
	.st5{fill:none;stroke:#698D86;stroke-width:0.6;stroke-linejoin:round;stroke-miterlimit:10;}
	.st6{fill:none;stroke:#698D86;stroke-width:0.6;stroke-linecap:round;stroke-linejoin:round;stroke-miterlimit:10;}
	.st7{fill:none;stroke:#E30613;stroke-linejoin:round;stroke-miterlimit:10;}
	.st8{fill:#FFFFFF;stroke:#698D86;stroke-width:0.6;stroke-linecap:round;stroke-linejoin:round;stroke-miterlimit:10;}
	.st9{fill:#FFFFFF;stroke:#000000;stroke-width:0.6;stroke-linecap:round;stroke-miterlimit:10;}
	.st10{stroke:#698D86;stroke-width:0.6;stroke-linecap:round;stroke-linejoin:round;stroke-miterlimit:10;}
</style>
<g>
	<path class="st0" d="M-227.6-332.9c-6.6,0-12,5.4-12,12c0,0.2,0.2,0.4,0.4,0.4h0c0.2,0,0.4-0.2,0.4-0.4c0-6.1,5-11.1,11.1-11.1
		s11.1,5,11.1,11.1c0,6.1-5,11.1-11.1,11.1c-5,0-9.4-3.4-10.7-8.2c0-0.2-0.2-0.3-0.4-0.3c0,0-0.1,0-0.1,0c-0.1,0-0.2,0.1-0.3,0.2
		c-0.1,0.1-0.1,0.2-0.1,0.3c0,0,0,0,0,0.1c1.4,5.2,6.2,8.8,11.6,8.8c6.6,0,12-5.4,12-12C-215.6-327.5-220.9-332.9-227.6-332.9z"/>
	<path class="st0" d="M-227.7-314.5c-0.3,0-0.5,0.1-0.7,0.3c-0.2,0.2-0.3,0.4-0.3,0.7c0,0.3,0.1,0.5,0.3,0.7
		c0.2,0.2,0.4,0.3,0.7,0.3c0.3,0,0.5-0.1,0.7-0.3c0.2-0.2,0.3-0.4,0.3-0.7c0-0.3-0.1-0.5-0.3-0.7
		C-227.2-314.4-227.4-314.5-227.7-314.5z"/>
	<path class="st1" d="M-225.5-322.1c0.3-0.3,0.7-0.5,1-0.9c0.3-0.3,0.5-0.7,0.7-1.2c0.2-0.5,0.3-1,0.3-1.6c0-0.5-0.1-1-0.3-1.5
		c-0.2-0.4-0.5-0.8-0.9-1.1c-0.4-0.3-0.8-0.5-1.2-0.7c-0.9-0.3-1.8-0.3-2.6-0.1c-0.4,0.1-0.7,0.2-1,0.4c-0.3,0.2-0.6,0.3-0.8,0.5
		c-0.2,0.2-0.5,0.4-0.6,0.6l-0.2,0.2l0.2,0.3l0,0c0.1,0.1,0.2,0.1,0.3,0.1c0.1,0,0.2-0.1,0.5-0.3c0.1-0.1,0.3-0.3,0.6-0.5
		c0.2-0.2,0.6-0.3,0.9-0.5c0.4-0.1,0.8-0.2,1.3-0.2c0.4,0,0.8,0.1,1.2,0.2c0.4,0.1,0.7,0.3,1,0.5c0.3,0.2,0.5,0.5,0.7,0.9
		c0.2,0.3,0.3,0.7,0.3,1.1c0,0.5-0.1,1-0.3,1.3c-0.2,0.4-0.4,0.7-0.7,1c-0.3,0.3-0.6,0.6-0.9,0.8c-0.3,0.2-0.6,0.5-0.9,0.7
		c-0.3,0.2-0.5,0.5-0.7,0.7c-0.2,0.3-0.3,0.6-0.3,1v2.2h0.7l0.1-2.2c0-0.2,0.1-0.4,0.2-0.6c0.2-0.2,0.4-0.4,0.7-0.6
		C-226.1-321.7-225.8-321.9-225.5-322.1z"/>
</g>
<g>
	<path d="M-186.8-318.8l5-5c0.2-0.2,0.5-0.2,0.7,0c0.2,0.2,0.2,0.5,0,0.7l-4.1,4.1h10.3v-8.5c0-0.3,0.2-0.5,0.5-0.5s0.5,0.2,0.5,0.5
		v9c0,0.3-0.2,0.5-0.5,0.5c0,0,0,0,0,0h-10.8l4.1,4.1c0.2,0.2,0.2,0.5,0,0.7s-0.5,0.2-0.7,0c0,0,0,0,0,0l-5-5
		C-187-318.3-187-318.6-186.8-318.8C-186.8-318.8-186.8-318.8-186.8-318.8z"/>
</g>
<circle id="Elipse_42" class="st2" cx="-130.9" cy="-320.8" r="11.9"/>
<g id="Grupo_39793" transform="translate(2.421 12.222)">
	<g id="Grupo_39795" transform="translate(12.119 7.5)">
		<g id="Grupo_39793-2" transform="translate(23.472)">
			<path id="Trazado_78039" class="st3" d="M-168.9-338.1c3,0,5.5-2.5,5.5-5.5c0-3-2.5-5.5-5.5-5.5c-3,0-5.5,2.5-5.5,5.5
				C-174.4-340.6-171.9-338.1-168.9-338.1z"/>
		</g>
		<g id="Grupo_39794" transform="translate(0 67.935)">
			<path id="Trazado_78040" class="st3" d="M-136-401.6c-0.2-0.4-0.3-0.7-0.5-1c-1.1-1.6-2.8-2.7-4.7-3c-0.2,0-0.5,0-0.7,0.2
				c-2.1,1.5-4.8,1.5-6.9,0c-0.2-0.1-0.5-0.2-0.7-0.2c-1.9,0.3-3.7,1.4-4.7,3c-0.2,0.3-0.4,0.7-0.5,1c-0.1,0.1-0.1,0.3,0,0.4
				c0.2,0.3,0.4,0.7,0.6,1c0.3,0.4,0.7,0.9,1.1,1.2c0.4,0.3,0.7,0.7,1.1,0.9c3.9,2.9,9.2,2.9,13.1,0c0.4-0.3,0.8-0.6,1.1-0.9
				c0.4-0.4,0.8-0.8,1.1-1.2c0.2-0.3,0.5-0.6,0.6-1C-135.9-401.3-135.9-401.5-136-401.6z"/>
		</g>
	</g>
</g>
<g transform="translate(0,-952.36218)">
	<path class="st4" d="M-86.9,624.2C-87,624.2-87,624.2-86.9,624.2c-1.2,0.4-2.1,1-2.5,1.8c-0.4,0.8-0.5,1.8-0.3,2.8
		c0.4,2,1.8,4.3,3.7,6.1c1.8,1.9,4,3.3,6.1,3.8c1,0.2,2,0.2,2.8-0.3s1.5-1.3,2-2.5c0-0.1,0-0.3-0.1-0.3l-4-2.5c0,0,0,0,0,0l0,0
		c0,0,0,0,0,0c0,0,0,0,0,0c0,0,0,0,0,0c0,0,0,0,0,0c0,0,0,0,0,0c0,0,0,0,0,0c0,0,0,0,0,0c0,0,0,0-0.1,0c0,0,0,0-0.1,0
		c0,0-0.1,0-0.1,0.1c0,0,0,0,0,0c0,0,0,0,0,0.1l-1,1c-1.8-0.8-3.1-2.3-4.3-4.4l1-1l0,0c0,0,0,0,0,0c0,0,0,0,0,0c0,0,0,0,0,0
		c0,0,0,0,0,0c0,0,0,0,0,0c0,0,0,0,0,0c0,0,0,0,0,0c0,0,0,0,0,0c0,0,0,0,0,0c0,0,0,0,0,0c0,0,0,0,0,0c0,0,0,0,0,0c0,0,0,0,0,0
		c0,0,0,0,0,0c0,0,0,0,0,0c0,0,0,0,0,0c0,0,0,0,0,0c0,0,0,0,0,0c0,0,0,0,0,0c0,0,0,0,0,0c0,0,0,0,0,0c0,0,0,0,0,0c0,0,0,0,0,0
		c0,0,0,0,0,0c0,0,0,0,0,0c0,0,0,0,0,0c0,0,0,0,0,0c0,0,0,0,0-0.1c0,0,0,0,0,0l-2.5-4.1C-86.7,624.3-86.8,624.3-86.9,624.2
		C-86.9,624.2-86.9,624.2-86.9,624.2L-86.9,624.2z M-87,624.9l2.3,3.8l-1,1c-0.1,0.1-0.1,0.2,0,0.3c1.3,2.2,2.8,3.9,4.9,4.9
		c0.1,0,0.2,0,0.3-0.1l1.1-1.1l3.7,2.3c-0.4,1-1,1.6-1.6,2c-0.7,0.4-1.5,0.4-2.5,0.2c-1.9-0.4-4-1.8-5.8-3.6c-1.8-1.8-3.1-4-3.5-5.8
		c-0.2-0.9-0.1-1.8,0.3-2.4C-88.6,625.7-88,625.2-87,624.9L-87,624.9z"/>
	<path class="st4" d="M-82.5,619.4c-6.7,0-12.1,5.4-12.1,12.1c0,2.5,0.7,4.8,2.1,6.8l-1.4,4.8c0,0.1,0,0.3,0.2,0.4
		c0.1,0,0.1,0,0.2,0l4.7-1.6c1.9,1.2,4.1,1.9,6.5,1.9c6.7,0,12.1-5.4,12.1-12.1C-70.4,624.9-75.8,619.4-82.5,619.4L-82.5,619.4z
		 M-82.5,620c6.4,0,11.6,5.2,11.6,11.6c0,6.4-5.2,11.6-11.6,11.6c-2.3,0-4.5-0.7-6.3-1.8c-0.1,0-0.2-0.1-0.2,0l-4.3,1.5l1.3-4.4
		c0-0.1,0-0.2,0-0.2c-1.3-1.9-2-4.1-2-6.6C-94.1,625.2-88.9,620-82.5,620L-82.5,620z"/>
</g>
<g id="Grupo_39754" transform="translate(-7 -12)">
	<path id="Trazado_78012" class="st0" d="M-37.2-320.1c-0.2,0-0.3,0.1-0.3,0.3v6.6l-2,6.2c0,0.1,0,0.2-0.1,0.2v8.3
		c0,0.2,0.1,0.3,0.3,0.3c0.2,0,0.3-0.1,0.3-0.3v-2.3h23.6v2.3c0,0.2,0.1,0.3,0.3,0.3s0.3-0.1,0.3-0.3v-8.3c0-0.1,0-0.2-0.1-0.2
		l-2-6.2v-6.6c0-0.2-0.1-0.3-0.3-0.3H-37.2z M-37-319.6h19.6v3.8c-0.5-0.6-1.2-1-2-1h-5.5c-1,0-1.9,0.5-2.3,1.4
		c-0.4-0.9-1.3-1.4-2.3-1.4h-5.5c-0.8,0-1.5,0.4-2,1V-319.6z M-34.9-316.1h5.5c1.1,0,2,0.9,2,2c0,0,0,0,0,0v0.6H-37v-0.6
		C-37-315.2-36.1-316.1-34.9-316.1C-35-316.1-35-316.1-34.9-316.1L-34.9-316.1z M-24.9-316.1h5.5c1.1,0,2,0.9,2,2c0,0,0,0,0,0v0.6
		h-9.5v-0.6C-26.9-315.2-26-316.1-24.9-316.1C-24.9-316.1-24.9-316.1-24.9-316.1L-24.9-316.1z M-37-312.9h19.7l1.8,5.8h-23.4
		L-37-312.9z M-39-306.6h23.6c0,0,0,5.2,0,5.2H-39C-39-301.4-39-306.6-39-306.6z"/>
</g>
<g id="Grupo_39761" transform="translate(-7 -7)">
	<path id="Trazado_78013" class="st0" d="M21.4-325.9c-0.2,0-0.3,0.1-0.3,0.3v5.4h-9.5c-0.2,0-0.3,0.1-0.3,0.3v18.1h-2
		c-0.2,0-0.3,0.1-0.3,0.3c0,0.2,0.1,0.3,0.3,0.3h24.1c0.2,0,0.3-0.1,0.3-0.3c0-0.2-0.1-0.3-0.3-0.3h-2v-23.8c0-0.2-0.1-0.3-0.3-0.3
		H21.4z M21.6-325.3h9.2v23.5h-2.6v-6.6c0-0.2-0.1-0.3-0.3-0.3h-3.4c0,0,0,0-0.1,0c-0.1,0-0.2,0.1-0.2,0.3v6.6h-2.6L21.6-325.3z
		 M23.6-323.6c-0.1,0-0.2,0.1-0.2,0.3v2.9c0,0.2,0.1,0.3,0.3,0.3h2.9c0.2,0,0.3-0.1,0.3-0.3v-2.9c0-0.2-0.1-0.3-0.3-0.3H23.6
		C23.6-323.6,23.6-323.6,23.6-323.6L23.6-323.6z M23.9-323h2.3v2.3h-2.3L23.9-323z M11.9-319.6h9.2v17.8h-2.6v-5.4
		c0-0.2-0.1-0.3-0.3-0.3h-3.4c0,0,0,0-0.1,0c-0.1,0-0.2,0.1-0.2,0.3v5.4h-2.6V-319.6z M25.9-318.5c-0.1,0-0.2,0.1-0.2,0.3v2.9
		c0,0.2,0.1,0.3,0.3,0.3h2.9c0.2,0,0.3-0.1,0.3-0.3v-2.9c0-0.2-0.1-0.3-0.3-0.3L25.9-318.5C25.9-318.5,25.9-318.5,25.9-318.5
		L25.9-318.5z M16.2-317.9c-0.1,0-0.3,0.1-0.3,0.3v2.9c0,0.2,0.1,0.3,0.3,0.3h2.9c0.2,0,0.3-0.1,0.3-0.3v-2.9c0-0.1-0.1-0.3-0.2-0.3
		c0,0,0,0-0.1,0L16.2-317.9L16.2-317.9z M26.2-317.9h2.3v2.3h-2.3L26.2-317.9z M16.5-317.3h2.3v2.3h-2.3V-317.3z M13.9-312.7
		c-0.1,0-0.3,0.1-0.3,0.3v2.9c0,0.2,0.1,0.3,0.3,0.3h2.9c0.2,0,0.3-0.1,0.3-0.3v-2.9c0-0.1-0.1-0.3-0.2-0.3c0,0,0,0-0.1,0
		L13.9-312.7L13.9-312.7z M14.2-312.2h2.3v2.3h-2.3L14.2-312.2z M24.8-308.1h2.9v6.3h-2.9V-308.1z M15.1-307h2.9v5.2h-2.9V-307z"/>
</g>
<g id="Grupo_39763" transform="translate(-29.521 -102.92)">
	<path id="Trazado_78015" class="st0" d="M-136.8-108c-0.1-0.1-0.1-0.1-0.2-0.2c-0.2-0.2-0.4-0.3-0.6-0.5c-1.7-1.5-3.6-2.6-5.7-3.4
		c-2.1-0.7-4.3-1.1-6.5-1.2l0,0c-1.2,0-2.4,0.1-3.6,0.4c-3.5,0.7-6.7,2.4-9.3,4.8c0,0,0,0-0.1,0c-0.1,0.1-0.2,0.1-0.2,0.3
		c0,0.1,0,0.2,0.1,0.2c0,0.1,0.1,0.1,0.2,0.1c0.1,0,0.2-0.1,0.3-0.2l0,0c0,0,0,0,0.1-0.1s0,0,0.1-0.1c1.7-1.6,3.6-2.8,5.7-3.7
		c3-1.2,6.3-1.5,9.4-1c2.7,0.4,5.4,1.5,7.6,3.1c0.7,0.5,1.4,1.1,2.1,1.8c0.1,0.1,0.3,0.3,0.5,0.1c0.1,0,0.1-0.1,0.1-0.2
		C-136.6-107.9-136.7-108-136.8-108z"/>
	<path id="Trazado_78016" class="st0" d="M-140.9-103.9C-140.9-103.9-140.9-104-140.9-103.9c-2.4-2.3-5.6-3.6-8.8-3.5l0,0
		c-0.1,0-0.1,0-0.2,0c-0.1,0-0.3,0-0.4,0c-0.2,0-0.3,0-0.5,0l-0.2,0c-2.3,0.2-4.5,1-6.3,2.4c-0.5,0.3-0.9,0.7-1.3,1.1l0,0
		c-0.1,0.1-0.2,0.2-0.1,0.4c0,0.1,0.1,0.1,0.2,0.1c0.1,0,0.2-0.1,0.3-0.2c0,0,0.1-0.1,0.1-0.1c0,0,0.1-0.1,0.1-0.1
		c1.6-1.4,3.4-2.4,5.5-2.9c2-0.4,4.2-0.4,6.2,0.2c1.9,0.5,3.6,1.5,5,2.9l0,0c0.1,0.1,0.2,0.1,0.3,0.1h0c0.1,0,0.1,0,0.2-0.1
		c0.1-0.1,0.1-0.1,0.1-0.2C-140.7-103.8-140.8-103.9-140.9-103.9z"/>
	<path id="Trazado_78017" class="st0" d="M-144.9-99.9C-145-99.9-145-99.9-144.9-99.9c-1.3-1.2-3-1.9-4.7-1.9l0,0
		c-1.1,0-2.2,0.3-3.2,0.8c-0.6,0.3-1.1,0.7-1.6,1.1c-0.1,0.1-0.1,0.1-0.1,0.2c0,0.1,0,0.1,0.1,0.2c0,0.1,0.1,0.1,0.2,0.1
		c0.1,0,0.2-0.1,0.2-0.1c0,0,0.1-0.1,0.1-0.1c1-0.9,2.4-1.5,3.7-1.7c1.4-0.1,2.8,0.2,4,0.9c0.4,0.2,0.7,0.5,1,0.8
		c0.1,0.1,0.3,0.1,0.4,0c0,0,0,0,0,0c0.1-0.1,0.1-0.1,0.1-0.2C-144.8-99.7-144.8-99.8-144.9-99.9C-144.9-99.8-144.9-99.9-144.9-99.9
		z"/>
	<path id="Trazado_78018" class="st0" d="M-149.7-97L-149.7-97c-0.4,0-0.7,0.3-0.7,0.7c0,0.4,0.3,0.7,0.7,0.7h0
		c0.4,0,0.7-0.3,0.7-0.7v0C-149-96.7-149.3-97-149.7-97z"/>
</g>
<g>
	<path class="st0" d="M-233.7,15.1c-0.2-0.2-0.4-0.4-0.4-0.7c0-0.3,0.2-0.7,0.4-0.9c0.3-0.4,0.5-0.8,0.6-1.3c0-0.6-0.2-1.1-0.6-1.5
		c-0.1-0.1-0.2-0.1-0.3-0.1c-0.1,0-0.2,0.1-0.3,0.1c-0.1,0.1-0.1,0.2-0.1,0.3c0,0.1,0,0.2,0.1,0.2c0.3,0.3,0.4,0.6,0.4,1
		c0,0.3-0.2,0.6-0.4,0.9c-0.3,0.4-0.5,0.9-0.6,1.4c0,0.5,0.2,0.9,0.6,1.2c0.1,0.1,0.2,0.1,0.3,0.1c0,0,0,0,0,0c0.1,0,0.2,0,0.3-0.1
		c0.1-0.1,0.1-0.2,0.1-0.3C-233.6,15.3-233.7,15.2-233.7,15.1z"/>
	<path class="st0" d="M-219.9,6.6c-2-2-4.8-3.2-7.6-3.2c0,0,0,0,0,0c-2.9,0-5.6,1.1-7.6,3.2c-2,2-3.2,4.7-3.2,7.6s1.1,5.6,3.2,7.6
		c2,2,4.7,3.2,7.6,3.2c0,0,0,0,0,0c2.9,0,5.6-1.1,7.6-3.2c2-2,3.2-4.7,3.2-7.6C-216.8,11.3-217.9,8.6-219.9,6.6z M-225.1,16.1
		c-0.1-0.1-0.2-0.1-0.3-0.1c-0.1,0-0.2,0-0.3,0.1c-0.2,0.1-0.2,0.4,0,0.5l4.9,4.9c-4,3.7-10.3,3.5-14.1-0.4
		c-3.7-3.8-3.7-9.9-0.1-13.7l5.8,5.8l-4.4,4.4c-0.1,0.1-0.1,0.2-0.1,0.3c0,0.1,0,0.2,0.1,0.2l0,0.1h0.1l1.9,1.9
		c0.1,0.1,0.4,0.2,0.5,0l9.4-9.4c0.1-0.1,0.1-0.4,0-0.5l-2-2c-0.1-0.1-0.2-0.1-0.3-0.1c-0.1,0-0.2,0-0.3,0.1l-4.4,4.4l-5.8-5.8
		c1.9-1.7,4.3-2.7,6.8-2.7c2.7,0,5.2,1,7.1,2.9c1.9,1.9,2.9,4.4,2.9,7.1c0,2.5-0.9,5-2.7,6.8L-225.1,16.1z M-222.4,10.5l-4.2,4.2
		l-1.4-1.4l4.2-4.2L-222.4,10.5z M-232.7,17.9l4.2-4.2l1.4,1.5l-4.2,4.2L-232.7,17.9z"/>
</g>
<rect x="-421.6" y="-287.7" style="fill:none;" width="145.3" height="313.6"/>
<text transform="matrix(1 0 0 1 -421.5848 -282.6859)"><tspan x="0" y="0" style="font-family:'MyriadPro-Regular'; font-size:7px;">FACILIDADES</tspan><tspan x="0" y="8.4" style="fill:#006633; font-family:'MyriadPro-Regular'; font-size:7px;">Ar-condicionado</tspan><tspan x="0" y="16.8" style="fill:#006633; font-family:'MyriadPro-Regular'; font-size:7px;">Wi-fi</tspan><tspan x="0" y="25.2" style="fill:#006633; font-family:'MyriadPro-Regular'; font-size:7px;">Piscina</tspan><tspan x="0" y="33.6" style="fill:#006633; font-family:'MyriadPro-Regular'; font-size:7px;">Sauna</tspan><tspan x="0" y="42" style="fill:#006633; font-family:'MyriadPro-Regular'; font-size:7px;">Jacuzzi/ofurô</tspan><tspan x="0" y="50.4" style="fill:#006633; font-family:'MyriadPro-Regular'; font-size:7px;">Banheira</tspan><tspan x="0" y="58.8" style="fill:#006633; font-family:'MyriadPro-Regular'; font-size:7px;">Academia</tspan><tspan x="0" y="67.2" style="fill:#006633; font-family:'MyriadPro-Regular'; font-size:7px;">Quadra de tênis/beach tenis</tspan><tspan x="0" y="75.6" style="fill:#006633; font-family:'MyriadPro-Regular'; font-size:7px;">Quadra/campo de futebol</tspan><tspan x="0" y="84" style="fill:#006633; font-family:'MyriadPro-Regular'; font-size:7px;">Churrasqueira</tspan><tspan x="0" y="92.4" style="fill:#006633; font-family:'MyriadPro-Regular'; font-size:7px;">Adega</tspan><tspan x="0" y="100.8" style="fill:#006633; font-family:'MyriadPro-Regular'; font-size:7px;">Lavadora de roupa</tspan><tspan x="0" y="109.2" style="fill:#006633; font-family:'MyriadPro-Regular'; font-size:7px;">Lavadora de louça</tspan><tspan x="0" y="117.6" style="font-family:'MyriadPro-Regular'; font-size:7px;">Quarto extra para ajudante/babé</tspan><tspan x="0" y="126" style="fill:#006633; font-family:'MyriadPro-Regular'; font-size:7px;">Vagas para carros</tspan><tspan x="0" y="134.4" style="font-family:'MyriadPro-Regular'; font-size:7px;">Cozinha casher</tspan><tspan x="0" y="151.2" style="font-family:'MyriadPro-Regular'; font-size:7px;">REGRAS DA CASA</tspan><tspan x="0" y="159.6" style="fill:#006633; font-family:'MyriadPro-Regular'; font-size:7px;">Fumantes</tspan><tspan x="0" y="168" style="font-family:'MyriadPro-Regular'; font-size:7px;">Familia com crianças pequenas</tspan><tspan x="0" y="176.4" style="font-family:'MyriadPro-Regular'; font-size:7px;">Pets</tspan><tspan x="0" y="184.8" style="font-family:'MyriadPro-Regular'; font-size:7px;">Menosres de 23 anos desacompanhados</tspan><tspan x="0" y="193.2" style="font-family:'MyriadPro-Regular'; font-size:7px;">Uso da suite máster</tspan><tspan x="0" y="201.6" style="font-family:'MyriadPro-Regular'; font-size:7px;">Uso da adega</tspan><tspan x="0" y="210" style="font-family:'MyriadPro-Regular'; font-size:7px;">Aquecimento da piscina (sem reembolso)</tspan><tspan x="0" y="218.4" style="font-family:'MyriadPro-Regular'; font-size:7px;">Aquecimento da piscina (com reembolso do </tspan><tspan x="0" y="226.8" style="font-family:'MyriadPro-Regular'; font-size:7px;">valor)</tspan></text>
<g>
	<path class="st0" d="M-231-204.3c-0.2,0-0.3,0.1-0.3,0.3c0,0.1,0,0.1,0.1,0.2c0.3,0.3,0.5,0.8,0.5,1.2c0,0.4-0.2,0.8-0.5,1.1
		c-0.4,0.4-0.6,0.9-0.6,1.5c0,0.5,0.3,1,0.7,1.3c0.1,0.1,0.3,0.1,0.4,0c0.1-0.1,0.1-0.3,0-0.4l0,0c-0.3-0.2-0.5-0.6-0.5-0.9
		c0-0.4,0.2-0.8,0.5-1.1c0.4-0.4,0.6-0.9,0.6-1.4c0-0.6-0.2-1.2-0.7-1.6C-230.9-204.2-230.9-204.3-231-204.3z"/>
	<path class="st0" d="M-227.6-204.3c-0.2,0-0.3,0.1-0.3,0.3c0,0.1,0,0.1,0.1,0.2c0.3,0.3,0.5,0.8,0.5,1.2c0,0.4-0.2,0.8-0.5,1.1
		c-0.4,0.4-0.6,0.9-0.6,1.5c0,0.5,0.3,1,0.7,1.3c0.1,0.1,0.3,0.1,0.4,0c0.1-0.1,0.1-0.3,0-0.4l0,0c-0.3-0.2-0.5-0.6-0.5-0.9
		c0-0.4,0.2-0.8,0.5-1.1c0.4-0.4,0.6-0.9,0.6-1.4c0-0.6-0.2-1.2-0.7-1.6C-227.4-204.2-227.5-204.3-227.6-204.3z"/>
	<path class="st0" d="M-224-204.3c-0.2,0-0.3,0.1-0.3,0.3c0,0.1,0,0.1,0.1,0.2c0.3,0.3,0.5,0.8,0.5,1.2c0,0.4-0.2,0.8-0.5,1.1
		c-0.4,0.4-0.6,0.9-0.6,1.5c0,0.5,0.3,1,0.7,1.3c0.1,0.1,0.3,0.1,0.4,0c0.1-0.1,0.1-0.3,0-0.4l0,0c-0.3-0.2-0.5-0.6-0.5-0.9
		c0-0.4,0.2-0.8,0.5-1.1c0.4-0.4,0.6-0.9,0.6-1.4c0-0.6-0.2-1.2-0.7-1.6C-223.8-204.2-223.9-204.3-224-204.3z"/>
	<path class="st5" d="M-217.9-205.8h-19.2c-0.8,0-1.5-0.7-1.5-1.5v-6.8c0-0.8,0.7-1.5,1.5-1.5h19.2c0.8,0,1.5,0.7,1.5,1.5v6.8
		C-216.5-206.4-217.1-205.8-217.9-205.8z"/>
	<line class="st6" x1="-227.6" y1="-213" x2="-222.2" y2="-213"/>
	<line class="st6" x1="-220.3" y1="-213" x2="-218.7" y2="-213"/>
	<path class="st7" d="M-237.5-195.1"/>
	<path class="st7" d="M-220.6-195.1"/>
	<polyline class="st5" points="-236.6,-205.8 -236,-208.6 -219.1,-208.6 -218.5,-205.8 	"/>
</g>
<g>
	<path class="st6" d="M-118.5-203.2c-2.1,0-2.1-1.7-4.1-1.7c-2.1,0-2.1,1.7-4.1,1.7c-2.1,0-2.1-1.7-4.1-1.7c-2.1,0-2.1,1.7-4.1,1.7
		c-2.1,0-2.1-1.7-4.1-1.7s-2.1,1.7-4.1,1.7"/>
	<path class="st6" d="M-137.9-199.2"/>
	<path class="st6" d="M-136.5-198.2"/>
	<g>
		<path class="st6" d="M-137.9-199.2c-0.3-0.2-0.7-0.3-1.2-0.3c-2.1,0-2.1,1.7-4.1,1.7"/>
		<path class="st6" d="M-118.5-197.8c-2.1,0-2.1-1.7-4.1-1.7c-2.1,0-2.1,1.7-4.1,1.7c-2.1,0-2.1-1.7-4.1-1.7c-2.1,0-2.1,1.7-4.1,1.7
			c-0.7,0-1.1-0.2-1.5-0.4"/>
	</g>
	<g>
		<path class="st6" d="M-123.9-202c0.3-0.2,0.7-0.3,1.2-0.3c2.1,0,2.1,1.7,4.1,1.7"/>
		<path class="st6" d="M-143.2-200.5c2.1,0,2.1-1.7,4.1-1.7c2.1,0,2.1,1.7,4.1,1.7c2.1,0,2.1-1.7,4.1-1.7c2.1,0,2.1,1.7,4.1,1.7
			c0.7,0,1.1-0.2,1.5-0.4"/>
	</g>
	<path class="st6" d="M-135-203.5v-11c0-1.3-1.1-2.4-2.4-2.4l0,0c-1.3,0-2.4,1.1-2.4,2.4v0.4"/>
	<path class="st6" d="M-127.4-203.5v-11c0-1.3-1.1-2.4-2.4-2.4l0,0c-1.3,0-2.4,1.1-2.4,2.4v0.4"/>
	<line class="st6" x1="-135" y1="-212.8" x2="-127.4" y2="-212.8"/>
	<line class="st6" x1="-135" y1="-209.6" x2="-127.4" y2="-209.6"/>
	<line class="st6" x1="-135" y1="-206.4" x2="-127.4" y2="-206.4"/>
</g>
<g>
	<polygon class="st6" points="-72.3,-213.2 -82.3,-219.4 -92.8,-213.2 -92.8,-195.3 -72.3,-195.3 	"/>
	<g>
		<path class="st0" d="M-81-212c-0.2,0-0.3,0.1-0.3,0.3c0,0.1,0,0.1,0.1,0.2c0.3,0.3,0.5,0.8,0.5,1.2c0,0.4-0.2,0.8-0.5,1.1
			c-0.4,0.4-0.6,0.9-0.6,1.5c0,0.5,0.3,1,0.7,1.3c0.1,0.1,0.3,0.1,0.4,0c0.1-0.1,0.1-0.3,0-0.4l0,0c-0.3-0.2-0.5-0.6-0.5-0.9
			c0-0.4,0.2-0.8,0.5-1.1c0.4-0.4,0.6-0.9,0.6-1.4c0-0.6-0.2-1.2-0.7-1.6C-80.9-212-81-212-81-212z"/>
		<path class="st0" d="M-78.8-212c-0.2,0-0.3,0.1-0.3,0.3c0,0.1,0,0.1,0.1,0.2c0.3,0.3,0.5,0.8,0.5,1.2c0,0.4-0.2,0.8-0.5,1.1
			c-0.4,0.4-0.6,0.9-0.6,1.5c0,0.5,0.3,1,0.7,1.3c0.1,0.1,0.3,0.1,0.4,0c0.1-0.1,0.1-0.3,0-0.4l0,0c-0.3-0.2-0.5-0.6-0.5-0.9
			c0-0.4,0.2-0.8,0.5-1.1c0.4-0.4,0.6-0.9,0.6-1.4c0-0.6-0.2-1.2-0.7-1.6C-78.6-212-78.7-212-78.8-212z"/>
		<path class="st0" d="M-76.4-212c-0.2,0-0.3,0.1-0.3,0.3c0,0.1,0,0.1,0.1,0.2c0.3,0.3,0.5,0.8,0.5,1.2c0,0.4-0.2,0.8-0.5,1.1
			c-0.4,0.4-0.6,0.9-0.6,1.5c0,0.5,0.3,1,0.7,1.3c0.1,0.1,0.3,0.1,0.4,0c0.1-0.1,0.1-0.3,0-0.4l0,0c-0.3-0.2-0.5-0.6-0.5-0.9
			c0-0.4,0.2-0.8,0.5-1.1c0.4-0.4,0.6-0.9,0.6-1.4c0-0.6-0.2-1.2-0.7-1.6C-76.2-212-76.3-212-76.4-212z"/>
		<circle class="st6" cx="-86" cy="-212.6" r="1.5"/>
		<path class="st6" d="M-78.8-198.4l-1.9-4.9c-0.2-0.4-0.6-0.7-1-0.7h-3.1c-0.2,0-0.3-0.1-0.3-0.3v-4.5c0-0.7-0.6-1.3-1.3-1.3
			c-0.7,0-1.3,0.6-1.3,1.3v4.8v1.5c0,0.3,0.3,0.6,0.6,0.6h2h2.8c0.3,0,0.5,0.2,0.6,0.4l1.3,3.5c0.2,0.4,0.6,0.6,1,0.4
			C-78.9-197.6-78.7-198-78.8-198.4z"/>
		<path class="st6" d="M-89.5-200.9c0.1,0,7.1,0,7.1,0"/>
		<g>
			<line class="st6" x1="-87.7" y1="-197.2" x2="-87.7" y2="-200.8"/>
			<line class="st6" x1="-84.2" y1="-197.2" x2="-84.2" y2="-200.8"/>
		</g>
	</g>
</g>
<g>
	<path class="st6" d="M-25-207.3h-19.1c-0.5,0-0.9-0.4-0.9-0.9l0,0c0-0.5,0.4-0.9,0.9-0.9H-25c0.5,0,0.9,0.4,0.9,0.9l0,0
		C-24.1-207.8-24.5-207.3-25-207.3z"/>
	<path class="st6" d="M-30.3-198.6h-13c-0.4,0-0.8-0.3-0.8-0.8v-8h19.2v5.2"/>
	<path class="st0" d="M-36.7-216.7c-0.2,0-0.3,0.1-0.3,0.3c0,0.1,0,0.1,0.1,0.2c0.3,0.3,0.5,0.8,0.5,1.2c0,0.4-0.2,0.8-0.5,1.1
		c-0.4,0.4-0.6,0.9-0.6,1.5c0,0.5,0.3,1,0.7,1.3c0.1,0.1,0.3,0.1,0.4,0c0.1-0.1,0.1-0.3,0-0.4l0,0c-0.3-0.2-0.5-0.6-0.5-0.9
		c0-0.4,0.2-0.8,0.5-1.1c0.4-0.4,0.6-0.9,0.6-1.4c0-0.6-0.2-1.2-0.7-1.6C-36.5-216.6-36.6-216.7-36.7-216.7z"/>
	<path class="st0" d="M-34.5-216.7c-0.2,0-0.3,0.1-0.3,0.3c0,0.1,0,0.1,0.1,0.2c0.3,0.3,0.5,0.8,0.5,1.2c0,0.4-0.2,0.8-0.5,1.1
		c-0.4,0.4-0.6,0.9-0.6,1.5c0,0.5,0.3,1,0.7,1.3c0.1,0.1,0.3,0.1,0.4,0c0.1-0.1,0.1-0.3,0-0.4l0,0c-0.3-0.2-0.5-0.6-0.5-0.9
		c0-0.4,0.2-0.8,0.5-1.1c0.4-0.4,0.6-0.9,0.6-1.4c0-0.6-0.2-1.2-0.7-1.6C-34.3-216.6-34.4-216.7-34.5-216.7z"/>
	<path class="st0" d="M-32.1-216.7c-0.2,0-0.3,0.1-0.3,0.3c0,0.1,0,0.1,0.1,0.2c0.3,0.3,0.5,0.8,0.5,1.2c0,0.4-0.2,0.8-0.5,1.1
		c-0.4,0.4-0.6,0.9-0.6,1.5c0,0.5,0.3,1,0.7,1.3c0.1,0.1,0.3,0.1,0.4,0c0.1-0.1,0.1-0.3,0-0.4l0,0c-0.3-0.2-0.5-0.6-0.5-0.9
		c0-0.4,0.2-0.8,0.5-1.1c0.4-0.4,0.6-0.9,0.6-1.4c0-0.6-0.2-1.2-0.7-1.6C-31.9-216.6-32-216.7-32.1-216.7z"/>
	<rect x="-30.3" y="-199.4" class="st6" width="7" height="1.3"/>
	<rect x="-29.7" y="-200.8" class="st6" width="5.8" height="1.3"/>
	<rect x="-29.3" y="-202.1" class="st6" width="4.8" height="1.3"/>
	<rect x="-42.5" y="-209.8" class="st8" width="3.4" height="3.9"/>
	<line class="st6" x1="-37.2" y1="-205.7" x2="-32.2" y2="-205.7"/>
	<line class="st6" x1="-31.2" y1="-205.7" x2="-26.2" y2="-205.7"/>
	<line class="st6" x1="-42.2" y1="-204" x2="-36.3" y2="-204"/>
	<line class="st6" x1="-34.7" y1="-204" x2="-26" y2="-204"/>
	<line class="st6" x1="-42.1" y1="-202.2" x2="-32" y2="-202.2"/>
	<line class="st6" x1="-42.2" y1="-200.5" x2="-35.7" y2="-200.5"/>
	<line class="st6" x1="-34.2" y1="-200.5" x2="-31.9" y2="-200.5"/>
</g>
<g>
	<path class="st6" d="M23.7-205.5H4.6c-0.5,0-0.9-0.4-0.9-0.9l0,0c0-0.5,0.4-0.9,0.9-0.9h19.1c0.5,0,0.9,0.4,0.9,0.9l0,0
		C24.6-205.9,24.2-205.5,23.7-205.5z"/>
	<path class="st6" d="M23.9-200.3v-5.2H4.6v5.7c0,1.7,1.4,3.1,3.1,3.1h10.7h2.4c1.7,0,3.1-1.4,3.1-3.1V-200.3z"/>
	<path class="st6" d="M21.5-207.3v-9.8c0-1-0.8-1.9-1.9-1.9h0c-1,0-1.9,0.8-1.9,1.9v0.6"/>
	<path class="st6" d="M18.9-215.3h-2.2c0-0.6,0.5-1.1,1.1-1.1S18.9-215.9,18.9-215.3z"/>
	<line class="st6" x1="7.4" y1="-195.7" x2="8.4" y2="-196.7"/>
	<line class="st6" x1="21.3" y1="-195.7" x2="20.2" y2="-196.7"/>
</g>
<g>
	<path class="st8" d="M-218.4-158.1h-18.2c-0.5,0-1-0.4-1-1l0,0c0-0.5,0.4-1,1-1h18.2c0.5,0,1,0.4,1,1l0,0
		C-217.5-158.6-217.9-158.1-218.4-158.1z"/>
	<path class="st8" d="M-234.6-154.8L-234.6-154.8c-0.6,0-1.1-0.5-1.1-1.1v-6c0-0.6,0.5-1.1,1.1-1.1l0,0c0.6,0,1.1,0.5,1.1,1.1v6
		C-233.4-155.4-233.9-154.8-234.6-154.8z"/>
	<path class="st8" d="M-232.3-153.5L-232.3-153.5c-0.6,0-1.1-0.5-1.1-1.1v-8.7c0-0.6,0.5-1.1,1.1-1.1l0,0c0.6,0,1.1,0.5,1.1,1.1v8.7
		C-231.2-154-231.7-153.5-232.3-153.5z"/>
	<path class="st8" d="M-220.6-163.2L-220.6-163.2c0.6,0,1.1,0.5,1.1,1.1v6c0,0.6-0.5,1.1-1.1,1.1h0c-0.6,0-1.1-0.5-1.1-1.1v-6
		C-221.7-162.6-221.2-163.2-220.6-163.2z"/>
	<path class="st8" d="M-222.9-164.5L-222.9-164.5c0.6,0,1.1,0.5,1.1,1.1v8.7c0,0.6-0.5,1.1-1.1,1.1l0,0c-0.6,0-1.1-0.5-1.1-1.1v-8.7
		C-224-164-223.5-164.5-222.9-164.5z"/>
</g>
<g>
	<g>
		<path d="M-182.5-154.4c1.2-1.2,2.5-1.3,4-1.3c1.9-0.1,4-0.3,6.2-2.5c1.2-1.2,2-2.7,2.1-4.2c0.1-1.5-0.4-2.9-1.4-3.9
			c-1-1-2.5-1.5-4-1.4c-1.6,0.1-3,0.8-4.3,2c-2.2,2.1-2.4,4.2-2.5,6c-0.1,1.5-0.3,2.8-1.4,3.9 M-183.4-155.3
			c1.3-1.3,1.5-2.8,1.6-4.3c0.2-1.8,0.3-3.7,2.3-5.6c1.1-1.1,2.5-1.8,3.9-1.9c1.3-0.1,2.6,0.3,3.5,1.2c0.9,0.9,1.4,2.1,1.3,3.4
			c-0.1,1.4-0.8,2.7-1.9,3.8c-2.1,2-4,2.2-5.8,2.3c-1.6,0.1-3.1,0.2-4.4,1.5"/>
		<path d="M-175.6-166.5c-1.2,0.1-2.4,0.7-3.4,1.6c-1.1,1-1.7,2.3-1.8,3.5c-0.1,1.2,0.3,2.2,1.2,3c0.8,0.7,1.8,1.1,2.8,1.1
			c0.1,0,0.2,0,0.3,0c1.2-0.1,2.5-0.7,3.5-1.7c1-1,1.6-2.1,1.7-3.4c0.1-1.2-0.3-2.3-1.1-3.1C-173.3-166.2-174.4-166.6-175.6-166.5z
			 M-172-163l-0.7-0.7l0.4-0.4C-172.1-163.7-172-163.4-172-163z M-173.3-159.6l-0.7-0.7l0.4-0.4l0.4-0.4l0.6,0.5
			C-172.8-160.2-173-159.9-173.3-159.6z M-172.5-162.6l-0.4,0.4l-0.4,0.4l-0.4-0.3l-0.4-0.3l0.4-0.4l0.4-0.4l0.4,0.3L-172.5-162.6z
			 M-176.7-160.7l-0.7-0.7l0.4-0.4l0.4-0.4l0.4,0.3l0.4,0.3l-0.4,0.4L-176.7-160.7z M-174.3-164.4l0.7,0.7l-0.4,0.4l-0.4,0.4
			l-0.4-0.3l-0.4-0.3l0.4-0.4L-174.3-164.4z M-175.9-163.6l-0.4,0.4l-0.4,0.4l-0.7-0.7l0.7-0.7l0.4,0.3L-175.9-163.6z M-175.5-161.8
			l-0.4-0.3l-0.4-0.3l0.4-0.4l0.4-0.4l0.4,0.3l0.4,0.3l-0.4,0.4L-175.5-161.8z M-175.5-165.5l0.7,0.7l-0.4,0.4l-0.4,0.4l-0.4-0.3
			l-0.4-0.3l0.4-0.4L-175.5-165.5z M-177.8-163.2l0.7,0.7l-0.4,0.4l-0.4,0.4l-0.7-0.7l0.4-0.4L-177.8-163.2z M-179.7-161.3l0.4-0.4
			l0.4-0.4l0.7,0.7l-0.4,0.4l-0.4,0.4l-0.4-0.3L-179.7-161.3z M-178.6-160.2l0.4-0.4l0.4-0.4l0.7,0.7l-0.4,0.4l-0.4,0.4l-0.4-0.3
			L-178.6-160.2z M-176.7-158.4l-0.7-0.7l0.4-0.4l0.4-0.4l0.4,0.3l0.4,0.3l-0.4,0.4L-176.7-158.4z M-175.5-159.6l-0.4-0.3l-0.4-0.3
			l0.4-0.4l0.4-0.4l0.7,0.7l-0.4,0.4L-175.5-159.6z M-174.4-160.7l-0.7-0.7l0.4-0.4l0.4-0.4l0.4,0.3l0.4,0.3l-0.4,0.4L-174.4-160.7z
			 M-174.3-165.2l-0.7-0.7c0.4,0,0.8,0.1,1.1,0.3L-174.3-165.2z M-176.6-165.2l-0.4-0.4c0.4-0.2,0.7-0.3,1.1-0.3L-176.6-165.2z
			 M-177.6-165.3l0.5,0.5l-0.7,0.7l-0.6-0.6C-178.2-164.9-177.9-165.1-177.6-165.3z M-178.9-164.2l0.6,0.6l-0.4,0.4l-0.4,0.4
			l-0.5-0.5C-179.3-163.7-179.1-164-178.9-164.2z M-179.8-162.9l0.4,0.4l-0.8,0.8C-180.1-162.1-180-162.5-179.8-162.9z
			 M-175.5-158.7l0.5,0.4c-0.4,0.2-0.9,0.3-1.3,0.4L-175.5-158.7z M-174.5-158.6l-0.6-0.6l0.4-0.4l0.4-0.4l0.7,0.7
			C-174-159-174.3-158.8-174.5-158.6z M-172.4-161l-0.4-0.4l0.8-0.7C-172.1-161.8-172.2-161.4-172.4-161z M-172.6-164.6l-0.5,0.5
			l-0.7-0.7l0.5-0.5c0.1,0.1,0.3,0.2,0.4,0.3C-172.8-164.9-172.7-164.8-172.6-164.6z M-180.3-161l0.8,0.8l-0.5,0.5
			C-180.1-160.1-180.2-160.6-180.3-161z M-179.6-159.2l0.6-0.6l0.7,0.7l-0.6,0.6c-0.1-0.1-0.2-0.2-0.4-0.3
			C-179.4-158.9-179.5-159.1-179.6-159.2z M-178.4-158.2l0.5-0.5l0.9,0.8C-177.5-157.9-177.9-158-178.4-158.2z"/>
		<path d="M-181-158.6c-0.1-0.1-0.2-0.1-0.3-0.1c-0.1,0-0.2,0.1-0.2,0.2l-0.3,1.7c0,0.1,0,0.2,0.1,0.3c0.1,0.1,0.1,0.1,0.2,0.1
			c0,0,0,0,0,0l1.7-0.3c0.1,0,0.2-0.1,0.2-0.2c0-0.1,0-0.2-0.1-0.3L-181-158.6z M-181.1-157.1l0.1-0.7l0.6,0.6L-181.1-157.1z"/>
		<path d="M-185.4-160.3c1.1,0,1.9-0.8,1.9-1.9s-0.9-1.9-1.9-1.9c-1.1,0-1.9,0.8-1.9,1.9S-186.5-160.3-185.4-160.3z M-185.4-163.5
			c0.7,0,1.3,0.6,1.3,1.3s-0.6,1.3-1.3,1.3c-0.7,0-1.3-0.6-1.3-1.3S-186.2-163.5-185.4-163.5z"/>
	</g>
	<path class="st9" d="M-183.5-155.7l-4.5,4c-0.4,0.3-0.4,0.9,0.1,1.2l0,0c0.3,0.2,0.7,0.2,1-0.1l4.3-4.2"/>
</g>
<g>
	<circle class="st6" cx="-130.9" cy="-167.6" r="2"/>
	<rect x="-140.1" y="-170.8" class="st6" width="18.5" height="23.6"/>
	<rect x="-134.7" y="-170.8" class="st8" width="7.7" height="3.2"/>
	<circle class="st6" cx="-130.8" cy="-150.4" r="2"/>
	
		<rect x="-134.7" y="-150.4" transform="matrix(-1 -1.224647e-16 1.224647e-16 -1 -261.7514 -297.5743)" class="st8" width="7.7" height="3.2"/>
	<line class="st10" x1="-140.1" y1="-159" x2="-121.6" y2="-159"/>
	<circle class="st6" cx="-130.9" cy="-159" r="2.9"/>
</g>
<g>
	<path class="st0" d="M-85.2-170.9c-0.2,0-0.3,0.1-0.3,0.3c0,0.1,0,0.1,0.1,0.2c0.3,0.3,0.5,0.8,0.5,1.2c0,0.4-0.2,0.8-0.5,1.1
		c-0.4,0.4-0.6,0.9-0.6,1.5c0,0.5,0.3,1,0.7,1.3c0.1,0.1,0.3,0.1,0.4,0c0.1-0.1,0.1-0.3,0-0.4l0,0c-0.3-0.2-0.5-0.6-0.5-0.9
		c0-0.4,0.2-0.8,0.5-1.1c0.4-0.4,0.6-0.9,0.6-1.4c0-0.6-0.2-1.2-0.7-1.6C-85.1-170.8-85.2-170.9-85.2-170.9z"/>
	<path class="st0" d="M-83-170.9c-0.2,0-0.3,0.1-0.3,0.3c0,0.1,0,0.1,0.1,0.2c0.3,0.3,0.5,0.8,0.5,1.2c0,0.4-0.2,0.8-0.5,1.1
		c-0.4,0.4-0.6,0.9-0.6,1.5c0,0.5,0.3,1,0.7,1.3c0.1,0.1,0.3,0.1,0.4,0s0.1-0.3,0-0.4l0,0c-0.3-0.2-0.5-0.6-0.5-0.9
		c0-0.4,0.2-0.8,0.5-1.1c0.4-0.4,0.6-0.9,0.6-1.4c0-0.6-0.2-1.2-0.7-1.6C-82.8-170.8-82.9-170.9-83-170.9z"/>
	<path class="st0" d="M-80.6-170.9c-0.2,0-0.3,0.1-0.3,0.3c0,0.1,0,0.1,0.1,0.2c0.3,0.3,0.5,0.8,0.5,1.2c0,0.4-0.2,0.8-0.5,1.1
		c-0.4,0.4-0.6,0.9-0.6,1.5c0,0.5,0.3,1,0.7,1.3c0.1,0.1,0.3,0.1,0.4,0s0.1-0.3,0-0.4l0,0c-0.3-0.2-0.5-0.6-0.5-0.9
		c0-0.4,0.2-0.8,0.5-1.1c0.4-0.4,0.6-0.9,0.6-1.4c0-0.6-0.2-1.2-0.7-1.6C-80.4-170.8-80.5-170.9-80.6-170.9z"/>
	<line class="st10" x1="-91.8" y1="-161.7" x2="-73.3" y2="-161.7"/>
	<path class="st6" d="M-74.6-163.7c0,4.4-3.6,7.9-7.9,7.9c-4.4,0-7.9-3.6-7.9-7.9H-74.6z"/>
	<line class="st6" x1="-82.5" y1="-147.5" x2="-82.5" y2="-155.8"/>
	<line class="st6" x1="-87.6" y1="-147.6" x2="-85.9" y2="-156.4"/>
	<line class="st6" x1="-78" y1="-149.8" x2="-79.3" y2="-156.4"/>
	<circle class="st6" cx="-77.7" cy="-148.4" r="1.3"/>
</g>
<g>
	<line class="st6" x1="-28.4" y1="-165.7" x2="-28.4" y2="-167.8"/>
	<path class="st6" d="M-23.7-165.3h-0.9c-0.2,0-0.4-0.2-0.4-0.4v-2.1c0-0.2,0.2-0.4,0.4-0.4h0.9c0.2,0,0.4,0.2,0.4,0.4v2.1
		C-23.3-165.5-23.5-165.3-23.7-165.3z"/>
	<line class="st6" x1="-42.8" y1="-163.6" x2="-42.8" y2="-170"/>
	<line class="st6" x1="-34.5" y1="-163.6" x2="-34.5" y2="-170"/>
	<path class="st6" d="M-27-167.8"/>
	<path class="st6" d="M-27-169.9"/>
	<path class="st6" d="M-28.6-165.7c0,0-0.8-0.1-1.8,1.1c-0.9,1-1.7,1.1-2.3,1.1c-1.1,0-11.4,0-11.4,0c-0.5,0-0.8-0.4-0.8-0.8v-4.8
		c0-0.5,0.4-0.8,0.8-0.8c0,0,10.4,0,11.4,0c0.6,0,1.4,0.1,2.3,1.1c1,1.1,1.8,1.1,1.8,1.1l0.7,0h2.9v2.1H-28L-28.6-165.7z"/>
	<line class="st6" x1="-28.4" y1="-158" x2="-28.4" y2="-160.1"/>
	<path class="st6" d="M-23.7-157.5h-0.9c-0.2,0-0.4-0.2-0.4-0.4v-2.1c0-0.2,0.2-0.4,0.4-0.4h0.9c0.2,0,0.4,0.2,0.4,0.4v2.1
		C-23.3-157.7-23.5-157.5-23.7-157.5z"/>
	<line class="st6" x1="-42.8" y1="-155.8" x2="-42.8" y2="-162.2"/>
	<line class="st6" x1="-34.5" y1="-155.8" x2="-34.5" y2="-162.2"/>
	<path class="st6" d="M-27-160.1"/>
	<path class="st6" d="M-27-162.2"/>
	<path class="st6" d="M-28.6-157.9c0,0-0.8-0.1-1.8,1.1c-0.9,1-1.7,1.1-2.3,1.1c-1.1,0-11.4,0-11.4,0c-0.5,0-0.8-0.4-0.8-0.8v-4.8
		c0-0.5,0.4-0.8,0.8-0.8c0,0,10.4,0,11.4,0c0.6,0,1.4,0.1,2.3,1.1c1,1.1,1.8,1.1,1.8,1.1l0.7,0h2.9v2.1H-28L-28.6-157.9z"/>
	<line class="st6" x1="-28.4" y1="-150.2" x2="-28.4" y2="-152.3"/>
	<path class="st6" d="M-23.7-149.8h-0.9c-0.2,0-0.4-0.2-0.4-0.4v-2.1c0-0.2,0.2-0.4,0.4-0.4h0.9c0.2,0,0.4,0.2,0.4,0.4v2.1
		C-23.3-150-23.5-149.8-23.7-149.8z"/>
	<line class="st6" x1="-42.8" y1="-148" x2="-42.8" y2="-154.4"/>
	<line class="st6" x1="-34.5" y1="-148" x2="-34.5" y2="-154.4"/>
	<path class="st6" d="M-27-152.3"/>
	<path class="st6" d="M-27-154.4"/>
	<path class="st6" d="M-28.6-150.2c0,0-0.8-0.1-1.8,1.1c-0.9,1-1.7,1.1-2.3,1.1c-1.1,0-11.4,0-11.4,0c-0.5,0-0.8-0.4-0.8-0.8v-4.8
		c0-0.5,0.4-0.8,0.8-0.8c0,0,10.4,0,11.4,0c0.6,0,1.4,0.1,2.3,1.1c1,1.1,1.8,1.1,1.8,1.1l0.7,0h2.9v2.1H-28L-28.6-150.2z"/>
</g>
<g>
	<rect x="-237.3" y="-121.9" class="st6" width="19.4" height="22.5"/>
	<line class="st6" x1="-237.3" y1="-120.4" x2="-217.8" y2="-120.4"/>
	<line class="st6" x1="-237.3" y1="-101" x2="-217.8" y2="-101"/>
	<line class="st6" x1="-237.3" y1="-115.7" x2="-217.8" y2="-115.7"/>
	<line class="st6" x1="-232.4" y1="-118.7" x2="-231.4" y2="-118.7"/>
	<line class="st6" x1="-232.4" y1="-117.2" x2="-231.4" y2="-117.2"/>
	<line class="st6" x1="-223.8" y1="-118.7" x2="-222.8" y2="-118.7"/>
	<line class="st6" x1="-223.8" y1="-117.2" x2="-222.8" y2="-117.2"/>
	<rect x="-229.7" y="-118.7" class="st6" width="4.5" height="1.6"/>
	<path class="st6" d="M-225.5-115.7c0,1.1-0.9,2.1-2.1,2.1c-1.1,0-2.1-0.9-2.1-2.1"/>
</g>
<g>
	<rect x="4.5" y="-170.3" class="st6" width="19.4" height="22.5"/>
	<line class="st6" x1="8.7" y1="-168" x2="8.7" y2="-167"/>
	<line class="st6" x1="7.1" y1="-168" x2="7.1" y2="-167"/>
	<line class="st6" x1="10.2" y1="-168" x2="10.2" y2="-167"/>
	<line class="st6" x1="18.2" y1="-167.5" x2="20.9" y2="-167.5"/>
	<circle class="st6" cx="14.2" cy="-156.3" r="6.1"/>
	<circle class="st6" cx="14.2" cy="-156.3" r="4.4"/>
	<line class="st6" x1="4.5" y1="-164.8" x2="23.9" y2="-164.8"/>
</g>
<text transform="matrix(1 0 0 1 -186.7512 -100.4812)" class="st6" style="font-family:'NiveauGroteskBlack'; font-size:29.5079px;">P</text>
<path class="st0" d="M-173.7,79.1c-0.2,0-0.3,0-0.5,0c-1-1.9-2.9-3.1-4.9-3.1c-2.1,0-3.9,1.2-4.9,3.1c-2.7-0.4-5.1,1.7-5.1,4.3
	c0,1.9,1.3,3.6,3.2,4.2v8c0,0.2,0.2,0.4,0.4,0.4h13c0.2,0,0.4-0.2,0.4-0.4v-8.1c1.8-0.6,3-2.2,3-4.1
	C-169.2,81-171.2,79.1-173.7,79.1z M-172.7,86.8c-0.2,0-0.3,0.2-0.3,0.4v4.9h-8.8c-0.2,0-0.4,0.2-0.4,0.4s0.2,0.4,0.4,0.4h8.8v2.3
	h-12.2v-2.3h1.1c0.2,0,0.4-0.2,0.4-0.4s-0.2-0.4-0.4-0.4h-1.1v-4.8c0-0.2-0.1-0.4-0.3-0.4c-1.7-0.4-2.9-1.8-2.9-3.5
	c0-2.2,2.1-3.9,4.5-3.5c0.2,0,0.4-0.1,0.4-0.2c0.8-1.8,2.5-2.9,4.3-2.9c1.9,0,3.5,1.1,4.3,2.9c0.1,0.2,0.3,0.3,0.4,0.2
	c0.3,0,0.5-0.1,0.7-0.1c2,0,3.7,1.6,3.7,3.5C-170,85-171.1,86.4-172.7,86.8z"/>
<g>
	<path d="M-130.8-104.2c-0.3,0-0.5-0.1-0.8-0.2l-4.5-2.5c-0.5-0.3-0.8-0.8-0.8-1.4v-4.9c0-0.6,0.3-1.1,0.8-1.4l4.5-2.5
		c0.5-0.3,1-0.3,1.5,0l4.5,2.5c0.5,0.3,0.8,0.8,0.8,1.4v4.9c0,0.6-0.3,1.1-0.8,1.4l-4.5,2.5C-130.3-104.2-130.6-104.2-130.8-104.2z
		 M-130.8-116.6c-0.2,0-0.3,0-0.5,0.1l-4.5,2.5c-0.3,0.2-0.5,0.5-0.5,0.9v4.9c0,0.4,0.2,0.7,0.5,0.9l4.5,2.5c0.3,0.2,0.7,0.2,1,0
		l4.5-2.5c0.3-0.2,0.5-0.5,0.5-0.9v-4.9c0-0.4-0.2-0.7-0.5-0.9l-4.5-2.5C-130.5-116.6-130.7-116.6-130.8-116.6z"/>
</g>
<path d="M-128.6-109.1h-4.4c-0.1,0-0.2,0-0.2-0.1s0-0.2,0-0.3l2.2-3.8c0-0.1,0.1-0.1,0.2-0.1s0.2,0,0.2,0.1l2.2,3.8
	c0,0.1,0,0.2,0,0.3C-128.5-109.2-128.5-109.1-128.6-109.1z M-132.6-109.6h3.5l-1.8-3L-132.6-109.6z"/>
<path d="M-130.8-107.8c-0.1,0-0.2,0-0.2-0.1l-2.2-3.8c0-0.1,0-0.2,0-0.3s0.1-0.1,0.2-0.1h4.4c0.1,0,0.2,0,0.2,0.1s0,0.2,0,0.3
	l-2.2,3.8C-130.7-107.9-130.7-107.8-130.8-107.8z M-132.6-111.7l1.8,3l1.8-3H-132.6z"/>
<path d="M-130.8-105.7c-2.7,0-4.9-2.2-4.9-4.9c0-2.7,2.2-4.9,4.9-4.9s4.9,2.2,4.9,4.9C-125.9-107.9-128.1-105.7-130.8-105.7z
	 M-130.8-115.1c-2.4,0-4.4,2-4.4,4.4c0,2.4,2,4.4,4.4,4.4s4.4-2,4.4-4.4C-126.4-113.1-128.4-115.1-130.8-115.1z"/>
<path d="M-130.8-106.8c-2.2,0-3.9-1.8-3.9-3.9s1.8-3.9,3.9-3.9c0.9,0,1.7,0.3,2.3,0.8c0.1,0.1,0.1,0.2,0.1,0.4
	c-0.1,0.1-0.2,0.1-0.4,0.1c-0.6-0.4-1.3-0.7-2-0.7c-1.9,0-3.4,1.5-3.4,3.4c0,1.9,1.5,3.4,3.4,3.4c1.9,0,3.4-1.5,3.4-3.4
	c0-0.7-0.2-1.4-0.6-1.9c-0.1-0.1-0.1-0.3,0.1-0.4c0.1-0.1,0.3-0.1,0.4,0.1c0.5,0.7,0.7,1.4,0.7,2.2
	C-126.9-108.5-128.7-106.8-130.8-106.8z"/>
<text transform="matrix(1 0 0 1 -241.7323 -234.3615)" style="font-family:'MyriadPro-Regular'; font-size:7px;">FACILIDADES</text>
<text transform="matrix(1 0 0 1 -241.7323 -13.5126)" style="font-family:'MyriadPro-Regular'; font-size:7px;">REGRAS DA CASA</text>
<text transform="matrix(1 0 0 1 -241.7323 60.948)" style="font-family:'MyriadPro-Regular'; font-size:7px;">FUNCIONARIOS</text>
<g>
	<path class="st0" d="M-94.9,90.5c1.2,0,1.8-0.5,2.3-0.9c0.5-0.4,0.9-0.8,1.8-0.8c0.9,0,1.3,0.4,1.8,0.8c0.5,0.4,1.1,0.9,2.3,0.9
		c1.2,0,1.8-0.5,2.3-0.9c0.5-0.4,0.9-0.8,1.8-0.8c0.9,0,1.3,0.4,1.8,0.8c0.5,0.4,1.1,0.9,2.3,0.9s1.8-0.5,2.3-0.9
		c0.5-0.4,0.9-0.8,1.8-0.8c0.9,0,1.3,0.4,1.8,0.8c0.5,0.4,1.1,0.9,2.3,0.9c0.2,0,0.4-0.2,0.4-0.4s-0.2-0.4-0.4-0.4
		c-0.9,0-1.3-0.4-1.8-0.8c-0.5-0.4-1.1-0.9-2.3-0.9s-1.8,0.5-2.3,0.9c-0.5,0.4-0.9,0.8-1.8,0.8c-0.1,0-0.2,0-0.3,0V78.8
		c0-1.5-1.2-2.7-2.7-2.7s-2.7,1.2-2.7,2.7v0.4c0,0.2,0.2,0.4,0.4,0.4s0.4-0.2,0.4-0.4v-0.4c0-1.1,0.9-2,2-2c1.1,0,2,0.9,2,2v1.4
		h-6.9v-1.4c0-1.5-1.2-2.7-2.7-2.7s-2.7,1.2-2.7,2.7v0.4c0,0.2,0.2,0.4,0.4,0.4s0.4-0.2,0.4-0.4v-0.4c0-1.1,0.9-2,2-2
		c1.1,0,2,0.9,2,2v10.9c-0.6-0.1-1-0.4-1.4-0.7c-0.5-0.4-1.1-0.9-2.3-0.9s-1.8,0.5-2.3,0.9c-0.5,0.4-0.9,0.8-1.8,0.8
		c-0.2,0-0.4,0.2-0.4,0.4S-95.1,90.5-94.9,90.5z M-80.2,89c-0.5-0.4-1.1-0.9-2.3-0.9c-1.2,0-1.8,0.5-2.3,0.9
		c-0.4,0.4-0.8,0.7-1.5,0.7v-2.4h6.9v2.2C-79.7,89.4-80,89.2-80.2,89z M-79.4,86.5h-6.9v-2.4h6.9V86.5z M-79.4,80.9v2.4h-6.9v-2.4
		H-79.4z"/>
	<path class="st0" d="M-89.4,93.8c-0.4-0.2-0.9-0.3-1.4-0.3c-1.2,0-1.8,0.5-2.3,0.9c-0.5,0.4-0.9,0.8-1.8,0.8
		c-0.2,0-0.4,0.2-0.4,0.4s0.2,0.4,0.4,0.4c1.2,0,1.8-0.5,2.3-0.9c0.5-0.4,0.9-0.8,1.8-0.8c0.4,0,0.7,0.1,1.1,0.2
		c0.2,0.1,0.4,0,0.5-0.2C-89.1,94.1-89.2,93.9-89.4,93.8z"/>
	<path class="st0" d="M-70.2,95.2c-0.9,0-1.3-0.4-1.8-0.8c-0.5-0.4-1.1-0.9-2.3-0.9c-1.2,0-1.8,0.5-2.3,0.9
		c-0.5,0.4-0.9,0.8-1.8,0.8s-1.3-0.4-1.8-0.8c-0.5-0.4-1.1-0.9-2.3-0.9c-1.2,0-1.8,0.5-2.3,0.9c-0.5,0.4-0.9,0.8-1.8,0.8
		c-0.7,0-1-0.2-1.3-0.4c-0.2-0.1-0.4-0.1-0.5,0.1s-0.1,0.4,0.1,0.5c0.5,0.3,1.1,0.5,1.7,0.5c1.2,0,1.8-0.5,2.3-0.9
		c0.5-0.4,0.9-0.8,1.8-0.8c0.9,0,1.3,0.4,1.8,0.8c0.5,0.4,1.1,0.9,2.3,0.9s1.8-0.5,2.3-0.9c0.5-0.4,0.9-0.8,1.8-0.8
		c0.9,0,1.3,0.4,1.8,0.8c0.5,0.4,1.1,0.9,2.3,0.9c0.2,0,0.4-0.2,0.4-0.4S-70,95.2-70.2,95.2z"/>
	<path class="st0" d="M-70.2,92.5c-0.9,0-1.3-0.4-1.8-0.8c-0.5-0.4-1.1-0.9-2.3-0.9c-0.5,0-1,0.1-1.4,0.3c-0.2,0.1-0.3,0.3-0.2,0.5
		c0.1,0.2,0.3,0.3,0.5,0.2c0.3-0.2,0.6-0.2,1.1-0.2c0.9,0,1.3,0.4,1.8,0.8c0.5,0.4,1.1,0.9,2.3,0.9c0.2,0,0.4-0.2,0.4-0.4
		S-70,92.5-70.2,92.5z"/>
	<path class="st0" d="M-84.3,92.3c0.5-0.4,0.9-0.8,1.8-0.8c0.9,0,1.3,0.4,1.8,0.8c0.5,0.4,1.1,0.9,2.3,0.9c0.7,0,1.2-0.2,1.7-0.5
		c0.2-0.1,0.2-0.3,0.1-0.5c-0.1-0.2-0.3-0.2-0.5-0.1c-0.3,0.2-0.6,0.4-1.3,0.4c-0.9,0-1.3-0.4-1.8-0.8c-0.5-0.4-1.1-0.9-2.3-0.9
		c-1.2,0-1.8,0.5-2.3,0.9c-0.5,0.4-0.9,0.8-1.8,0.8c-0.9,0-1.3-0.4-1.8-0.8c-0.5-0.4-1.1-0.9-2.3-0.9s-1.8,0.5-2.3,0.9
		c-0.5,0.4-0.9,0.8-1.8,0.8c-0.2,0-0.4,0.2-0.4,0.4s0.2,0.4,0.4,0.4c1.2,0,1.8-0.5,2.3-0.9c0.5-0.4,0.9-0.8,1.8-0.8s1.3,0.4,1.8,0.8
		c0.5,0.4,1.1,0.9,2.3,0.9C-85.5,93.2-84.9,92.7-84.3,92.3z"/>
</g>
<path class="st0" d="M-25.5,79.4l0-0.3c0-0.1-0.1-0.1-0.1-0.1l-0.3,0c-5.6-0.3-8-2.7-8-2.7l-0.2-0.2c0,0-0.1,0-0.1,0s-0.1,0-0.1,0
	l-0.2,0.2c0,0-2.4,2.5-8,2.7l-0.3,0c-0.1,0-0.1,0.1-0.1,0.1l0,0.3c0,0-0.2,3.4,0.7,7.2c1.2,5,4,8.2,7.9,9.4l0.1,0c0,0,0,0,0,0
	c0,0,0,0,0,0l0.1,0c3.9-1.1,6.7-4.4,7.9-9.4C-25.2,82.8-25.4,79.5-25.5,79.4z M-27.2,87.2c-1.3,4.2-3.6,6.9-6.9,7.9
	c-3.4-1-5.7-3.7-6.9-7.9c-1-3.2-1-6.4-0.9-7.4c4.7-0.3,7.1-2,7.9-2.7c0.9,0.8,3.3,2.4,7.9,2.7C-26.3,80.9-26.3,84-27.2,87.2z"/>
<path class="st0" d="M-39.8,86.1c0,3.1,2.5,5.6,5.6,5.6s5.6-2.5,5.6-5.6s-2.5-5.6-5.6-5.6S-39.8,83-39.8,86.1z M-38.9,86.1
	c0-2.6,2.1-4.7,4.7-4.7c2.6,0,4.7,2.1,4.7,4.7c0,2.6-2.1,4.7-4.7,4.7C-36.8,90.8-38.9,88.7-38.9,86.1z"/>
<path class="st0" d="M-34.2,89.8c2.1,0,3.8-1.7,3.8-3.8c0-2.1-1.7-3.8-3.8-3.8c-2.1,0-3.8,1.7-3.8,3.8
	C-37.9,88.1-36.3,89.8-34.2,89.8z M-37.1,86.1c0-1.6,1.3-2.9,2.9-2.9c1.6,0,2.9,1.3,2.9,2.9c0,1.6-1.3,2.9-2.9,2.9
	C-35.8,89-37.1,87.7-37.1,86.1z"/>
<g transform="translate(0,-952.36218)">
	<path class="st0" d="M-231.7,1028.7c-2.3,0-4.2,1.9-4.2,4.2c0,0.2,0.1,0.5,0.4,0.5c0.2,0,0.5-0.1,0.5-0.4c0-0.1,0-0.1,0-0.2
		c0-1.8,1.5-3.3,3.3-3.3c1.8,0,3.3,1.5,3.3,3.3c0,1.8-1.5,3.3-3.3,3.3c-1.3,0-2.4-0.7-2.9-1.7c-0.1-0.2-0.3-0.3-0.6-0.3
		c-0.2,0.1-0.3,0.3-0.3,0.6c0,0,0,0.1,0.1,0.1c0.7,1.3,2.1,2.2,3.7,2.2c1,0,1.9-0.3,2.6-0.9l6.5,6.5l-2.4,2.4
		c-0.2,0.2-0.2,0.4,0,0.6c0.2,0.2,0.4,0.2,0.6,0c0,0,0,0,0,0l2.4-2.4l1.7,1.7l-2.3,2.3c-0.2,0.2-0.2,0.4,0,0.6
		c0.2,0.2,0.4,0.2,0.6,0c0,0,0,0,0,0l2.6-2.6c0.2-0.2,0.2-0.4,0-0.6c0,0,0,0,0,0l-9.1-9.1c0.6-0.7,0.9-1.6,0.9-2.6
		C-227.6,1030.6-229.4,1028.7-231.7,1028.7z"/>
</g>
<g>
	<path class="st0" d="M-132,94.9h-5.2c-0.2,0-0.4,0.2-0.4,0.4c0,0.2,0.2,0.4,0.4,0.4h5.2c0.2,0,0.4-0.2,0.4-0.4
		C-131.7,95.1-131.8,94.9-132,94.9z"/>
	<path class="st0" d="M-137.3,94.1h3c0.2,0,0.4-0.2,0.4-0.4c0-0.2-0.2-0.4-0.4-0.4h-3c-0.2,0-0.4,0.2-0.4,0.4
		C-137.6,94-137.5,94.1-137.3,94.1z"/>
	<path class="st0" d="M-137.3,92.6h1.9c0.2,0,0.4-0.2,0.4-0.4c0-0.2-0.2-0.4-0.4-0.4h-1.9c-0.2,0-0.4,0.2-0.4,0.4
		C-137.6,92.5-137.5,92.6-137.3,92.6z"/>
	<path class="st0" d="M-122,76.3c-0.2-0.1-0.4,0-0.5,0.2l-4.8,11.1l0,0l-1-0.5l0,0c0,0-0.1,0-0.1,0c-0.2,0-0.3,0.1-0.4,0.2
		c-0.8,1.7-2.2,3.1-3.9,4l-0.7,0.4c-0.1,0.1-0.2,0.2-0.2,0.3c0,0.1,0,0.2,0.1,0.3c1.9,2,4.5,3.2,7.2,3.4c0.1,0,0.2,0,0.3-0.1
		c0.1-0.1,0.1-0.2,0.1-0.3l-0.2-0.8c-0.4-1.9-0.1-3.8,0.7-5.6c0.1-0.1,0-0.3-0.1-0.4c0,0-0.1-0.1-0.1-0.1l0,0l-1-0.5l4.8-11.1
		C-121.7,76.6-121.8,76.4-122,76.3z M-126.8,94.6l0,0.3c-1.7-0.2-3.3-0.8-4.6-1.8c0.6-0.4,1.1-0.8,1.7-1.2c0.2-0.1,0.2-0.4,0-0.5
		c-0.1-0.2-0.4-0.2-0.5,0c-0.5,0.4-1,0.8-1.6,1.2c-0.1,0-0.1,0.1-0.2,0.1c-0.2-0.2-0.4-0.3-0.6-0.5l0.2-0.1c1.3-0.7,2.4-1.6,3.2-2.7
		l2.4,1.2C-127,91.8-127.1,93.2-126.8,94.6z M-126.2,88.9c-0.1,0.2-0.2,0.5-0.3,0.7l-0.8-0.4l-0.7-0.3l-0.8-0.4
		c0.1-0.2,0.3-0.4,0.4-0.7l0.7,0.3l0.7,0.3L-126.2,88.9z"/>
</g>
<g>
	<path class="st0" d="M-186.4,8c1.2,0,2.3-1,2.3-2.3s-1-2.3-2.3-2.3c-1.2,0-2.3,1-2.3,2.3S-187.6,8-186.4,8z M-187.9,5.8
		c0-0.8,0.7-1.5,1.5-1.5c0.8,0,1.5,0.7,1.5,1.5s-0.7,1.5-1.5,1.5C-187.2,7.3-187.9,6.6-187.9,5.8z"/>
	<path class="st0" d="M-182.2,15.3l-1.2-4.9c-0.1-0.6-0.7-1-1.3-1h-2.5c-1.1,0-2,0.7-2.3,1.8l-1,7c0,0.1,0,0.2,0.1,0.3
		c0.1,0.1,0.1,0.1,0.2,0.1c0,0,0,0,0.1,0c0.2,0,0.3-0.1,0.4-0.3l1-7c0.2-0.7,0.8-1.2,1.6-1.2h2.5c0.3,0,0.5,0.2,0.6,0.5l1.2,4.9
		c0,0,0,0,0,0c0.1,0.2,0.3,0.3,0.4,0.2c0.1,0,0.2-0.1,0.2-0.2S-182.2,15.4-182.2,15.3z"/>
	<path class="st0" d="M-187.6,17.5c-0.2,0-0.4,0.2-0.4,0.4v6.5c0,0.2,0.2,0.4,0.4,0.4s0.4-0.2,0.4-0.4v-6.5
		C-187.2,17.6-187.4,17.5-187.6,17.5z"/>
	<path class="st0" d="M-185.2,17.5c-0.2,0-0.4,0.2-0.4,0.4v6.5c0,0.2,0.2,0.4,0.4,0.4s0.4-0.2,0.4-0.4v-6.5c0-0.1,0-0.2-0.1-0.3
		C-185,17.5-185.1,17.5-185.2,17.5z"/>
	<path class="st0" d="M-172.1,9.2c1.2,0,2.3-1,2.3-2.3s-1-2.3-2.3-2.3c-1.2,0-2.3,1-2.3,2.3S-173.3,9.2-172.1,9.2z M-173.6,6.9
		c0-0.8,0.7-1.5,1.5-1.5c0.8,0,1.5,0.7,1.5,1.5s-0.7,1.5-1.5,1.5C-172.9,8.4-173.6,7.8-173.6,6.9z"/>
	<path class="st0" d="M-168.9,11.7c-0.3-1.1-1.2-1.8-2.3-1.8h-1.7c-1.1,0-2,0.7-2.3,1.8l-1,3.6c-0.1,0.2,0.1,0.4,0.2,0.4
		c0.2,0.1,0.4,0,0.4-0.2l1.1-3.6c0.2-0.7,0.8-1.2,1.6-1.2h1.7c0.8,0,1.4,0.5,1.6,1.2l1,6.4c0,0.2,0.2,0.3,0.4,0.3c0,0,0,0,0.1,0
		c0.1,0,0.2-0.1,0.2-0.1c0.1-0.1,0.1-0.2,0.1-0.3L-168.9,11.7z"/>
	<path class="st0" d="M-170.8,17.5c-0.2,0-0.4,0.2-0.4,0.4v6.5c0,0.2,0.2,0.4,0.4,0.4s0.4-0.2,0.4-0.4v-6.5
		C-170.5,17.6-170.7,17.5-170.8,17.5z"/>
	<path class="st0" d="M-173.3,17.5c-0.2,0-0.4,0.2-0.4,0.4v6.5c0,0.2,0.2,0.4,0.4,0.4s0.4-0.2,0.4-0.4v-6.5
		C-172.9,17.6-173.1,17.5-173.3,17.5z"/>
	<path class="st0" d="M-179.3,17.3c1,0,1.8-0.8,1.8-1.8s-0.8-1.8-1.8-1.8c-1,0-1.8,0.8-1.8,1.8S-180.3,17.3-179.3,17.3z
		 M-180.4,15.4c0-0.6,0.5-1.1,1.1-1.1s1.1,0.5,1.1,1.1c0,0.6-0.5,1.1-1.1,1.1S-180.4,16-180.4,15.4z"/>
	<path class="st0" d="M-176.5,17.3c-0.1,0-0.2,0-0.3,0c-0.1,0-0.2,0.1-0.2,0.2l-0.7,1.6c-0.1,0.1-0.4,0.4-1,0.4h-1.2
		c-0.6,0-0.9-0.2-1-0.4l-0.7-1.6c0-0.1-0.1-0.2-0.2-0.2c-0.1,0-0.2,0-0.3,0c-0.2,0.1-0.3,0.3-0.2,0.5l0.7,1.5
		c0.2,0.5,0.9,0.8,1.7,0.8h1.2c0.8,0,1.4-0.3,1.7-0.8l0.7-1.5C-176.3,17.6-176.3,17.4-176.5,17.3z"/>
	<path class="st0" d="M-180.1,21.1c-0.2,0-0.4,0.2-0.4,0.4v3c0,0.2,0.2,0.4,0.4,0.4s0.4-0.2,0.4-0.4v-3
		C-179.7,21.2-179.9,21.1-180.1,21.1z"/>
	<path class="st0" d="M-178.5,21.1c-0.2,0-0.4,0.2-0.4,0.4v3c0,0.2,0.2,0.4,0.4,0.4s0.4-0.2,0.4-0.4v-3
		C-178.1,21.2-178.3,21.1-178.5,21.1z"/>
</g>
<g>
	<path class="st0" d="M-121.9,13l-2.7-0.9c-0.1,0-0.2-0.1-0.3-0.2l-0.9-1.3c-0.2-0.2-0.4-0.4-0.7-0.5l-2.5-0.9
		c-0.2-0.1-0.3-0.2-0.3-0.4V5.6c0-0.7-0.6-1.2-1.2-1.2c-0.4,0-0.7,0.2-0.9,0.4l-6.8,7.6c0,0,0,0,0,0l-2.8,3.2
		c-0.1,0.2-0.1,0.4,0,0.6c0.1,0.1,0.2,0.1,0.3,0.1c0.1,0,0.2,0,0.3-0.1l0.2-0.3l0,0l0,0l2.6-2.9c0,0,0,0,0-0.1l6.7-7.6
		c0.2-0.3,0.7-0.1,0.7,0.3v3.2c0,0.5,0.3,1,0.8,1.2l2.5,0.9c0.1,0,0.2,0.1,0.3,0.2l0.9,1.3c0.2,0.2,0.4,0.4,0.7,0.5l2.7,0.9
		c0.2,0.1,0.3,0.2,0.3,0.4c0,0.4-0.1,0.7-0.2,1l-0.5,1.6c-0.2,0.7-0.8,1.2-1.6,1.4l-4.8,0.9c-0.3,0.1-0.7,0.3-0.8,0.6l-2.7,3.9l0,0
		l-0.1,0.1c-0.1,0.2-0.1,0.4,0.1,0.6c0.1,0.1,0.2,0.1,0.3,0.1c0.1,0,0.2-0.1,0.3-0.2l2.4-3.5c0,0,0,0,0,0l0.3-0.5
		c0.1-0.1,0.2-0.2,0.3-0.2l4.8-0.9c1-0.2,1.9-0.9,2.2-1.9l0.5-1.6c0.2-0.4,0.3-0.9,0.3-1.3C-121.1,13.6-121.4,13.2-121.9,13z"/>
	<circle class="st0" cx="-128.4" cy="13.4" r="0.8"/>
</g>
<path class="st0" d="M-74.2,6.6c-2-2-4.8-3.2-7.6-3.2c0,0,0,0,0,0c-2.9,0-5.6,1.1-7.6,3.2c-2,2-3.2,4.7-3.2,7.6s1.1,5.6,3.2,7.6
	c2,2,4.7,3.2,7.6,3.2c0,0,0,0,0,0c2.9,0,5.6-1.1,7.6-3.2c2-2,3.2-4.7,3.2-7.6C-71,11.4-72.1,8.7-74.2,6.6z M-89,21.2
	c-3.7-3.8-3.7-9.9-0.1-13.7l2.1,2.1c-0.8,0.5-1.3,1.3-1.3,2.3c0,0.1,0.1,0.2,0.2,0.2l0.3,0c0.1,0,0.1,0,0.2-0.1s0.1-0.1,0.1-0.2
	c0-0.8,0.4-1.4,1-1.8l2.9,2.9c-0.4,0.8-1.1,1.6-1.7,2.2l-3.1,3.3c0,0-0.1,0.1-0.1,0.2V19c0,0.1,0.1,0.2,0.2,0.2h5.6
	c0.1,0,0.2-0.1,0.2-0.2v-0.3c0-0.1-0.1-0.2-0.2-0.2h-4.6l2.4-2.6c0.6-0.7,1.3-1.4,1.8-2.3l4.9,4.9c-0.2,0-0.4,0-0.6,0
	c-1,0-1.8-0.3-2.3-1c0-0.1-0.1-0.1-0.2-0.1c-0.1,0-0.2,0-0.2,0.1l-0.1,0.2c-0.1,0.1,0,0.2,0,0.3c0.6,0.8,1.5,1.3,2.8,1.3
	c0.4,0,0.8-0.1,1.2-0.2l0.8,0.8c0,0,0,0,0,0l0.7,0.7l0.9,0.9l0,0l0,0C-79,25.3-85.2,25.1-89,21.2z M-85.3,9.9c1.3,0,2.1,0.7,2.1,1.9
	c0,0.2,0,0.3,0,0.4l-2.4-2.4C-85.5,9.9-85.4,9.9-85.3,9.9z M-74.4,21.1l-2.1-2.1c0.9-0.5,1.4-1.4,1.4-2.5c0-1.7-1.3-2.9-3.3-2.9
	c-0.1,0-0.3,0-0.4,0l3.4-3.7c0,0,0.1-0.1,0.1-0.2V9.5c0-0.1-0.1-0.2-0.2-0.2h-5.2c-0.1,0-0.2,0.1-0.2,0.2v0.3c0,0.1,0.1,0.2,0.2,0.2
	h4.2l-3.8,4c-0.1,0.1-0.1,0.2,0,0.3l0.1,0.2c0,0.1,0.1,0.1,0.1,0.1c0.1,0,0.1,0,0.2,0c0.4-0.2,0.9-0.3,1.5-0.3
	c1.5,0,2.5,0.8,2.5,2.1c0,0.9-0.4,1.6-1.2,1.9l-5.4-5.4c0.1-0.4,0.2-0.7,0.2-1.1c0-1.6-1.2-2.7-2.9-2.7c-0.3,0-0.6,0.1-0.9,0.1
	l-2.3-2.3c1.9-1.7,4.3-2.7,6.8-2.7c2.7,0,5.2,1,7.1,2.9c1.9,1.9,2.9,4.4,2.9,7.1C-71.8,16.8-72.7,19.2-74.4,21.1z"/>
<g>
	<path class="st0" d="M-27.6,4.1c-2.2,0-4.1,1.8-4.1,4.1c0,0.2,0.2,0.3,0.3,0.3c0.2,0,0.3-0.2,0.3-0.3c0-1.9,1.5-3.4,3.4-3.4
		s3.4,1.5,3.4,3.4c0,1.9-1.5,3.4-3.4,3.4c-1.2,0-2.3-0.6-2.9-1.6V9.6c0-0.2-0.1-0.3-0.3-0.3h-12.3c-0.2,0-0.3,0.1-0.3,0.3V14
		l-1.3,4.1c0,0.1,0,0.1,0,0.2v5.6c0,0.2,0.1,0.3,0.3,0.3s0.3-0.1,0.3-0.3v-1.4h15.7v1.4c0,0.2,0.1,0.3,0.3,0.3
		c0.2,0,0.3-0.1,0.3-0.3l0-5.6c0-0.1,0-0.1,0-0.2l-1.3-4.1v-2.1c0.5,0.2,1,0.3,1.6,0.3c2.2,0,4.1-1.8,4.1-4.1
		C-23.6,5.9-25.4,4.1-27.6,4.1z M-42.8,9.9h11.5c0.3,0.7,0.9,1.3,1.5,1.7v0.5c-0.3-0.3-0.8-0.5-1.2-0.5h-3.7c-0.6,0-1.2,0.3-1.6,0.8
		c-0.3-0.5-0.9-0.8-1.6-0.8h-3.7c-0.5,0-0.9,0.2-1.2,0.5V9.9z M-29.8,13.4v0.3H-36v-0.3c0-0.3,0.1-0.6,0.4-0.9
		c0.2-0.2,0.5-0.4,0.9-0.4h3.7c0,0,0,0,0,0C-30.4,12.2-29.8,12.7-29.8,13.4z M-42.8,13.4c0-0.7,0.6-1.2,1.2-1.2h3.7c0,0,0,0,0,0
		c0.7,0,1.2,0.6,1.2,1.2v0.3h-6.2V13.4z M-28.4,21.9h-15.7c0-0.2,0-1,0-3.3h15.7V21.9z M-28.6,18H-44l1.2-3.7h13.2L-28.6,18z"/>
	<path class="st0" d="M-29.6,7.5c-0.2,0-0.3,0.2-0.3,0.3V10c0,0.1,0.1,0.2,0.2,0.3c0,0,0.1,0,0.1,0c0.1,0,0.1,0,0.2-0.1l3.9-3.1
		c0.1-0.1,0.2-0.3,0.1-0.5c-0.1-0.1-0.3-0.2-0.5-0.1l-3.4,2.6V7.8C-29.3,7.7-29.4,7.5-29.6,7.5z"/>
</g>
<g>
	<path class="st0" d="M21.7,10.7h-0.3c-0.2,0-0.4,0.1-0.6,0.3l-2.2,0c0,0-0.4,0-0.9-0.6c-0.6-0.7-1.2-0.8-1.7-0.8
		c-0.7,0-7.3,0-7.3,0c-0.5,0-0.8,0.4-0.8,0.8v3.1c0,0.5,0.4,0.8,0.8,0.8c0,0,3,0,5.1,0c1.1,0,2,0,2.2,0c0.5,0,1.1-0.1,1.7-0.8
		c0.5-0.6,0.9-0.6,0.9-0.6c0,0,0,0,0,0l2.1,0c0.1,0.2,0.3,0.3,0.6,0.3h0.3c0.4,0,0.7-0.3,0.7-0.7v-1C22.4,11.1,22.1,10.7,21.7,10.7z
		 M19.1,11.6l1.5,0v0.7l-1.5,0V11.6z M8.4,13.5v-3.1c0-0.1,0.1-0.2,0.2-0.2c0,0,0.2,0,0.6,0v3.5c-0.4,0-0.6,0-0.6,0
		C8.5,13.7,8.4,13.6,8.4,13.5z M9.9,13.7v-3.5c1.1,0,2.6,0,3.9,0c0.3,0,0.6,0,0.8,0v3.5C13.2,13.7,11.2,13.7,9.9,13.7z M17.3,13.1
		c-0.5,0.5-0.9,0.6-1.2,0.6c-0.1,0-0.4,0-0.8,0v-3.5c0.4,0,0.7,0,0.8,0c0.4,0,0.8,0,1.2,0.6c0.6,0.6,1.1,0.8,1.3,0.8v0.8
		C18.3,12.4,17.8,12.5,17.3,13.1z M21.8,12.5c0,0.1-0.1,0.1-0.1,0.1h-0.3c-0.1,0-0.1-0.1-0.1-0.1v-1c0-0.1,0.1-0.1,0.1-0.1h0.3
		c0.1,0,0.1,0.1,0.1,0.1V12.5z"/>
	<path class="st0" d="M21.7,15.7h-0.3c-0.2,0-0.4,0.1-0.6,0.3l-2.2,0c0,0-0.4,0-0.9-0.6c-0.6-0.7-1.2-0.8-1.7-0.8
		c-0.7,0-7.3,0-7.3,0c-0.5,0-0.8,0.4-0.8,0.8v3.1c0,0.5,0.4,0.8,0.8,0.8c0,0,1.7,0,3.4,0c1,0,2.1,0,2.8,0c0,0,0,0,0,0s0,0,0,0
		c0.5,0,0.9,0,1.1,0c0.5,0,1.1-0.1,1.7-0.8c0.5-0.6,0.9-0.6,0.9-0.6c0,0,0,0,0,0l2.1,0c0.1,0.2,0.3,0.3,0.6,0.3h0.3
		c0.4,0,0.7-0.3,0.7-0.7v-1C22.4,16,22.1,15.7,21.7,15.7z M19.1,16.6l1.5,0v0.7l-1.5,0V16.6z M8.4,18.5v-3.1c0-0.1,0.1-0.2,0.2-0.2
		c0,0,0.2,0,0.6,0v3.5c-0.4,0-0.6,0-0.6,0C8.5,18.7,8.4,18.6,8.4,18.5z M9.9,18.7v-3.5c1.1,0,2.6,0,3.9,0c0.3,0,0.6,0,0.8,0v3.5
		C13.2,18.7,11.2,18.7,9.9,18.7z M17.3,18.1c-0.5,0.6-0.9,0.6-1.2,0.6c-0.1,0-0.4,0-0.8,0v-3.5c0.4,0,0.7,0,0.8,0
		c0.4,0,0.8,0,1.2,0.6c0.6,0.6,1.1,0.8,1.3,0.8v0.8C18.3,17.4,17.8,17.5,17.3,18.1z M21.8,17.5c0,0.1-0.1,0.1-0.1,0.1h-0.3
		c-0.1,0-0.1-0.1-0.1-0.1v-1c0-0.1,0.1-0.1,0.1-0.1h0.3c0.1,0,0.1,0.1,0.1,0.1V17.5z"/>
	<path class="st0" d="M21.7,20.7h-0.3c-0.2,0-0.4,0.1-0.6,0.3l-2.2,0c0,0-0.4,0-0.9-0.6c-0.6-0.7-1.2-0.8-1.7-0.8
		c-0.7,0-7.3,0-7.3,0c-0.5,0-0.8,0.4-0.8,0.8v3.1c0,0.5,0.4,0.8,0.8,0.8c0,0,1.7,0,3.4,0c1,0,2.1,0,2.9,0c0,0,0,0,0,0s0,0,0,0
		c0.5,0,0.9,0,1.1,0c0.5,0,1.1-0.1,1.7-0.8c0.5-0.6,0.9-0.6,0.9-0.6c0,0,0,0,0,0l2.1,0c0.1,0.2,0.3,0.3,0.6,0.3h0.3
		c0.4,0,0.7-0.3,0.7-0.7v-1C22.4,21,22.1,20.7,21.7,20.7z M19.1,21.6l1.5,0v0.7l-1.5,0V21.6z M8.4,23.5v-3.1c0-0.1,0.1-0.2,0.2-0.2
		c0,0,0.2,0,0.6,0v3.5c-0.4,0-0.6,0-0.6,0C8.5,23.7,8.4,23.6,8.4,23.5z M9.9,23.7v-3.5c1.1,0,2.6,0,3.9,0c0.3,0,0.6,0,0.8,0v3.5
		C13.2,23.7,11.2,23.7,9.9,23.7z M17.3,23.1c-0.5,0.5-0.9,0.6-1.2,0.6c-0.1,0-0.4,0-0.8,0v-3.5c0.4,0,0.7,0,0.8,0
		c0.4,0,0.8,0,1.2,0.6c0.6,0.6,1.1,0.8,1.3,0.8v0.8C18.3,22.3,17.8,22.5,17.3,23.1z M21.8,22.5c0,0.1-0.1,0.1-0.1,0.1h-0.3
		c-0.1,0-0.1-0.1-0.1-0.1v-1c0-0.1,0.1-0.1,0.1-0.1h0.3c0.1,0,0.1,0.1,0.1,0.1V22.5z"/>
	<path class="st0" d="M16.7,7.3C16.9,7.3,17,7.2,17,7c0-1.3,1.1-2.4,2.4-2.4s2.4,1.1,2.4,2.4c0,1.3-1.1,2.4-2.4,2.4
		c-0.9,0-1.8-0.5-2.2-1.4c-0.1-0.1-0.2-0.2-0.4-0.1c-0.1,0.1-0.2,0.2-0.1,0.4c0.5,1.1,1.5,1.7,2.7,1.7c1.6,0,3-1.3,3-3s-1.3-3-3-3
		s-3,1.3-3,3C16.4,7.2,16.6,7.3,16.7,7.3z"/>
	<path class="st0" d="M18,6.5c-0.2,0-0.3,0.1-0.3,0.3v1.5c0,0.1,0.1,0.2,0.2,0.3c0,0,0.1,0,0.1,0c0.1,0,0.1,0,0.2-0.1L21,6.4
		c0.1,0,0.1-0.1,0.1-0.2c0-0.1,0-0.2-0.1-0.2c-0.1-0.1-0.3-0.1-0.4-0.1l-2.3,1.8V6.8C18.3,6.6,18.1,6.5,18,6.5z"/>
</g>
<path class="st0" d="M18.2-11.5c-1.6,0-3-0.9-3.7-2.4c-0.1-0.2,0-0.4,0.2-0.4c0.2-0.1,0.4,0,0.4,0.2c0.5,1.2,1.8,2,3.1,2
	c1.9,0,3.4-1.5,3.4-3.4c0-1.9-1.5-3.4-3.4-3.4s-3.4,1.5-3.4,3.4c0,0.2-0.2,0.3-0.3,0.3s-0.3-0.2-0.3-0.3c0-2.2,1.8-4.1,4.1-4.1
	s4.1,1.8,4.1,4.1C22.3-13.4,20.5-11.5,18.2-11.5z"/>
<path class="st0" d="M16.3-13.4c0,0-0.1,0-0.1,0c-0.1-0.1-0.2-0.2-0.2-0.3v-2.1c0-0.2,0.2-0.3,0.3-0.3s0.3,0.2,0.3,0.3v1.5l3.4-2.6
	c0.1-0.1,0.4-0.1,0.5,0.1c0.1,0.1,0.1,0.4-0.1,0.5l-3.9,3.1C16.4-13.5,16.3-13.4,16.3-13.4z"/>
</svg>
