<?xml version="1.0" encoding="utf-8"?>
<!-- Generator: Adobe Illustrator 24.3.0, SVG Export Plug-In . SVG Version: 6.00 Build 0)  -->
<svg version="1.1" id="Capa_1" xmlns="http://www.w3.org/2000/svg" xmlns:xlink="http://www.w3.org/1999/xlink" x="0px" y="0px"
	 viewBox="0 0 28.3 28.3" style="enable-background:new 0 0 28.3 28.3;" xml:space="preserve">
<style type="text/css">
	.st0{fill:#698D86;}
	.st1{fill:#698D86;stroke:#698D86;stroke-width:0.2;stroke-linecap:round;stroke-linejoin:round;stroke-miterlimit:10;}
	.st2{fill:#455F5D;}
	.st3{fill:#FFFFFF;}
	.st4{fill-rule:evenodd;clip-rule:evenodd;fill:#698D86;}
	.st5{fill:none;stroke:#698D86;stroke-width:0.6;stroke-linejoin:round;stroke-miterlimit:10;}
	.st6{fill:none;stroke:#698D86;stroke-width:0.6;stroke-linecap:round;stroke-linejoin:round;stroke-miterlimit:10;}
	.st7{fill:none;stroke:#E30613;stroke-linejoin:round;stroke-miterlimit:10;}
	.st8{fill:#FFFFFF;stroke:#698D86;stroke-width:0.6;stroke-linecap:round;stroke-linejoin:round;stroke-miterlimit:10;}
	.st9{fill:none;stroke:#698D86;stroke-width:0.75;stroke-miterlimit:10;}
</style>
<g>
	<path class="st6" d="M23.7,16H4.6c-0.5,0-0.9-0.4-0.9-0.9v0c0-0.5,0.4-0.9,0.9-0.9h19.1c0.5,0,0.9,0.4,0.9,0.9v0
		C24.6,15.6,24.2,16,23.7,16z"/>
	<path class="st6" d="M23.9,21.2V16H4.6v5.7c0,1.7,1.4,3.1,3.1,3.1h10.7h2.4c1.7,0,3.1-1.4,3.1-3.1V21.2z"/>
	<path class="st6" d="M21.5,14.2V4.4c0-1-0.8-1.9-1.9-1.9h0c-1,0-1.9,0.8-1.9,1.9V5"/>
	<path class="st6" d="M18.9,6.2h-2.2c0-0.6,0.5-1.1,1.1-1.1S18.9,5.6,18.9,6.2z"/>
	<line class="st6" x1="7.4" y1="25.8" x2="8.4" y2="24.8"/>
	<line class="st6" x1="21.3" y1="25.8" x2="20.2" y2="24.8"/>
</g>
</svg>
