<?xml version="1.0" encoding="utf-8"?>
<!-- Generator: Adobe Illustrator 24.3.0, SVG Export Plug-In . SVG Version: 6.00 Build 0)  -->
<svg version="1.1" id="Capa_1" xmlns="http://www.w3.org/2000/svg" xmlns:xlink="http://www.w3.org/1999/xlink" x="0px" y="0px"
	 viewBox="0 0 28.3 28.3" style="enable-background:new 0 0 28.3 28.3;" xml:space="preserve">
<style type="text/css">
	.st0{fill:#698D86;}
	.st1{fill:#698D86;stroke:#698D86;stroke-width:0.2;stroke-linecap:round;stroke-linejoin:round;stroke-miterlimit:10;}
	.st2{fill:#455F5D;}
	.st3{fill:#FFFFFF;}
	.st4{fill-rule:evenodd;clip-rule:evenodd;fill:#698D86;}
	.st5{fill:none;stroke:#698D86;stroke-width:0.6;stroke-linejoin:round;stroke-miterlimit:10;}
	.st6{fill:none;stroke:#698D86;stroke-width:0.6;stroke-linecap:round;stroke-linejoin:round;stroke-miterlimit:10;}
	.st7{fill:none;stroke:#E30613;stroke-linejoin:round;stroke-miterlimit:10;}
	.st8{fill:#FFFFFF;stroke:#698D86;stroke-width:0.6;stroke-linecap:round;stroke-linejoin:round;stroke-miterlimit:10;}
	.st9{fill:none;stroke:#698D86;stroke-width:0.75;stroke-miterlimit:10;}
</style>
<g>
	<polygon class="st6" points="24.4,8.3 14.3,2.1 3.9,8.3 3.9,26.2 24.4,26.2 	"/>
	<g>
		<path class="st0" d="M15.6,9.5c-0.2,0-0.3,0.1-0.3,0.3c0,0.1,0,0.1,0.1,0.2c0.3,0.3,0.5,0.8,0.5,1.2c0,0.4-0.2,0.8-0.5,1.1
			c-0.4,0.4-0.6,0.9-0.6,1.5c0,0.5,0.3,1,0.7,1.3c0.1,0.1,0.3,0.1,0.4,0c0.1-0.1,0.1-0.3,0-0.4l0,0c-0.3-0.2-0.5-0.6-0.5-0.9
			c0-0.4,0.2-0.8,0.5-1.1c0.4-0.4,0.6-0.9,0.6-1.4c0-0.6-0.2-1.2-0.7-1.6C15.8,9.5,15.7,9.5,15.6,9.5z"/>
		<path class="st0" d="M17.9,9.5c-0.2,0-0.3,0.1-0.3,0.3c0,0.1,0,0.1,0.1,0.2c0.3,0.3,0.5,0.8,0.5,1.2c0,0.4-0.2,0.8-0.5,1.1
			c-0.4,0.4-0.6,0.9-0.6,1.5c0,0.5,0.3,1,0.7,1.3c0.1,0.1,0.3,0.1,0.4,0c0.1-0.1,0.1-0.3,0-0.4l0,0c-0.3-0.2-0.5-0.6-0.5-0.9
			c0-0.4,0.2-0.8,0.5-1.1c0.4-0.4,0.6-0.9,0.6-1.4c0-0.6-0.2-1.2-0.7-1.6C18.1,9.5,18,9.5,17.9,9.5z"/>
		<path class="st0" d="M20.3,9.5c-0.2,0-0.3,0.1-0.3,0.3c0,0.1,0,0.1,0.1,0.2c0.3,0.3,0.5,0.8,0.5,1.2c0,0.4-0.2,0.8-0.5,1.1
			c-0.4,0.4-0.6,0.9-0.6,1.5c0,0.5,0.3,1,0.7,1.3c0.1,0.1,0.3,0.1,0.4,0c0.1-0.1,0.1-0.3,0-0.4l0,0c-0.3-0.2-0.5-0.6-0.5-0.9
			c0-0.4,0.2-0.8,0.5-1.1c0.4-0.4,0.6-0.9,0.6-1.4c0-0.6-0.2-1.2-0.7-1.6C20.5,9.5,20.4,9.5,20.3,9.5z"/>
		<circle class="st6" cx="10.7" cy="8.9" r="1.5"/>
		<path class="st6" d="M17.9,23.1L16,18.2c-0.2-0.4-0.6-0.7-1-0.7h-3.1c-0.2,0-0.3-0.1-0.3-0.3v-4.5c0-0.7-0.6-1.3-1.3-1.3
			C9.6,11.4,9,12,9,12.7v4.8v1.5c0,0.3,0.3,0.6,0.6,0.6h2h2.8c0.3,0,0.5,0.2,0.6,0.4l1.3,3.5c0.2,0.4,0.6,0.6,1,0.4
			C17.8,23.9,18,23.5,17.9,23.1z"/>
		<path class="st6" d="M7.2,20.6c0.1,0,7.1,0,7.1,0"/>
		<g>
			<line class="st6" x1="8.9" y1="24.3" x2="8.9" y2="20.7"/>
			<line class="st6" x1="12.5" y1="24.3" x2="12.5" y2="20.7"/>
		</g>
	</g>
</g>
</svg>
