<?xml version="1.0" encoding="utf-8"?>
<!-- Generator: Adobe Illustrator 24.3.0, SVG Export Plug-In . SVG Version: 6.00 Build 0)  -->
<svg version="1.1" id="Capa_1" xmlns="http://www.w3.org/2000/svg" xmlns:xlink="http://www.w3.org/1999/xlink" x="0px" y="0px"
	 viewBox="0 0 28.3 28.3" style="enable-background:new 0 0 28.3 28.3;" xml:space="preserve">
<style type="text/css">
	.st0{fill:#698D86;}
	.st1{fill:#698D86;stroke:#698D86;stroke-width:0.2;stroke-linecap:round;stroke-linejoin:round;stroke-miterlimit:10;}
	.st2{fill:#455F5D;}
	.st3{fill:#FFFFFF;}
	.st4{fill-rule:evenodd;clip-rule:evenodd;fill:#698D86;}
	.st5{fill:none;stroke:#698D86;stroke-width:0.6;stroke-linejoin:round;stroke-miterlimit:10;}
	.st6{fill:none;stroke:#698D86;stroke-width:0.6;stroke-linecap:round;stroke-linejoin:round;stroke-miterlimit:10;}
	.st7{fill:none;stroke:#E30613;stroke-linejoin:round;stroke-miterlimit:10;}
	.st8{fill:#FFFFFF;stroke:#698D86;stroke-width:0.6;stroke-linecap:round;stroke-linejoin:round;stroke-miterlimit:10;}
	.st9{fill:#FFFFFF;stroke:#000000;stroke-width:0.6;stroke-linecap:round;stroke-miterlimit:10;}
	.st10{stroke:#698D86;stroke-width:0.6;stroke-linecap:round;stroke-linejoin:round;stroke-miterlimit:10;}
</style>
<g>
	<path class="st0" d="M8,15.1c-0.2-0.2-0.4-0.4-0.4-0.7c0-0.3,0.2-0.7,0.4-0.9c0.3-0.4,0.5-0.8,0.6-1.3c0-0.6-0.2-1.1-0.6-1.5
		c-0.1-0.1-0.2-0.1-0.3-0.1c-0.1,0-0.2,0.1-0.3,0.1c-0.1,0.1-0.1,0.2-0.1,0.3c0,0.1,0,0.2,0.1,0.2c0.3,0.3,0.4,0.6,0.4,1
		c0,0.3-0.2,0.6-0.4,0.9c-0.3,0.4-0.5,0.9-0.6,1.4c0,0.5,0.2,0.9,0.6,1.2c0.1,0.1,0.2,0.1,0.3,0.1c0,0,0,0,0,0c0.1,0,0.2,0,0.3-0.1
		c0.1-0.1,0.1-0.2,0.1-0.3C8.1,15.3,8.1,15.2,8,15.1z"/>
	<path class="st0" d="M21.8,6.6c-2-2-4.8-3.2-7.6-3.2c0,0,0,0,0,0c-2.9,0-5.6,1.1-7.6,3.2c-2,2-3.2,4.7-3.2,7.6s1.1,5.6,3.2,7.6
		c2,2,4.7,3.2,7.6,3.2c0,0,0,0,0,0c2.9,0,5.6-1.1,7.6-3.2c2-2,3.2-4.7,3.2-7.6C24.9,11.3,23.8,8.6,21.8,6.6z M16.7,16.1
		c-0.1-0.1-0.2-0.1-0.3-0.1c-0.1,0-0.2,0-0.3,0.1c-0.2,0.1-0.2,0.4,0,0.5l4.9,4.9c-4,3.7-10.3,3.5-14.1-0.4
		c-3.7-3.8-3.7-9.9-0.1-13.7l5.8,5.8l-4.4,4.4c-0.1,0.1-0.1,0.2-0.1,0.3c0,0.1,0,0.2,0.1,0.2l0,0.1h0.1l1.9,1.9
		c0.1,0.1,0.4,0.2,0.5,0l9.4-9.4c0.1-0.1,0.1-0.4,0-0.5l-2-2c-0.1-0.1-0.2-0.1-0.3-0.1c-0.1,0-0.2,0-0.3,0.1l-4.4,4.4L7.4,6.8
		c1.9-1.7,4.3-2.7,6.8-2.7c2.7,0,5.2,1,7.1,2.9c1.9,1.9,2.9,4.4,2.9,7.1c0,2.5-0.9,5-2.7,6.8L16.7,16.1z M19.3,10.5l-4.2,4.2
		l-1.4-1.4L17.9,9L19.3,10.5z M9,17.9l4.2-4.2l1.4,1.5l-4.2,4.2L9,17.9z"/>
</g>
</svg>
