<?xml version="1.0" encoding="utf-8"?>
<!-- Generator: Adobe Illustrator 24.3.0, SVG Export Plug-In . SVG Version: 6.00 Build 0)  -->
<svg version="1.1" id="Capa_1" xmlns="http://www.w3.org/2000/svg" xmlns:xlink="http://www.w3.org/1999/xlink" x="0px" y="0px"
	 viewBox="0 0 28.3 28.3" style="enable-background:new 0 0 28.3 28.3;" xml:space="preserve">
<style type="text/css">
	.st0{fill:#698D86;}
	.st1{fill:#698D86;stroke:#698D86;stroke-width:0.2;stroke-linecap:round;stroke-linejoin:round;stroke-miterlimit:10;}
	.st2{fill:#455F5D;}
	.st3{fill:#FFFFFF;}
	.st4{fill-rule:evenodd;clip-rule:evenodd;fill:#698D86;}
	.st5{fill:none;stroke:#698D86;stroke-width:0.6;stroke-linejoin:round;stroke-miterlimit:10;}
	.st6{fill:none;stroke:#698D86;stroke-width:0.6;stroke-linecap:round;stroke-linejoin:round;stroke-miterlimit:10;}
	.st7{fill:none;stroke:#E30613;stroke-linejoin:round;stroke-miterlimit:10;}
	.st8{fill:#FFFFFF;stroke:#698D86;stroke-width:0.6;stroke-linecap:round;stroke-linejoin:round;stroke-miterlimit:10;}
	.st9{fill:#FFFFFF;stroke:#000000;stroke-width:0.6;stroke-linecap:round;stroke-miterlimit:10;}
	.st10{stroke:#698D86;stroke-width:0.6;stroke-linecap:round;stroke-linejoin:round;stroke-miterlimit:10;}
</style>
<g>
	<path class="st0" d="M7,8c1.2,0,2.3-1,2.3-2.3S8.3,3.5,7,3.5c-1.2,0-2.3,1-2.3,2.3S5.8,8,7,8z M5.5,5.8c0-0.8,0.7-1.5,1.5-1.5
		c0.8,0,1.5,0.7,1.5,1.5S7.9,7.3,7,7.3C6.2,7.3,5.5,6.6,5.5,5.8z"/>
	<path class="st0" d="M11.2,15.3L10,10.4c-0.1-0.6-0.7-1-1.3-1H6.2c-1.1,0-2,0.7-2.3,1.8l-1,7c0,0.1,0,0.2,0.1,0.3
		c0.1,0.1,0.1,0.1,0.2,0.1c0,0,0,0,0.1,0c0.2,0,0.3-0.1,0.4-0.3l1-7c0.2-0.7,0.8-1.2,1.6-1.2h2.5c0.3,0,0.5,0.2,0.6,0.5l1.2,4.9
		c0,0,0,0,0,0c0.1,0.2,0.3,0.3,0.4,0.2c0.1,0,0.2-0.1,0.2-0.2S11.2,15.4,11.2,15.3z"/>
	<path class="st0" d="M5.8,17.5c-0.2,0-0.4,0.2-0.4,0.4v6.5c0,0.2,0.2,0.4,0.4,0.4s0.4-0.2,0.4-0.4v-6.5C6.2,17.6,6,17.5,5.8,17.5z"
		/>
	<path class="st0" d="M8.2,17.5c-0.2,0-0.4,0.2-0.4,0.4v6.5c0,0.2,0.2,0.4,0.4,0.4s0.4-0.2,0.4-0.4v-6.5c0-0.1,0-0.2-0.1-0.3
		C8.4,17.5,8.3,17.5,8.2,17.5z"/>
	<path class="st0" d="M21.3,9.2c1.2,0,2.3-1,2.3-2.3s-1-2.3-2.3-2.3c-1.2,0-2.3,1-2.3,2.3S20.1,9.2,21.3,9.2z M19.8,6.9
		c0-0.8,0.7-1.5,1.5-1.5c0.8,0,1.5,0.7,1.5,1.5s-0.7,1.5-1.5,1.5C20.5,8.4,19.8,7.8,19.8,6.9z"/>
	<path class="st0" d="M24.5,11.7c-0.3-1.1-1.2-1.8-2.3-1.8h-1.7c-1.1,0-2,0.7-2.3,1.8l-1,3.6c-0.1,0.2,0.1,0.4,0.2,0.4
		c0.2,0.1,0.4,0,0.4-0.2l1.1-3.6c0.2-0.7,0.8-1.2,1.6-1.2h1.7c0.8,0,1.4,0.5,1.6,1.2l1,6.4c0,0.2,0.2,0.3,0.4,0.3c0,0,0,0,0.1,0
		c0.1,0,0.2-0.1,0.2-0.1c0.1-0.1,0.1-0.2,0.1-0.3L24.5,11.7z"/>
	<path class="st0" d="M22.5,17.5c-0.2,0-0.4,0.2-0.4,0.4v6.5c0,0.2,0.2,0.4,0.4,0.4s0.4-0.2,0.4-0.4v-6.5
		C22.9,17.6,22.7,17.5,22.5,17.5z"/>
	<path class="st0" d="M20.1,17.5c-0.2,0-0.4,0.2-0.4,0.4v6.5c0,0.2,0.2,0.4,0.4,0.4s0.4-0.2,0.4-0.4v-6.5
		C20.5,17.6,20.3,17.5,20.1,17.5z"/>
	<path class="st0" d="M14.1,17.3c1,0,1.8-0.8,1.8-1.8s-0.8-1.8-1.8-1.8c-1,0-1.8,0.8-1.8,1.8S13.1,17.3,14.1,17.3z M13,15.4
		c0-0.6,0.5-1.1,1.1-1.1s1.1,0.5,1.1,1.1c0,0.6-0.5,1.1-1.1,1.1S13,16,13,15.4z"/>
	<path class="st0" d="M16.9,17.3c-0.1,0-0.2,0-0.3,0c-0.1,0-0.2,0.1-0.2,0.2l-0.7,1.6c-0.1,0.1-0.4,0.4-1,0.4h-1.2
		c-0.6,0-0.9-0.2-1-0.4l-0.7-1.6c0-0.1-0.1-0.2-0.2-0.2c-0.1,0-0.2,0-0.3,0c-0.2,0.1-0.3,0.3-0.2,0.5l0.7,1.5
		c0.2,0.5,0.9,0.8,1.7,0.8h1.2c0.8,0,1.4-0.3,1.7-0.8l0.7-1.5C17.1,17.6,17,17.4,16.9,17.3z"/>
	<path class="st0" d="M13.3,21.1c-0.2,0-0.4,0.2-0.4,0.4v3c0,0.2,0.2,0.4,0.4,0.4s0.4-0.2,0.4-0.4v-3C13.6,21.2,13.5,21.1,13.3,21.1
		z"/>
	<path class="st0" d="M14.9,21.1c-0.2,0-0.4,0.2-0.4,0.4v3c0,0.2,0.2,0.4,0.4,0.4s0.4-0.2,0.4-0.4v-3C15.3,21.2,15.1,21.1,14.9,21.1
		z"/>
</g>
</svg>
