<?xml version="1.0" encoding="UTF-8" standalone="no"?>
<!-- Generator: Adobe Illustrator 25.3.0, SVG Export Plug-In . SVG Version: 6.00 Build 0)  -->

<svg
   xmlns:dc="http://purl.org/dc/elements/1.1/"
   xmlns:cc="http://creativecommons.org/ns#"
   xmlns:rdf="http://www.w3.org/1999/02/22-rdf-syntax-ns#"
   xmlns:svg="http://www.w3.org/2000/svg"
   xmlns="http://www.w3.org/2000/svg"
   xmlns:sodipodi="http://sodipodi.sourceforge.net/DTD/sodipodi-0.dtd"
   xmlns:inkscape="http://www.inkscape.org/namespaces/inkscape"
   version="1.1"
   id="Capa_1"
   x="0px"
   y="0px"
   viewBox="0 0 176.82131 175.41057"
   xml:space="preserve"
   sodipodi:docname="logo_light.svg"
   width="221.02664"
   height="219.26321"
   inkscape:version="0.92.4 (5da689c313, 2019-01-14)"><metadata
   id="metadata927"><rdf:RDF><cc:Work
       rdf:about=""><dc:format>image/svg+xml</dc:format><dc:type
         rdf:resource="http://purl.org/dc/dcmitype/StillImage" /><dc:title></dc:title></cc:Work></rdf:RDF></metadata><defs
   id="defs925" /><sodipodi:namedview
   pagecolor="#ffffff"
   bordercolor="#666666"
   borderopacity="1"
   objecttolerance="10"
   gridtolerance="10"
   guidetolerance="10"
   inkscape:pageopacity="0"
   inkscape:pageshadow="2"
   inkscape:window-width="1920"
   inkscape:window-height="1001"
   id="namedview923"
   showgrid="false"
   scale-x="0.8"
   fit-margin-top="0"
   fit-margin-left="0"
   fit-margin-right="0"
   fit-margin-bottom="0"
   inkscape:zoom="2.2117595"
   inkscape:cx="62.212384"
   inkscape:cy="154.60249"
   inkscape:window-x="-9"
   inkscape:window-y="-9"
   inkscape:window-maximized="1"
   inkscape:current-layer="Capa_1" />
<style
   type="text/css"
   id="style872">
	.st0{fill:#A8CFB7;}
	.st1{fill:#3D605D;}
	.st2{fill:#FFFFFF;}
</style>
<g
   id="g894"
   transform="translate(-110.54209,-94.399422)">
	<g
   id="g892">
		<g
   id="g886">
			<path
   class="st0"
   d="m 138.85,186.83 -27.41,-46.18 c -2.51,-4.23 0.54,-9.59 5.46,-9.59 v 0 c 2.26,0 4.36,1.2 5.49,3.16 l 20.98,36.17 c 1.28,2.2 4.46,2.21 5.75,0.01 l 21.12,-36.19 c 1.14,-1.95 3.23,-3.15 5.48,-3.15 h 0.13 c 4.93,0 7.98,5.37 5.45,9.6 l -27.66,46.31 c -0.59,0.98 -0.9,2.11 -0.9,3.26 v 37.23 c 0,3.51 -2.84,6.35 -6.35,6.35 h -0.3 c -3.51,0 -6.35,-2.84 -6.35,-6.35 v -37.39 c -0.01,-1.14 -0.31,-2.26 -0.89,-3.24 z"
   id="path874"
   inkscape:connector-curvature="0"
   style="fill:#a8cfb7" />
			<g
   id="g880">
				<path
   class="st0"
   d="m 218.96,145.48 c 14.41,-6.01 29.61,-3.14 40.45,6.08 1.9,1.61 4.56,1.97 6.86,1.01 l 0.03,-0.01 c 4.65,-1.94 5.59,-8.12 1.73,-11.36 -14.47,-12.15 -34.74,-15.61 -54.01,-7.57 -19.27,8.04 -31.07,24.88 -32.61,43.72 -0.41,5.02 4.64,8.7 9.29,6.76 l 0.16,-0.07 c 2.3,-0.96 3.92,-3.11 4.1,-5.59 1.06,-14.19 9.68,-27 24,-32.97 z"
   id="path876"
   inkscape:connector-curvature="0"
   style="fill:#a8cfb7" />
				<path
   class="st0"
   d="m 249.79,219.38 c -14.31,5.97 -29.44,3.15 -40.27,-6.06 -1.92,-1.63 -4.6,-2.05 -6.93,-1.08 l -0.14,0.06 c -4.65,1.94 -5.59,8.12 -1.73,11.36 14.47,12.15 34.74,15.61 54.01,7.57 19.27,-8.04 31.07,-24.88 32.61,-43.72 0.41,-5.02 -4.64,-8.7 -9.29,-6.76 v 0 c -2.33,0.97 -3.92,3.16 -4.11,5.68 -1.07,14.19 -9.74,26.94 -24.15,32.95 z"
   id="path878"
   inkscape:connector-curvature="0"
   style="fill:#a8cfb7" />
			</g>
			<circle
   class="st0"
   cx="277.54999"
   cy="164.61"
   r="5.8400002"
   id="circle882"
   style="fill:#a8cfb7" />
			<circle
   class="st0"
   cx="192.85001"
   cy="199.95"
   r="5.8400002"
   id="circle884"
   style="fill:#a8cfb7" />
		</g>
		<g
   id="g890">
			<path
   class="st0"
   d="m 253.16,124.14 c -1.69,0 -3.37,-0.64 -4.66,-1.93 l -10.39,-10.39 c -2.24,-2.24 -5.87,-2.24 -8.11,0 l -10.22,10.22 c -2.24,2.24 -5.79,2.8 -8.43,1.04 -3.59,-2.39 -3.95,-7.29 -1.06,-10.18 l 14.57,-14.57 c 1.84,-1.84 4.16,-3.22 6.72,-3.7 4.28,-0.8 8.47,0.51 11.45,3.49 l 14.61,14.61 c 2.17,2.17 2.7,6.13 0.91,8.63 -1.33,1.85 -3.36,2.78 -5.39,2.78 z"
   id="path888"
   inkscape:connector-curvature="0"
   style="fill:#a8cfb7" />
		</g>
	</g>
</g>
<g
   id="g920"
   transform="translate(-110.54209,-94.399422)">
	<path
   class="st0"
   d="m 123.52,268.89 c -1.05,0.57 -2.29,0.92 -3.62,0.92 -4.35,0 -7.64,-3.32 -7.64,-7.66 0,-4.35 3.3,-7.66 7.64,-7.66 1.33,0 2.58,0.35 3.62,0.92 v 2.88 c -0.9,-0.79 -2.18,-1.31 -3.62,-1.31 -2.9,0 -5.09,2.29 -5.09,5.17 0,2.88 2.18,5.17 5.09,5.17 1.44,0 2.75,-0.52 3.62,-1.29 z"
   id="path896"
   inkscape:connector-curvature="0"
   style="fill:#a8cfb7" />
	<path
   class="st0"
   d="m 127.41,269.56 v -14.85 h 2.49 v 12.47 h 5.72 v 2.38 z"
   id="path898"
   inkscape:connector-curvature="0"
   style="fill:#a8cfb7" />
	<path
   class="st0"
   d="m 149.59,254.72 v 9.41 c 0,3.51 -2.14,5.68 -5.52,5.68 -3.38,0 -5.52,-2.16 -5.52,-5.68 v -9.41 h 2.49 v 9.58 c 0,1.83 1.2,3.08 3.06,3.08 1.83,0 3.01,-1.24 3.01,-3.08 v -9.58 z"
   id="path900"
   inkscape:connector-curvature="0"
   style="fill:#a8cfb7" />
	<path
   class="st0"
   d="m 154.1,254.72 h 4.76 c 2.62,0 4.54,1.53 4.54,3.91 0,1.64 -0.76,2.73 -1.94,3.3 1.42,0.59 2.38,1.77 2.38,3.58 0,2.49 -2.03,4.06 -4.8,4.06 h -4.93 v -14.85 z m 4.76,2.38 h -2.27 v 3.65 h 2.27 c 1.09,0 1.99,-0.55 1.99,-1.81 -0.01,-1.25 -0.9,-1.84 -1.99,-1.84 z m 0.17,6.04 h -2.45 v 4.04 h 2.45 c 1.24,0 2.25,-0.63 2.25,-2.01 0,-1.39 -1,-2.03 -2.25,-2.03 z"
   id="path902"
   inkscape:connector-curvature="0"
   style="fill:#a8cfb7" />
	<path
   class="st0"
   d="m 167.62,269.56 v -14.85 h 8.21 v 2.38 h -5.72 v 3.8 h 5.28 v 2.38 h -5.28 v 3.91 h 5.72 v 2.38 z"
   id="path904"
   inkscape:connector-curvature="0"
   style="fill:#a8cfb7" />
	<path
   class="st0"
   d="m 186,254.72 h 5.35 c 4.48,0 7.31,3.08 7.31,7.42 0,4.34 -2.84,7.42 -7.31,7.42 H 186 Z m 2.49,2.38 v 10.09 h 2.84 c 3.01,0 4.76,-2.16 4.76,-5.04 0,-2.88 -1.75,-5.04 -4.76,-5.04 h -2.84 z"
   id="path906"
   inkscape:connector-curvature="0"
   style="fill:#a8cfb7" />
	<path
   class="st0"
   d="m 202.41,269.56 v -14.85 h 8.21 v 2.38 h -5.72 v 3.8 h 5.28 v 2.38 h -5.28 v 3.91 h 5.72 v 2.38 z"
   id="path908"
   inkscape:connector-curvature="0"
   style="fill:#a8cfb7" />
	<path
   class="st0"
   d="m 231.1,268.89 c -1.05,0.57 -2.29,0.92 -3.62,0.92 -4.35,0 -7.64,-3.32 -7.64,-7.66 0,-4.35 3.3,-7.66 7.64,-7.66 1.33,0 2.58,0.35 3.62,0.92 v 2.88 c -0.9,-0.79 -2.18,-1.31 -3.62,-1.31 -2.9,0 -5.09,2.29 -5.09,5.17 0,2.88 2.18,5.17 5.09,5.17 1.44,0 2.75,-0.52 3.62,-1.29 z"
   id="path910"
   inkscape:connector-curvature="0"
   style="fill:#a8cfb7" />
	<path
   class="st0"
   d="m 243.05,265.9 h -5.66 l -1.33,3.67 h -2.77 l 5.55,-14.85 h 2.77 l 5.55,14.85 h -2.77 z m -4.85,-2.38 h 4.04 l -2.01,-5.55 z"
   id="path912"
   inkscape:connector-curvature="0"
   style="fill:#a8cfb7" />
	<path
   class="st0"
   d="m 257.44,257.95 c -0.79,-0.61 -2.03,-1.11 -3.23,-1.11 -1.42,0 -2.21,0.7 -2.21,1.68 0,0.63 0.41,1.16 1.22,1.66 l 2.27,1.42 c 1.9,1.14 2.62,2.34 2.62,3.95 0,2.23 -1.57,4.26 -4.85,4.26 -1.51,0 -2.82,-0.42 -3.71,-0.85 v -2.79 c 0.79,0.63 2.16,1.29 3.6,1.29 1.51,0 2.29,-0.79 2.29,-1.77 0,-0.66 -0.41,-1.22 -1.38,-1.81 l -2.31,-1.42 c -1.83,-1.07 -2.42,-2.27 -2.42,-3.84 0,-1.99 1.31,-4.13 4.91,-4.13 1.2,0 2.31,0.33 3.19,0.76 v 2.7 z"
   id="path914"
   inkscape:connector-curvature="0"
   style="fill:#a8cfb7" />
	<path
   class="st0"
   d="m 269.72,265.9 h -5.66 l -1.33,3.67 h -2.77 l 5.55,-14.85 h 2.77 l 5.55,14.85 h -2.77 z m -4.85,-2.38 h 4.04 l -2.01,-5.55 z"
   id="path916"
   inkscape:connector-curvature="0"
   style="fill:#a8cfb7" />
	<path
   class="st0"
   d="m 284.11,257.95 c -0.79,-0.61 -2.03,-1.11 -3.23,-1.11 -1.42,0 -2.21,0.7 -2.21,1.68 0,0.63 0.41,1.16 1.22,1.66 l 2.27,1.42 c 1.9,1.14 2.62,2.34 2.62,3.95 0,2.23 -1.57,4.26 -4.85,4.26 -1.51,0 -2.82,-0.42 -3.71,-0.85 v -2.79 c 0.79,0.63 2.16,1.29 3.6,1.29 1.51,0 2.29,-0.79 2.29,-1.77 0,-0.66 -0.41,-1.22 -1.38,-1.81 l -2.31,-1.42 c -1.83,-1.07 -2.42,-2.27 -2.42,-3.84 0,-1.99 1.31,-4.13 4.91,-4.13 1.2,0 2.31,0.33 3.19,0.76 v 2.7 z"
   id="path918"
   inkscape:connector-curvature="0"
   style="fill:#a8cfb7" />
</g>
</svg>