<?xml version="1.0" encoding="utf-8"?>
<!-- Generator: Adobe Illustrator 24.3.0, SVG Export Plug-In . SVG Version: 6.00 Build 0)  -->
<svg version="1.1" id="Capa_1" xmlns="http://www.w3.org/2000/svg" xmlns:xlink="http://www.w3.org/1999/xlink" x="0px" y="0px"
	 viewBox="0 0 28.3 28.3" style="enable-background:new 0 0 28.3 28.3;" xml:space="preserve">
<style type="text/css">
	.st0{fill:#698D86;}
	.st1{fill:#698D86;stroke:#698D86;stroke-width:0.2;stroke-linecap:round;stroke-linejoin:round;stroke-miterlimit:10;}
	.st2{fill:#455F5D;}
	.st3{fill:#FFFFFF;}
	.st4{fill-rule:evenodd;clip-rule:evenodd;fill:#698D86;}
	.st5{fill:none;stroke:#698D86;stroke-width:0.6;stroke-linejoin:round;stroke-miterlimit:10;}
	.st6{fill:none;stroke:#698D86;stroke-width:0.6;stroke-linecap:round;stroke-linejoin:round;stroke-miterlimit:10;}
	.st7{fill:none;stroke:#E30613;stroke-linejoin:round;stroke-miterlimit:10;}
	.st8{fill:#FFFFFF;stroke:#698D86;stroke-width:0.6;stroke-linecap:round;stroke-linejoin:round;stroke-miterlimit:10;}
	.st9{fill:#FFFFFF;stroke:#000000;stroke-width:0.6;stroke-linecap:round;stroke-miterlimit:10;}
	.st10{stroke:#698D86;stroke-width:0.6;stroke-linecap:round;stroke-linejoin:round;stroke-miterlimit:10;}
	.st11{fill:none;stroke:#698D86;stroke-width:0.75;stroke-miterlimit:10;}
</style>
<g>
	<path class="st0" d="M23.6,5.8h-0.8c-0.3,0-0.5,0.2-0.6,0.4h-2.4l-0.6,0c0,0-0.6,0-1.4-0.9c-0.8-0.9-1.6-1.1-2.2-1.1
		c-1,0-10.2,0-10.2,0c-0.5,0-1,0.4-1,1v4.3c0,0.5,0.4,1,1,1c0,0,2.3,0,4.8,0c1.4,0,2.9,0,3.9,0l0,0l0,0c0.7,0,1.3,0,1.5,0
		c0.7,0,1.4-0.1,2.2-1.1c0.8-0.9,1.4-0.9,1.4-0.9c0,0,0,0,0,0l3,0c0.1,0.2,0.3,0.4,0.6,0.4h0.8c0.4,0,0.7-0.3,0.7-0.7V6.5
		C24.3,6.1,24,5.8,23.6,5.8z M4.9,9.5V5.2c0-0.3,0.2-0.5,0.5-0.5c0,0,0.4,0,1,0V10c-0.6,0-1,0-1,0C5.1,10,4.9,9.8,4.9,9.5z M6.8,10
		V4.8c1.5,0,3.8,0,5.6,0c0.5,0,0.9,0,1.3,0V10C11.8,10,8.7,10,6.8,10z M17.4,9.1c-0.7,0.8-1.3,0.9-1.9,0.9c-0.2,0-0.6,0-1.3,0V4.8
		c0.6,0,1.1,0,1.3,0c0.5,0,1.2,0.1,1.9,0.9c1,1.1,1.8,1,1.8,1v1.4C19.1,8.1,18.3,8.1,17.4,9.1z M19.7,8.1V6.7l2.4,0v1.4L19.7,8.1
		L19.7,8.1z M23.8,8.3c0,0.1-0.1,0.2-0.2,0.2h-0.8c-0.1,0-0.2-0.1-0.2-0.2V6.5c0-0.1,0.1-0.2,0.2-0.2h0.8c0.1,0,0.2,0.1,0.2,0.2V8.3
		z"/>
	<path class="st0" d="M23.6,12.8h-0.8c-0.3,0-0.5,0.2-0.6,0.4h-2.4l-0.6,0c0,0-0.6,0-1.4-0.9c-0.8-0.9-1.6-1.1-2.2-1.1
		c-1,0-10.2,0-10.2,0c-0.5,0-1,0.4-1,1v4.3c0,0.5,0.4,1,1,1c0,0,2.3,0,4.7,0c1.4,0,2.9,0,4,0c0,0,0,0,0,0s0,0,0,0c0.7,0,1.3,0,1.5,0
		c0.7,0,1.4-0.1,2.2-1.1c0.8-0.9,1.4-0.9,1.4-0.9c0,0,0,0,0,0l3,0c0.1,0.2,0.3,0.4,0.6,0.4h0.8c0.4,0,0.7-0.3,0.7-0.7v-1.8
		C24.3,13.1,24,12.8,23.6,12.8z M4.9,16.5v-4.3c0-0.3,0.2-0.5,0.5-0.5c0,0,0.4,0,1,0v5.2c-0.6,0-1,0-1,0C5.1,16.9,4.9,16.7,4.9,16.5
		z M6.8,16.9v-5.2c1.5,0,3.8,0,5.6,0c0.5,0,0.9,0,1.3,0v5.2C11.8,16.9,8.7,16.9,6.8,16.9z M17.4,16.1c-0.7,0.8-1.3,0.9-1.9,0.9
		c-0.2,0-0.6,0-1.3,0v-5.2c0.6,0,1.1,0,1.3,0c0.5,0,1.2,0.1,1.9,0.9c1,1.1,1.8,1,1.8,1V15C19.1,15,18.3,15,17.4,16.1z M19.7,15v-1.4
		l2.4,0V15L19.7,15L19.7,15z M23.8,15.2c0,0.1-0.1,0.2-0.2,0.2h-0.8c-0.1,0-0.2-0.1-0.2-0.2v-1.8c0-0.1,0.1-0.2,0.2-0.2h0.8
		c0.1,0,0.2,0.1,0.2,0.2V15.2z"/>
	<path class="st0" d="M23.6,19.7h-0.8c-0.3,0-0.5,0.2-0.6,0.4h-2.4l-0.6,0c0,0-0.7,0-1.4-0.9c-0.8-0.9-1.6-1.1-2.2-1.1
		c-1,0-10.2,0-10.2,0c-0.5,0-1,0.4-1,1v4.3c0,0.5,0.4,1,1,1c0,0,2.3,0,4.7,0c1.4,0,2.9,0,4,0c0,0,0,0,0,0s0,0,0,0c0.7,0,1.3,0,1.5,0
		c0.7,0,1.4-0.1,2.2-1.1c0.8-0.9,1.4-0.9,1.4-0.9c0,0,0,0,0,0l3,0c0.1,0.2,0.3,0.4,0.6,0.4h0.8c0.4,0,0.7-0.3,0.7-0.7v-1.8
		C24.3,20,24,19.7,23.6,19.7z M4.9,23.4v-4.3c0-0.3,0.2-0.5,0.5-0.5c0,0,0.4,0,1,0v5.2c-0.6,0-1,0-1,0C5.1,23.9,4.9,23.7,4.9,23.4z
		 M6.8,23.9v-5.2c1.5,0,3.8,0,5.7,0c0.5,0,0.9,0,1.3,0v5.2C11.8,23.9,8.7,23.9,6.8,23.9z M17.4,23c-0.7,0.8-1.3,0.9-1.9,0.9
		c-0.2,0-0.6,0-1.3,0v-5.2c0.6,0,1.1,0,1.3,0c0.5,0,1.2,0.1,1.9,0.9c1,1.1,1.8,1,1.8,1V22C19.1,22,18.3,22,17.4,23z M19.7,21.9v-1.4
		l2.4,0v1.4L19.7,21.9L19.7,21.9z M23.8,22.1c0,0.1-0.1,0.2-0.2,0.2h-0.8c-0.1,0-0.2-0.1-0.2-0.2v-1.8c0-0.1,0.1-0.2,0.2-0.2h0.8
		c0.1,0,0.2,0.1,0.2,0.2V22.1z"/>
</g>
</svg>
