<?xml version="1.0" encoding="utf-8"?>
<!-- Generator: Adobe Illustrator 24.3.0, SVG Export Plug-In . SVG Version: 6.00 Build 0)  -->
<svg version="1.1" id="Capa_1" xmlns="http://www.w3.org/2000/svg" xmlns:xlink="http://www.w3.org/1999/xlink" x="0px" y="0px"
	 viewBox="0 0 28.3 28.3" style="enable-background:new 0 0 28.3 28.3;" xml:space="preserve">
<style type="text/css">
	.st0{fill:#698D86;}
	.st1{fill:#698D86;stroke:#698D86;stroke-width:0.2;stroke-linecap:round;stroke-linejoin:round;stroke-miterlimit:10;}
	.st2{fill:#455F5D;}
	.st3{fill:#FFFFFF;}
	.st4{fill-rule:evenodd;clip-rule:evenodd;fill:#698D86;}
	.st5{fill:none;stroke:#698D86;stroke-width:0.6;stroke-linejoin:round;stroke-miterlimit:10;}
	.st6{fill:none;stroke:#698D86;stroke-width:0.6;stroke-linecap:round;stroke-linejoin:round;stroke-miterlimit:10;}
	.st7{fill:none;stroke:#E30613;stroke-linejoin:round;stroke-miterlimit:10;}
	.st8{fill:#FFFFFF;stroke:#698D86;stroke-width:0.6;stroke-linecap:round;stroke-linejoin:round;stroke-miterlimit:10;}
	.st9{fill:#FFFFFF;stroke:#000000;stroke-width:0.6;stroke-linecap:round;stroke-miterlimit:10;}
	.st10{stroke:#698D86;stroke-width:0.6;stroke-linecap:round;stroke-linejoin:round;stroke-miterlimit:10;}
	.st11{fill:none;stroke:#698D86;stroke-width:0.75;stroke-miterlimit:10;}
</style>
<g>
	<path class="st0" d="M11,7.5c0,0.4,0.2,0.9,0.6,1.1c0.1,0.1,0.3,0.1,0.3,0c0.1-0.1,0.1-0.3,0-0.3c-0.2-0.2-0.4-0.5-0.4-0.8
		c0-0.4,0.2-0.7,0.4-1c0.3-0.3,0.5-0.8,0.5-1.2c0-0.5-0.2-1-0.6-1.4c-0.1-0.1-0.1-0.1-0.2-0.1c-0.1,0-0.2,0.1-0.2,0.3
		c0,0.1,0,0.1,0.1,0.2C11.8,4.6,12,4.9,12,5.3c0,0.3-0.2,0.7-0.4,0.9C11.2,6.6,11,7.1,11,7.5z"/>
	<path class="st0" d="M12.9,7.5c0,0.4,0.2,0.9,0.6,1.1c0.1,0.1,0.3,0.1,0.3,0s0.1-0.3,0-0.3c-0.2-0.2-0.4-0.5-0.4-0.8
		c0-0.4,0.2-0.7,0.4-1c0.3-0.3,0.5-0.8,0.5-1.2c0-0.5-0.2-1-0.6-1.4c-0.1-0.1-0.1-0.1-0.2-0.1c-0.1,0-0.2,0.1-0.2,0.3
		c0,0.1,0,0.1,0.1,0.2c0.3,0.3,0.4,0.7,0.4,1.1c0,0.3-0.2,0.7-0.4,0.9C13.1,6.6,12.9,7.1,12.9,7.5z"/>
	<path class="st0" d="M15,7.5c0,0.4,0.2,0.9,0.6,1.1c0.1,0.1,0.3,0.1,0.3,0c0.1-0.1,0.1-0.3,0-0.3c-0.2-0.2-0.4-0.5-0.4-0.8
		c0-0.4,0.2-0.7,0.4-1c0.3-0.3,0.5-0.8,0.5-1.2c0-0.5-0.2-1-0.6-1.4c-0.1-0.1-0.1-0.1-0.2-0.1c-0.1,0-0.2,0.1-0.2,0.3
		c0,0.1,0,0.1,0.1,0.2c0.3,0.3,0.4,0.7,0.4,1.1c0,0.3-0.2,0.7-0.4,0.9C15.2,6.6,15,7.1,15,7.5z"/>
	<path class="st0" d="M21.9,11.4h-1c0.1-0.5,0.2-1,0.2-1.5c0-0.2-0.1-0.3-0.3-0.3H7.3C7.1,9.6,7,9.8,7,9.9c0,0.5,0.1,1,0.2,1.5h-1
		c-0.2,0-0.3,0.1-0.3,0.3S6,12,6.1,12h1.1c0.6,1.8,1.9,3.4,3.5,4.2l-1.4,7.5c0,0.2,0.1,0.3,0.2,0.4c0,0,0,0,0.1,0
		c0.1,0,0.3-0.1,0.3-0.2l1.4-7.3c0.7,0.3,1.5,0.5,2.4,0.5v6.8c0,0.2,0.1,0.3,0.3,0.3s0.3-0.1,0.3-0.3V17c0.8,0,1.5-0.2,2.2-0.5
		l1,5.3c-0.5,0.2-0.8,0.7-0.8,1.2c0,0.8,0.6,1.4,1.4,1.4s1.4-0.6,1.4-1.4s-0.6-1.4-1.4-1.4c0,0,0,0,0,0l-1-5.4
		c1.7-0.9,3.1-2.4,3.7-4.3h1.1c0.2,0,0.3-0.1,0.3-0.3S22.1,11.4,21.9,11.4z M19,23.1c0,0.4-0.3,0.8-0.8,0.8s-0.8-0.3-0.8-0.8
		s0.3-0.8,0.8-0.8S19,22.6,19,23.1z M7.6,10.2h13c0,0.4-0.1,0.8-0.2,1.2H7.7C7.6,11,7.6,10.7,7.6,10.2z M14,16.4
		c-2.8,0-5.3-1.8-6.1-4.4h12.3C19.3,14.6,16.9,16.4,14,16.4z"/>
</g>
</svg>
