<?xml version="1.0" encoding="utf-8"?>
<!-- Generator: Adobe Illustrator 24.3.0, SVG Export Plug-In . SVG Version: 6.00 Build 0)  -->
<svg version="1.1" id="Capa_1" xmlns="http://www.w3.org/2000/svg" xmlns:xlink="http://www.w3.org/1999/xlink" x="0px" y="0px"
	 viewBox="0 0 28.3 28.3" style="enable-background:new 0 0 28.3 28.3;" xml:space="preserve">
<style type="text/css">
	.st0{fill:#698D86;}
</style>
<g>
	<path class="st0" d="M23.2,13l-2.7-0.9c-0.1,0-0.2-0.1-0.3-0.2l-0.9-1.3c-0.2-0.2-0.4-0.4-0.7-0.5l-2.5-0.9
		c-0.2-0.1-0.3-0.2-0.3-0.4V5.6c0-1.1-1.5-1.6-2.1-0.8l-6.8,7.6l0,0L4,15.6c-0.1,0.2-0.1,0.4,0,0.6c0.2,0.1,0.4,0.1,0.6,0
		c1.9-2.2,7.6-8.7,9.6-10.9c0.3-0.2,0.8,0,0.8,0.3v3.2c0,0.5,0.3,1,0.8,1.2l2.5,0.9c0.1,0,0.2,0.1,0.3,0.2l0.9,1.3
		c0.2,0.2,0.4,0.4,0.7,0.5l2.7,0.9c0.6,0.2,0.2,1,0.1,1.4l-0.5,1.6c-0.2,0.7-0.8,1.2-1.6,1.4l-4.8,0.9c-0.3,0.1-0.7,0.3-0.8,0.6
		l-2.8,4c-0.3,0.4,0.3,1,0.7,0.5l2.4-3.5l0,0l0.3-0.5c0.1-0.1,0.2-0.2,0.3-0.2l4.8-1c1-0.2,1.9-0.9,2.2-1.9l0.5-1.6
		C24.1,14.7,24.2,13.4,23.2,13z"/>
	<path class="st0" d="M16.6,12.6c1,0,1,1.6,0,1.6C15.6,14.2,15.6,12.6,16.6,12.6z"/>
</g>
</svg>
