<?xml version="1.0" encoding="utf-8"?>
<!-- Generator: Adobe Illustrator 24.3.0, SVG Export Plug-In . SVG Version: 6.00 Build 0)  -->
<svg version="1.1" id="Capa_1" xmlns="http://www.w3.org/2000/svg" xmlns:xlink="http://www.w3.org/1999/xlink" x="0px" y="0px"
	 viewBox="0 0 28.3 28.3" style="enable-background:new 0 0 28.3 28.3;" xml:space="preserve">
<style type="text/css">
	.st0{fill:#698D86;}
	.st1{fill:#698D86;stroke:#698D86;stroke-width:0.2;stroke-linecap:round;stroke-linejoin:round;stroke-miterlimit:10;}
	.st2{fill:#455F5D;}
	.st3{fill:#FFFFFF;}
	.st4{fill-rule:evenodd;clip-rule:evenodd;fill:#698D86;}
	.st5{fill:none;stroke:#698D86;stroke-width:0.6;stroke-linejoin:round;stroke-miterlimit:10;}
	.st6{fill:none;stroke:#698D86;stroke-width:0.6;stroke-linecap:round;stroke-linejoin:round;stroke-miterlimit:10;}
	.st7{fill:none;stroke:#E30613;stroke-linejoin:round;stroke-miterlimit:10;}
	.st8{fill:#FFFFFF;stroke:#698D86;stroke-width:0.6;stroke-linecap:round;stroke-linejoin:round;stroke-miterlimit:10;}
	.st9{fill:#FFFFFF;stroke:#000000;stroke-width:0.6;stroke-linecap:round;stroke-miterlimit:10;}
	.st10{stroke:#698D86;stroke-width:0.6;stroke-linecap:round;stroke-linejoin:round;stroke-miterlimit:10;}
</style>
<g>
	<path class="st0" d="M20.7,4.1c-2.2,0-4.1,1.8-4.1,4.1c0,0.2,0.2,0.3,0.3,0.3c0.2,0,0.3-0.2,0.3-0.3c0-1.9,1.5-3.4,3.4-3.4
		s3.4,1.5,3.4,3.4c0,1.9-1.5,3.4-3.4,3.4c-1.2,0-2.3-0.6-2.9-1.6V9.6c0-0.2-0.1-0.3-0.3-0.3H5.2c-0.2,0-0.3,0.1-0.3,0.3V14l-1.3,4.1
		c0,0.1,0,0.1,0,0.2v5.6c0,0.2,0.1,0.3,0.3,0.3c0.2,0,0.3-0.1,0.3-0.3v-1.4h15.7v1.4c0,0.2,0.1,0.3,0.3,0.3c0.2,0,0.3-0.1,0.3-0.3
		l0-5.6c0-0.1,0-0.1,0-0.2L19.1,14v-2.1c0.5,0.2,1,0.3,1.6,0.3c2.2,0,4.1-1.8,4.1-4.1C24.8,5.9,22.9,4.1,20.7,4.1z M5.6,9.9H17
		c0.3,0.7,0.9,1.3,1.5,1.7v0.5c-0.3-0.3-0.8-0.5-1.2-0.5h-3.7c-0.6,0-1.2,0.3-1.6,0.8c-0.3-0.5-0.9-0.8-1.6-0.8H6.8
		c-0.5,0-0.9,0.2-1.2,0.5V9.9z M18.5,13.4v0.3h-6.2v-0.3c0-0.3,0.1-0.6,0.4-0.9c0.2-0.2,0.5-0.4,0.9-0.4h3.7c0,0,0,0,0,0
		C18,12.2,18.5,12.7,18.5,13.4z M5.6,13.4c0-0.7,0.6-1.2,1.2-1.2h3.7c0,0,0,0,0,0c0.7,0,1.2,0.6,1.2,1.2v0.3H5.6V13.4z M19.9,21.9
		H4.2c0-0.2,0-1,0-3.3h15.7V21.9z M19.8,18H4.3l1.2-3.7h13.2L19.8,18z"/>
	<path class="st0" d="M18.8,7.5c-0.2,0-0.3,0.2-0.3,0.3V10c0,0.1,0.1,0.2,0.2,0.3c0,0,0.1,0,0.1,0c0.1,0,0.1,0,0.2-0.1l3.9-3.1
		C23,7.1,23,6.9,22.9,6.7c-0.1-0.1-0.3-0.2-0.5-0.1l-3.4,2.6V7.8C19.1,7.7,18.9,7.5,18.8,7.5z"/>
</g>
</svg>
