<?xml version="1.0" encoding="utf-8"?>
<!-- Generator: Adobe Illustrator 24.3.0, SVG Export Plug-In . SVG Version: 6.00 Build 0)  -->
<svg version="1.1" id="Capa_1" xmlns="http://www.w3.org/2000/svg" xmlns:xlink="http://www.w3.org/1999/xlink" x="0px" y="0px"
	 viewBox="0 0 28.3 28.3" style="enable-background:new 0 0 28.3 28.3;" xml:space="preserve">
<style type="text/css">
	.st0{fill:#698D86;}
	.st1{fill:#698D86;stroke:#698D86;stroke-width:0.2;stroke-linecap:round;stroke-linejoin:round;stroke-miterlimit:10;}
	.st2{fill:#455F5D;}
	.st3{fill:#FFFFFF;}
	.st4{fill-rule:evenodd;clip-rule:evenodd;fill:#698D86;}
	.st5{fill:none;stroke:#698D86;stroke-width:0.6;stroke-linejoin:round;stroke-miterlimit:10;}
	.st6{fill:none;stroke:#698D86;stroke-width:0.6;stroke-linecap:round;stroke-linejoin:round;stroke-miterlimit:10;}
	.st7{fill:none;stroke:#E30613;stroke-linejoin:round;stroke-miterlimit:10;}
	.st8{fill:#FFFFFF;stroke:#698D86;stroke-width:0.6;stroke-linecap:round;stroke-linejoin:round;stroke-miterlimit:10;}
	.st9{fill:#FFFFFF;stroke:#000000;stroke-width:0.6;stroke-linecap:round;stroke-miterlimit:10;}
	.st10{fill:none;stroke:#698D86;stroke-width:0.75;stroke-miterlimit:10;}
</style>
<g>
	<circle class="st10" cx="14.4" cy="14.2" r="10.8"/>
	<path class="st0" d="M18.1,14.2l1.6-2.8c0.1-0.1,0.1-0.3,0-0.4c-0.1-0.1-0.2-0.2-0.3-0.2h-3.3l-1.7-2.9c-0.1-0.1-0.2-0.2-0.3-0.2
		s-0.3,0.1-0.3,0.2l-1.7,2.9H8.9c-0.1,0-0.3,0.1-0.3,0.2c-0.1,0.1-0.1,0.3,0,0.4l1.6,2.8L8.6,17c-0.1,0.1-0.1,0.3,0,0.4
		c0.1,0.1,0.2,0.2,0.3,0.2h3.3l1.7,2.9c0.1,0.1,0.2,0.2,0.3,0.2s0.3-0.1,0.3-0.2l1.7-2.9h3.3c0.1,0,0.3-0.1,0.3-0.2
		c0.1-0.1,0.1-0.3,0-0.4L18.1,14.2z M18.8,11.5l-1.1,1.9l-1.1-1.9H18.8z M17.3,14.2l-1.5,2.7h-3.1l-1.5-2.7l1.5-2.7h3.1L17.3,14.2z
		 M14.2,8.8l1.1,2H13L14.2,8.8z M9.5,11.5h2.2l-1.1,1.9L9.5,11.5z M9.5,16.8l1.1-1.9l1.1,1.9H9.5z M14.2,19.5l-1.1-2h2.3L14.2,19.5z
		 M16.6,16.8l1.1-1.9l1.1,1.9H16.6z"/>
</g>
</svg>
