<?xml version="1.0" encoding="utf-8"?>
<!-- Generator: Adobe Illustrator 24.3.0, SVG Export Plug-In . SVG Version: 6.00 Build 0)  -->
<svg version="1.1" id="Capa_1" xmlns="http://www.w3.org/2000/svg" xmlns:xlink="http://www.w3.org/1999/xlink" x="0px" y="0px"
	 viewBox="0 0 28.3 28.3" style="enable-background:new 0 0 28.3 28.3;" xml:space="preserve">
<style type="text/css">
	.st0{fill:#698D86;}
	.st1{fill:#698D86;stroke:#698D86;stroke-width:0.2;stroke-linecap:round;stroke-linejoin:round;stroke-miterlimit:10;}
	.st2{fill:#455F5D;}
	.st3{fill:#FFFFFF;}
	.st4{fill-rule:evenodd;clip-rule:evenodd;fill:#698D86;}
	.st5{fill:none;stroke:#698D86;stroke-width:0.6;stroke-linejoin:round;stroke-miterlimit:10;}
	.st6{fill:none;stroke:#698D86;stroke-width:0.6;stroke-linecap:round;stroke-linejoin:round;stroke-miterlimit:10;}
	.st7{fill:none;stroke:#E30613;stroke-linejoin:round;stroke-miterlimit:10;}
	.st8{fill:#FFFFFF;stroke:#698D86;stroke-width:0.6;stroke-linecap:round;stroke-linejoin:round;stroke-miterlimit:10;}
	.st9{fill:#FFFFFF;stroke:#000000;stroke-width:0.6;stroke-linecap:round;stroke-miterlimit:10;}
	.st10{stroke:#698D86;stroke-width:0.6;stroke-linecap:round;stroke-linejoin:round;stroke-miterlimit:10;}
	.st11{fill:none;stroke:#698D86;stroke-width:0.75;stroke-miterlimit:10;}
</style>
<g>
	<path class="st0" d="M22.6,4.1H5.7c-0.2,0-0.3,0.1-0.3,0.3v19.6c0,0.2,0.1,0.3,0.3,0.3h16.9c0.2,0,0.3-0.1,0.3-0.3V4.4
		C22.9,4.2,22.8,4.1,22.6,4.1z M22.3,4.7v4.1H6V4.7H22.3z M6,23.6V9.4h16.3v14.2H6z"/>
	<path class="st0" d="M9.4,7.5c0.2,0,0.3-0.1,0.3-0.3V6.4c0-0.2-0.1-0.3-0.3-0.3S9.1,6.2,9.1,6.4v0.8C9.1,7.4,9.2,7.5,9.4,7.5z"/>
	<path class="st0" d="M8.1,7.5c0.2,0,0.3-0.1,0.3-0.3V6.4c0-0.2-0.1-0.3-0.3-0.3S7.8,6.2,7.8,6.4v0.8C7.8,7.4,7.9,7.5,8.1,7.5z"/>
	<path class="st0" d="M10.8,7.5c0.2,0,0.3-0.1,0.3-0.3V6.4c0-0.2-0.1-0.3-0.3-0.3s-0.3,0.1-0.3,0.3v0.8C10.5,7.4,10.6,7.5,10.8,7.5z
		"/>
	<path class="st0" d="M17.6,7.1H20c0.2,0,0.3-0.1,0.3-0.3S20.2,6.5,20,6.5h-2.4c-0.2,0-0.3,0.1-0.3,0.3S17.5,7.1,17.6,7.1z"/>
	<path class="st0" d="M14.2,10.9c-3.1,0-5.6,2.5-5.6,5.6s2.5,5.6,5.6,5.6s5.6-2.5,5.6-5.6S17.2,10.9,14.2,10.9z M14.2,21.4
		c-2.7,0-5-2.2-5-5s2.2-5,5-5s5,2.2,5,5S16.9,21.4,14.2,21.4z"/>
	<path class="st0" d="M14.2,12.3c-2.3,0-4.1,1.9-4.1,4.1c0,2.3,1.9,4.1,4.1,4.1c2.3,0,4.1-1.9,4.1-4.1
		C18.3,14.2,16.5,12.3,14.2,12.3z M14.2,20c-2,0-3.5-1.6-3.5-3.5s1.6-3.5,3.5-3.5s3.5,1.6,3.5,3.5S16.1,20,14.2,20z"/>
</g>
</svg>
