<?xml version="1.0" encoding="utf-8"?>
<!-- Generator: Adobe Illustrator 24.3.0, SVG Export Plug-In . SVG Version: 6.00 Build 0)  -->
<svg version="1.1" id="Capa_1" xmlns="http://www.w3.org/2000/svg" xmlns:xlink="http://www.w3.org/1999/xlink" x="0px" y="0px"
	 viewBox="0 0 28.3 28.3" style="enable-background:new 0 0 28.3 28.3;" xml:space="preserve">
<style type="text/css">
	.st0{fill:#698D86;}
	.st1{fill:#698D86;stroke:#698D86;stroke-width:0.2;stroke-linecap:round;stroke-linejoin:round;stroke-miterlimit:10;}
	.st2{fill:#455F5D;}
	.st3{fill:#FFFFFF;}
	.st4{fill-rule:evenodd;clip-rule:evenodd;fill:#698D86;}
	.st5{fill:none;stroke:#698D86;stroke-width:0.6;stroke-linejoin:round;stroke-miterlimit:10;}
	.st6{fill:none;stroke:#698D86;stroke-width:0.6;stroke-linecap:round;stroke-linejoin:round;stroke-miterlimit:10;}
	.st7{fill:none;stroke:#E30613;stroke-linejoin:round;stroke-miterlimit:10;}
	.st8{fill:#FFFFFF;stroke:#698D86;stroke-width:0.6;stroke-linecap:round;stroke-linejoin:round;stroke-miterlimit:10;}
	.st9{fill:none;stroke:#698D86;stroke-width:0.75;stroke-miterlimit:10;}
</style>
<g>
	<path class="st6" d="M26.5,18.3c-2.1,0-2.1-1.7-4.1-1.7c-2.1,0-2.1,1.7-4.1,1.7c-2.1,0-2.1-1.7-4.1-1.7c-2.1,0-2.1,1.7-4.1,1.7
		c-2.1,0-2.1-1.7-4.1-1.7s-2.1,1.7-4.1,1.7"/>
	<g>
		<path class="st6" d="M7.2,22.3C6.8,22.1,6.5,22,5.9,22c-2.1,0-2.1,1.7-4.1,1.7"/>
		<path class="st6" d="M26.5,23.7c-2.1,0-2.1-1.7-4.1-1.7c-2.1,0-2.1,1.7-4.1,1.7c-2.1,0-2.1-1.7-4.1-1.7c-2.1,0-2.1,1.7-4.1,1.7
			c-0.7,0-1.1-0.2-1.5-0.4"/>
	</g>
	<g>
		<path class="st6" d="M21.2,19.6c0.3-0.2,0.7-0.3,1.2-0.3c2.1,0,2.1,1.7,4.1,1.7"/>
		<path class="st6" d="M1.8,21c2.1,0,2.1-1.7,4.1-1.7C8,19.3,8,21,10,21c2.1,0,2.1-1.7,4.1-1.7c2.1,0,2.1,1.7,4.1,1.7
			c0.7,0,1.1-0.2,1.5-0.4"/>
	</g>
	<path class="st6" d="M10,18V7C10,5.7,9,4.6,7.6,4.6h0C6.3,4.6,5.3,5.7,5.3,7v0.4"/>
	<path class="st6" d="M17.6,18V7c0-1.3-1.1-2.4-2.4-2.4h0c-1.3,0-2.4,1.1-2.4,2.4v0.4"/>
	<line class="st6" x1="10" y1="8.7" x2="17.6" y2="8.7"/>
	<line class="st6" x1="10" y1="11.9" x2="17.6" y2="11.9"/>
	<line class="st6" x1="10" y1="15.1" x2="17.6" y2="15.1"/>
</g>
</svg>
