<?xml version="1.0" encoding="utf-8"?>
<!-- Generator: Adobe Illustrator 24.3.0, SVG Export Plug-In . SVG Version: 6.00 Build 0)  -->
<svg version="1.1" id="Capa_1" xmlns="http://www.w3.org/2000/svg" xmlns:xlink="http://www.w3.org/1999/xlink" x="0px" y="0px"
	 viewBox="0 0 28.3 28.3" style="enable-background:new 0 0 28.3 28.3;" xml:space="preserve">
<style type="text/css">
	.st0{fill:#698D86;}
	.st1{fill:#698D86;stroke:#698D86;stroke-width:0.2;stroke-linecap:round;stroke-linejoin:round;stroke-miterlimit:10;}
	.st2{fill:#455F5D;}
	.st3{fill:#FFFFFF;}
	.st4{fill-rule:evenodd;clip-rule:evenodd;fill:#698D86;}
	.st5{fill:none;stroke:#698D86;stroke-width:0.6;stroke-linejoin:round;stroke-miterlimit:10;}
	.st6{fill:none;stroke:#698D86;stroke-width:0.6;stroke-linecap:round;stroke-linejoin:round;stroke-miterlimit:10;}
	.st7{fill:none;stroke:#E30613;stroke-linejoin:round;stroke-miterlimit:10;}
	.st8{fill:#FFFFFF;stroke:#698D86;stroke-width:0.6;stroke-linecap:round;stroke-linejoin:round;stroke-miterlimit:10;}
	.st9{fill:#FFFFFF;stroke:#000000;stroke-width:0.6;stroke-linecap:round;stroke-miterlimit:10;}
	.st10{fill:none;stroke:#698D86;stroke-width:0.75;stroke-miterlimit:10;}
</style>
<path class="st0" d="M21.9,4h-4.5h-6.4H6.5C6.3,4,6.2,4.2,6.2,4.3v9.8c0,0,0,0,0,0s0,0,0,0V24c0,0.2,0.1,0.3,0.3,0.3h4.5
	c0,0,0,0,0,0h6.4c0,0,0,0,0,0h4.5c0.2,0,0.3-0.1,0.3-0.3V4.3C22.2,4.2,22,4,21.9,4z M11.2,4.6h5.8v2h-5.8V4.6z M15.5,7.3
	c-0.1,0.6-0.7,1.1-1.4,1.1s-1.2-0.5-1.4-1.1H15.5z M17.1,23.7h-5.8v-2h5.8V23.7z M12.8,21.1c0.1-0.6,0.7-1.1,1.4-1.1
	s1.2,0.5,1.4,1.1H12.8z M21.6,23.7h-3.9v-2.3c0-0.2-0.1-0.3-0.3-0.3h-1.2c-0.1-1-1-1.7-2-1.7s-1.8,0.8-2,1.7h-1.3
	c-0.2,0-0.3,0.1-0.3,0.3v2.3H6.8v-9.2h4.6c0.2,1.4,1.3,2.4,2.7,2.4s2.6-1.1,2.7-2.4h4.7V23.7z M16.2,14.5c-0.1,1-1,1.8-2.1,1.8
	s-2-0.8-2.1-1.8H16.2z M12,13.9c0.1-1,1-1.8,2.1-1.8s2,0.8,2.1,1.8H12z M21.6,13.9h-4.7c-0.2-1.4-1.3-2.4-2.7-2.4s-2.6,1.1-2.7,2.4
	H6.8V4.6h3.9V7c0,0.2,0.1,0.3,0.3,0.3h1.2c0.1,1,1,1.7,2,1.7s1.8-0.8,2-1.7h1.3c0.2,0,0.3-0.1,0.3-0.3V4.6h3.9V13.9z"/>
</svg>
