<?xml version="1.0" encoding="utf-8"?>
<!-- Generator: Adobe Illustrator 24.3.0, SVG Export Plug-In . SVG Version: 6.00 Build 0)  -->
<svg version="1.1" id="Capa_1" xmlns="http://www.w3.org/2000/svg" xmlns:xlink="http://www.w3.org/1999/xlink" x="0px" y="0px"
	 viewBox="0 0 28.3 28.3" style="enable-background:new 0 0 28.3 28.3;" xml:space="preserve">
<style type="text/css">
	.st0{fill:#698D86;}
	.st1{fill:#698D86;stroke:#698D86;stroke-width:0.2;stroke-linecap:round;stroke-linejoin:round;stroke-miterlimit:10;}
	.st2{fill:#455F5D;}
	.st3{fill:#FFFFFF;}
	.st4{fill-rule:evenodd;clip-rule:evenodd;fill:#698D86;}
	.st5{stroke:#1D1D1B;stroke-width:0.6;stroke-miterlimit:10;}
	.st6{fill:none;stroke:#698D86;stroke-width:0.6;stroke-linejoin:round;stroke-miterlimit:10;}
	.st7{fill:none;stroke:#698D86;stroke-width:0.6;stroke-linecap:round;stroke-linejoin:round;stroke-miterlimit:10;}
	.st8{fill:none;stroke:#E30613;stroke-linejoin:round;stroke-miterlimit:10;}
	.st9{fill:#FFFFFF;stroke:#698D86;stroke-width:0.6;stroke-linecap:round;stroke-linejoin:round;stroke-miterlimit:10;}
	.st10{fill:#FFFFFF;stroke:#000000;stroke-width:0.6;stroke-linecap:round;stroke-miterlimit:10;}
	.st11{stroke:#698D86;stroke-width:0.6;stroke-linecap:round;stroke-linejoin:round;stroke-miterlimit:10;}
	.st12{fill:#698D86;stroke:#698D86;stroke-width:0.25;stroke-linecap:round;stroke-linejoin:round;stroke-miterlimit:10;}
</style>
<g>
	<path class="st0" d="M1.8,18.7c1.2,0,1.8-0.5,2.3-0.9C4.6,17.3,5,17,5.9,17c0.9,0,1.3,0.4,1.8,0.8c0.5,0.4,1.1,0.9,2.3,0.9
		c1.2,0,1.8-0.5,2.3-0.9c0.5-0.4,0.9-0.8,1.8-0.8c0.9,0,1.3,0.4,1.8,0.8c0.5,0.4,1.1,0.9,2.3,0.9s1.8-0.5,2.3-0.9
		c0.5-0.4,0.9-0.8,1.8-0.8c0.9,0,1.3,0.4,1.8,0.8c0.5,0.4,1.1,0.9,2.3,0.9c0.2,0,0.4-0.2,0.4-0.4s-0.2-0.4-0.4-0.4
		c-0.9,0-1.3-0.4-1.8-0.8c-0.5-0.4-1.1-0.9-2.3-0.9s-1.8,0.5-2.3,0.9c-0.5,0.4-0.9,0.8-1.8,0.8c-0.1,0-0.2,0-0.3,0V7
		c0-1.5-1.2-2.7-2.7-2.7S12.5,5.5,12.5,7v0.4c0,0.2,0.2,0.4,0.4,0.4s0.4-0.2,0.4-0.4V7c0-1.1,0.9-2,2-2c1.1,0,2,0.9,2,2v1.4h-6.9V7
		c0-1.5-1.2-2.7-2.7-2.7S4.9,5.5,4.9,7v0.4c0,0.2,0.2,0.4,0.4,0.4s0.4-0.2,0.4-0.4V7c0-1.1,0.9-2,2-2c1.1,0,2,0.9,2,2v10.9
		c-0.6-0.1-1-0.4-1.4-0.7c-0.5-0.4-1.1-0.9-2.3-0.9s-1.8,0.5-2.3,0.9c-0.5,0.4-0.9,0.8-1.8,0.8c-0.2,0-0.4,0.2-0.4,0.4
		S1.6,18.7,1.8,18.7z M16.5,17.1c-0.5-0.4-1.1-0.9-2.3-0.9c-1.2,0-1.8,0.5-2.3,0.9c-0.4,0.4-0.8,0.7-1.5,0.7v-2.4h6.9v2.2
		C17,17.6,16.7,17.4,16.5,17.1z M17.3,14.7h-6.9v-2.4h6.9V14.7z M17.3,9.1v2.4h-6.9V9.1H17.3z"/>
	<path class="st0" d="M7.3,22c-0.4-0.2-0.9-0.3-1.4-0.3c-1.2,0-1.8,0.5-2.3,0.9c-0.5,0.4-0.9,0.8-1.8,0.8c-0.2,0-0.4,0.2-0.4,0.4
		s0.2,0.4,0.4,0.4c1.2,0,1.8-0.5,2.3-0.9c0.5-0.4,0.9-0.8,1.8-0.8c0.4,0,0.7,0.1,1.1,0.2c0.2,0.1,0.4,0,0.5-0.2
		C7.6,22.3,7.5,22.1,7.3,22z"/>
	<path class="st0" d="M26.5,23.4c-0.9,0-1.3-0.4-1.8-0.8c-0.5-0.4-1.1-0.9-2.3-0.9c-1.2,0-1.8,0.5-2.3,0.9c-0.5,0.4-0.9,0.8-1.8,0.8
		S17,23,16.5,22.6c-0.5-0.4-1.1-0.9-2.3-0.9c-1.2,0-1.8,0.5-2.3,0.9c-0.5,0.4-0.9,0.8-1.8,0.8c-0.7,0-1-0.2-1.3-0.4
		c-0.2-0.1-0.4-0.1-0.5,0.1s-0.1,0.4,0.1,0.5c0.5,0.3,1.1,0.5,1.7,0.5c1.2,0,1.8-0.5,2.3-0.9c0.5-0.4,0.9-0.8,1.8-0.8
		c0.9,0,1.3,0.4,1.8,0.8c0.5,0.4,1.1,0.9,2.3,0.9s1.8-0.5,2.3-0.9c0.5-0.4,0.9-0.8,1.8-0.8c0.9,0,1.3,0.4,1.8,0.8
		c0.5,0.4,1.1,0.9,2.3,0.9c0.2,0,0.4-0.2,0.4-0.4S26.7,23.4,26.5,23.4z"/>
	<path class="st0" d="M26.5,20.6c-0.9,0-1.3-0.4-1.8-0.8c-0.5-0.4-1.1-0.9-2.3-0.9c-0.5,0-1,0.1-1.4,0.3c-0.2,0.1-0.3,0.3-0.2,0.5
		c0.1,0.2,0.3,0.3,0.5,0.2c0.3-0.2,0.6-0.2,1.1-0.2c0.9,0,1.3,0.4,1.8,0.8c0.5,0.4,1.1,0.9,2.3,0.9c0.2,0,0.4-0.2,0.4-0.4
		S26.7,20.6,26.5,20.6z"/>
	<path class="st0" d="M12.3,20.4c0.5-0.4,0.9-0.8,1.8-0.8c0.9,0,1.3,0.4,1.8,0.8c0.5,0.4,1.1,0.9,2.3,0.9c0.7,0,1.2-0.2,1.7-0.5
		c0.2-0.1,0.2-0.3,0.1-0.5c-0.1-0.2-0.3-0.2-0.5-0.1c-0.3,0.2-0.6,0.4-1.3,0.4c-0.9,0-1.3-0.4-1.8-0.8c-0.5-0.4-1.1-0.9-2.3-0.9
		c-1.2,0-1.8,0.5-2.3,0.9c-0.5,0.4-0.9,0.8-1.8,0.8c-0.9,0-1.3-0.4-1.8-0.8c-0.5-0.4-1.1-0.9-2.3-0.9s-1.8,0.5-2.3,0.9
		c-0.5,0.4-0.9,0.8-1.8,0.8c-0.2,0-0.4,0.2-0.4,0.4s0.2,0.4,0.4,0.4c1.2,0,1.8-0.5,2.3-0.9C4.6,20,5,19.7,5.9,19.7s1.3,0.4,1.8,0.8
		c0.5,0.4,1.1,0.9,2.3,0.9C11.2,21.4,11.8,20.9,12.3,20.4z"/>
</g>
</svg>
