<?xml version="1.0" encoding="utf-8"?>
<!-- Generator: Adobe Illustrator 24.3.0, SVG Export Plug-In . SVG Version: 6.00 Build 0)  -->
<svg version="1.1" id="Capa_1" xmlns="http://www.w3.org/2000/svg" xmlns:xlink="http://www.w3.org/1999/xlink" x="0px" y="0px"
	 viewBox="0 0 28.3 28.3" style="enable-background:new 0 0 28.3 28.3;" xml:space="preserve">
<style type="text/css">
	.st0{fill:#698D86;}
	.st1{fill:#698D86;stroke:#698D86;stroke-width:0.2;stroke-linecap:round;stroke-linejoin:round;stroke-miterlimit:10;}
	.st2{fill:#455F5D;}
	.st3{fill:#FFFFFF;}
	.st4{fill-rule:evenodd;clip-rule:evenodd;fill:#698D86;}
	.st5{fill:none;stroke:#698D86;stroke-width:0.6;stroke-linejoin:round;stroke-miterlimit:10;}
	.st6{fill:none;stroke:#698D86;stroke-width:0.6;stroke-linecap:round;stroke-linejoin:round;stroke-miterlimit:10;}
	.st7{fill:none;stroke:#E30613;stroke-linejoin:round;stroke-miterlimit:10;}
	.st8{fill:#FFFFFF;stroke:#698D86;stroke-width:0.6;stroke-linecap:round;stroke-linejoin:round;stroke-miterlimit:10;}
	.st9{fill:none;stroke:#698D86;stroke-width:0.75;stroke-miterlimit:10;}
</style>
<g>
	<path class="st0" d="M10.7,17.3c-0.2,0-0.3,0.1-0.3,0.3c0,0.1,0,0.1,0.1,0.2c0.3,0.3,0.5,0.8,0.5,1.2c0,0.4-0.2,0.8-0.5,1.1
		c-0.4,0.4-0.6,0.9-0.6,1.5c0,0.5,0.3,1,0.7,1.3c0.1,0.1,0.3,0.1,0.4,0s0.1-0.3,0-0.4l0,0c-0.3-0.2-0.5-0.6-0.5-0.9
		c0-0.4,0.2-0.8,0.5-1.1c0.4-0.4,0.6-0.9,0.6-1.4c0-0.6-0.2-1.2-0.7-1.6C10.9,17.3,10.8,17.3,10.7,17.3z"/>
	<path class="st0" d="M14.1,17.3c-0.2,0-0.3,0.1-0.3,0.3c0,0.1,0,0.1,0.1,0.2c0.3,0.3,0.5,0.8,0.5,1.2c0,0.4-0.2,0.8-0.5,1.1
		c-0.4,0.4-0.6,0.9-0.6,1.5c0,0.5,0.3,1,0.7,1.3c0.1,0.1,0.3,0.1,0.4,0s0.1-0.3,0-0.4l0,0c-0.3-0.2-0.5-0.6-0.5-0.9
		c0-0.4,0.2-0.8,0.5-1.1C14.8,20,15,19.5,15,19c0-0.6-0.2-1.2-0.7-1.6C14.3,17.3,14.2,17.3,14.1,17.3z"/>
	<path class="st0" d="M17.7,17.3c-0.2,0-0.3,0.1-0.3,0.3c0,0.1,0,0.1,0.1,0.2c0.3,0.3,0.5,0.8,0.5,1.2c0,0.4-0.2,0.8-0.5,1.1
		c-0.4,0.4-0.6,0.9-0.6,1.5c0,0.5,0.3,1,0.7,1.3c0.1,0.1,0.3,0.1,0.4,0s0.1-0.3,0-0.4l0,0c-0.3-0.2-0.5-0.6-0.5-0.9
		c0-0.4,0.2-0.8,0.5-1.1c0.4-0.4,0.6-0.9,0.6-1.4c0-0.6-0.2-1.2-0.7-1.6C17.9,17.3,17.8,17.3,17.7,17.3z"/>
	<path class="st5" d="M23.8,15.7H4.6c-0.8,0-1.5-0.7-1.5-1.5V7.5C3.1,6.6,3.7,6,4.6,6h19.2c0.8,0,1.5,0.7,1.5,1.5v6.8
		C25.3,15.1,24.6,15.7,23.8,15.7z"/>
	<line class="st6" x1="14.2" y1="8.5" x2="19.6" y2="8.5"/>
	<line class="st6" x1="21.4" y1="8.5" x2="23" y2="8.5"/>
	<polyline class="st5" points="5.2,15.7 5.7,13 22.6,13 23.2,15.7 	"/>
</g>
</svg>
