<?xml version="1.0" encoding="utf-8"?>
<!-- Generator: Adobe Illustrator 24.3.0, SVG Export Plug-In . SVG Version: 6.00 Build 0)  -->
<svg version="1.1" id="Capa_1" xmlns="http://www.w3.org/2000/svg" xmlns:xlink="http://www.w3.org/1999/xlink" x="0px" y="0px"
	 viewBox="0 0 28.3 28.3" style="enable-background:new 0 0 28.3 28.3;" xml:space="preserve">
<style type="text/css">
	.st0{fill:#698D86;}
	.st1{fill:#698D86;stroke:#698D86;stroke-width:0.2;stroke-linecap:round;stroke-linejoin:round;stroke-miterlimit:10;}
	.st2{fill:#455F5D;}
	.st3{fill:#FFFFFF;}
	.st4{fill-rule:evenodd;clip-rule:evenodd;fill:#698D86;}
	.st5{fill:none;stroke:#698D86;stroke-width:0.6;stroke-linejoin:round;stroke-miterlimit:10;}
	.st6{fill:none;stroke:#698D86;stroke-width:0.6;stroke-linecap:round;stroke-linejoin:round;stroke-miterlimit:10;}
	.st7{fill:none;stroke:#E30613;stroke-linejoin:round;stroke-miterlimit:10;}
	.st8{fill:#FFFFFF;stroke:#698D86;stroke-width:0.6;stroke-linecap:round;stroke-linejoin:round;stroke-miterlimit:10;}
	.st9{fill:none;stroke:#698D86;stroke-width:0.75;stroke-miterlimit:10;}
</style>
<g>
	<path class="st6" d="M23.4,14.2H4.3c-0.5,0-0.9-0.4-0.9-0.9v0c0-0.5,0.4-0.9,0.9-0.9h19.1c0.5,0,0.9,0.4,0.9,0.9v0
		C24.3,13.8,23.9,14.2,23.4,14.2z"/>
	<path class="st6" d="M18,22.9H5c-0.4,0-0.8-0.3-0.8-0.8v-8h19.2v5.2"/>
	<path class="st0" d="M11.6,4.9c-0.2,0-0.3,0.1-0.3,0.3c0,0.1,0,0.1,0.1,0.2c0.3,0.3,0.5,0.8,0.5,1.2c0,0.4-0.2,0.8-0.5,1.1
		c-0.4,0.4-0.6,0.9-0.6,1.5c0,0.5,0.3,1,0.7,1.3c0.1,0.1,0.3,0.1,0.4,0c0.1-0.1,0.1-0.3,0-0.4l0,0c-0.3-0.2-0.5-0.6-0.5-0.9
		c0-0.4,0.2-0.8,0.5-1.1c0.4-0.4,0.6-0.9,0.6-1.4c0-0.6-0.2-1.2-0.7-1.6C11.8,4.9,11.7,4.9,11.6,4.9z"/>
	<path class="st0" d="M13.8,4.9c-0.2,0-0.3,0.1-0.3,0.3c0,0.1,0,0.1,0.1,0.2c0.3,0.3,0.5,0.8,0.5,1.2c0,0.4-0.2,0.8-0.5,1.1
		c-0.4,0.4-0.6,0.9-0.6,1.5c0,0.5,0.3,1,0.7,1.3c0.1,0.1,0.3,0.1,0.4,0c0.1-0.1,0.1-0.3,0-0.4l0,0c-0.3-0.2-0.5-0.6-0.5-0.9
		c0-0.4,0.2-0.8,0.5-1.1c0.4-0.4,0.6-0.9,0.6-1.4c0-0.6-0.2-1.2-0.7-1.6C14,4.9,13.9,4.9,13.8,4.9z"/>
	<path class="st0" d="M16.3,4.9C16.1,4.9,16,5,16,5.2c0,0.1,0,0.1,0.1,0.2c0.3,0.3,0.5,0.8,0.5,1.2c0,0.4-0.2,0.8-0.5,1.1
		c-0.4,0.4-0.6,0.9-0.6,1.5c0,0.5,0.3,1,0.7,1.3c0.1,0.1,0.3,0.1,0.4,0c0.1-0.1,0.1-0.3,0-0.4l0,0C16.2,9.9,16,9.5,16,9.2
		c0-0.4,0.2-0.8,0.5-1.1c0.4-0.4,0.6-0.9,0.6-1.4c0-0.6-0.2-1.2-0.7-1.6C16.4,4.9,16.3,4.9,16.3,4.9z"/>
	<rect x="18" y="22.1" class="st6" width="7" height="1.3"/>
	<rect x="18.6" y="20.7" class="st6" width="5.8" height="1.3"/>
	<rect x="19.1" y="19.4" class="st6" width="4.8" height="1.3"/>
	<rect x="5.9" y="11.8" class="st8" width="3.4" height="3.9"/>
	<line class="st6" x1="11.1" y1="15.9" x2="16.1" y2="15.9"/>
	<line class="st6" x1="17.2" y1="15.9" x2="22.2" y2="15.9"/>
	<line class="st6" x1="6.2" y1="17.5" x2="12.1" y2="17.5"/>
	<line class="st6" x1="13.6" y1="17.5" x2="22.3" y2="17.5"/>
	<line class="st6" x1="6.3" y1="19.3" x2="16.3" y2="19.3"/>
	<line class="st6" x1="6.2" y1="21.1" x2="12.6" y2="21.1"/>
	<line class="st6" x1="14.2" y1="21.1" x2="16.5" y2="21.1"/>
</g>
</svg>
