<?xml version="1.0" encoding="utf-8"?>
<!-- Generator: Adobe Illustrator 24.3.0, SVG Export Plug-In . SVG Version: 6.00 Build 0)  -->
<svg version="1.1" id="Capa_1" xmlns="http://www.w3.org/2000/svg" xmlns:xlink="http://www.w3.org/1999/xlink" x="0px" y="0px"
	 viewBox="0 0 28.3 28.3" style="enable-background:new 0 0 28.3 28.3;" xml:space="preserve">
<style type="text/css">
	.st0{fill:#698D86;}
	.st1{fill:#698D86;stroke:#698D86;stroke-width:0.2;stroke-linecap:round;stroke-linejoin:round;stroke-miterlimit:10;}
	.st2{fill:#455F5D;}
	.st3{fill:#FFFFFF;}
	.st4{fill-rule:evenodd;clip-rule:evenodd;fill:#698D86;}
	.st5{fill:none;stroke:#698D86;stroke-width:0.6;stroke-linejoin:round;stroke-miterlimit:10;}
	.st6{fill:none;stroke:#698D86;stroke-width:0.6;stroke-linecap:round;stroke-linejoin:round;stroke-miterlimit:10;}
	.st7{fill:none;stroke:#E30613;stroke-linejoin:round;stroke-miterlimit:10;}
	.st8{fill:#FFFFFF;stroke:#698D86;stroke-width:0.6;stroke-linecap:round;stroke-linejoin:round;stroke-miterlimit:10;}
	.st9{fill:#FFFFFF;stroke:#000000;stroke-width:0.6;stroke-linecap:round;stroke-miterlimit:10;}
	.st10{stroke:#698D86;stroke-width:0.6;stroke-linecap:round;stroke-linejoin:round;stroke-miterlimit:10;}
	.st11{fill:none;stroke:#698D86;stroke-width:0.75;stroke-miterlimit:10;}
</style>
<g>
	<path class="st0" d="M22.5,4.2H5.8c-0.1,0-0.3,0.1-0.3,0.3v19.4c0,0.1,0.1,0.3,0.3,0.3h16.7c0.1,0,0.3-0.1,0.3-0.3V4.5
		C22.8,4.3,22.7,4.2,22.5,4.2z M6.1,9.6V6.1h16.2v3.5H6.1z M15.7,10.1c-0.1,0.7-0.7,1.3-1.5,1.3c-0.7,0-1.4-0.5-1.5-1.3H15.7z
		 M6.1,10.1h6.1c0.1,1,1,1.8,2,1.8s1.9-0.8,2-1.8h6.1v12.1H6.1V10.1z M22.3,4.7v0.8H6.1V4.7H22.3z M6.1,23.6v-0.8h16.2v0.8H6.1z"/>
	<path class="st0" d="M10.8,7H10C9.9,7,9.8,7.1,9.8,7.2c0,0.1,0.1,0.3,0.3,0.3h0.8c0.1,0,0.3-0.1,0.3-0.3C11.1,7.1,11,7,10.8,7z"/>
	<path class="st0" d="M10.8,8.3H10c-0.1,0-0.3,0.1-0.3,0.3S9.9,8.8,10,8.8h0.8c0.1,0,0.3-0.1,0.3-0.3S11,8.3,10.8,8.3z"/>
	<path class="st0" d="M17.4,7.5h0.8c0.1,0,0.3-0.1,0.3-0.3c0-0.1-0.1-0.3-0.3-0.3h-0.8c-0.1,0-0.3,0.1-0.3,0.3
		C17.2,7.4,17.3,7.5,17.4,7.5z"/>
	<path class="st0" d="M18.3,8.3h-0.8c-0.1,0-0.3,0.1-0.3,0.3c0,0.1,0.1,0.3,0.3,0.3h0.8c0.1,0,0.3-0.1,0.3-0.3
		C18.5,8.4,18.4,8.3,18.3,8.3z"/>
	<path class="st0" d="M16.1,7h-3.8C12.1,7,12,7.1,12,7.2v1.3c0,0.1,0.1,0.3,0.3,0.3h3.8c0.1,0,0.3-0.1,0.3-0.3V7.2
		C16.4,7.1,16.3,7,16.1,7z M15.9,8.3h-3.3V7.5h3.3V8.3z"/>
</g>
</svg>
