<?xml version="1.0" encoding="utf-8"?>
<!-- Generator: Adobe Illustrator 24.3.0, SVG Export Plug-In . SVG Version: 6.00 Build 0)  -->
<svg version="1.1" id="Capa_1" xmlns="http://www.w3.org/2000/svg" xmlns:xlink="http://www.w3.org/1999/xlink" x="0px" y="0px"
	 viewBox="0 0 28.3 28.3" style="enable-background:new 0 0 28.3 28.3;" xml:space="preserve">
<style type="text/css">
	.st0{fill:#698D86;}
	.st1{fill:#698D86;stroke:#698D86;stroke-width:0.2;stroke-linecap:round;stroke-linejoin:round;stroke-miterlimit:10;}
	.st2{fill:#455F5D;}
	.st3{fill:#FFFFFF;}
	.st4{fill-rule:evenodd;clip-rule:evenodd;fill:#698D86;}
	.st5{fill:none;stroke:#698D86;stroke-width:0.6;stroke-linejoin:round;stroke-miterlimit:10;}
	.st6{fill:none;stroke:#698D86;stroke-width:0.6;stroke-linecap:round;stroke-linejoin:round;stroke-miterlimit:10;}
	.st7{fill:none;stroke:#E30613;stroke-linejoin:round;stroke-miterlimit:10;}
	.st8{fill:#FFFFFF;stroke:#698D86;stroke-width:0.6;stroke-linecap:round;stroke-linejoin:round;stroke-miterlimit:10;}
	.st9{fill:none;stroke:#698D86;stroke-width:0.75;stroke-miterlimit:10;}
</style>
<path class="st0" d="M10.3,7.6c0-0.7-0.3-1.4-0.8-1.9C9,5.1,8.4,4.9,7.6,4.9c-1.5,0-2.7,1.2-2.7,2.7c0,1.5,1.2,2.7,2.7,2.7
	C9.1,10.3,10.3,9.1,10.3,7.6z M6.2,6c0.1,0.3,0.3,0.8,0.3,1.6c0,0.7-0.2,1.3-0.3,1.6C5.8,8.7,5.5,8.2,5.5,7.6S5.8,6.4,6.2,6z
	 M7.6,5.4c0.3,0,0.7,0.1,0.9,0.2C8.4,6,8.2,6.7,8.2,7.6s0.2,1.5,0.4,1.9C8.3,9.6,8,9.7,7.6,9.7C7.3,9.7,7,9.6,6.7,9.5
	c0.2-0.3,0.4-1,0.4-1.9S6.9,6,6.7,5.7C7,5.5,7.3,5.4,7.6,5.4z M9.8,7.6c0,0.6-0.3,1.2-0.7,1.6C8.9,8.8,8.7,8.3,8.7,7.6
	S8.9,6.3,9.1,6c0,0,0,0,0.1,0.1C9.5,6.5,9.8,7,9.8,7.6z"/>
<path class="st0" d="M5.4,23.6c0.3,0.3,0.7,0.5,1.1,0.5c0.4,0,0.8-0.2,1.1-0.5l2.5-2.5l0.4-0.4l0,0c0.4-0.4,1-0.9,1.2-1
	c1.8-0.6,3.9-0.8,3.9-0.8v0c0.2,0,0.3,0,0.5,0c2,0,4-0.9,5.5-2.4c1.4-1.4,2.2-3.2,2.4-5.1c0.1-1.9-0.5-3.6-1.7-4.8
	c-1.1-1.1-2.7-1.7-4.3-1.7c-2,0-4,0.9-5.5,2.4c-1.4,1.4-2.2,3.2-2.4,5.1c0,0.3,0,0.7,0,1h0c0,0-0.2,2.1-0.8,3.9
	c-0.1,0.2-0.6,0.8-1,1.2h0l-0.4,0.4l-2.5,2.5C4.8,22,4.8,23,5.4,23.6z M12.3,16.7c-0.3-0.3-0.5-0.6-0.7-0.9l0.9-0.9l1.6,1.6
	l-0.9,0.9C12.8,17.2,12.5,17,12.3,16.7z M21.4,13.2l-1.6-1.6l2-2l1.6,1.6L21.4,13.2z M23.5,12c-0.1,0.8-0.4,1.7-0.9,2.5l-0.8-0.8
	L23.5,12z M22.2,9.2L23,8.4c0.3,0.6,0.5,1.3,0.5,2L22.2,9.2z M12.9,10.5l1.6,1.6l-2,2l-1.6-1.6L12.9,10.5z M10.8,11.8
	c0.1-0.9,0.4-1.7,0.9-2.5l0.8,0.8L10.8,11.8z M13.3,10.1l2-2l1.6,1.6l-2,2L13.3,10.1z M17.3,10l1.6,1.6l-2,2l-1.6-1.6L17.3,10z
	 M17.3,9.2l-1.6-1.6l2-2l1.6,1.6L17.3,9.2z M15.3,7.2l-0.8-0.8C15.3,6,16.2,5.7,17,5.5L15.3,7.2z M18.5,5.5c0.7,0.1,1.4,0.2,2,0.5
	l-0.8,0.8L18.5,5.5z M19.8,7.6l1.6,1.6l-2,2l-1.6-1.6L19.8,7.6z M21,13.7l-2,2l-1.6-1.6l2-2L21,13.7z M18.9,16.5l0.8,0.8
	c-0.8,0.4-1.6,0.7-2.5,0.9L18.9,16.5z M14.9,16.6l2-2l1.6,1.6l-2,2L14.9,16.6z M14.4,16.2l-1.6-1.6l2-2l1.6,1.6L14.4,16.2z
	 M10.7,13.3l1.3,1.3l-0.8,0.8C10.9,14.7,10.8,14,10.7,13.3z M12.9,7.7C13.3,7.3,13.6,7,14,6.7l0.9,0.9l-2,2L12,8.8
	C12.3,8.4,12.6,8,12.9,7.7z M22.7,7.9l-0.9,0.9l-1.6-1.6l0.9-0.9C21.4,6.5,21.7,6.7,22,7C22.3,7.3,22.5,7.6,22.7,7.9z M21.3,16.1
	c-0.3,0.3-0.7,0.7-1.1,0.9l-0.9-0.9l2-2l0.9,0.9C22,15.3,21.7,15.7,21.3,16.1z M13.7,17.7l0.8-0.8l1.3,1.3
	C15,18.2,14.3,18,13.7,17.7z M10.2,20.2l-1.4-1.4c0.4-0.4,1-1,1.1-1.4c0.3-0.8,0.5-1.7,0.6-2.4c0.3,0.8,0.7,1.5,1.4,2.2
	c0.6,0.6,1.4,1.1,2.2,1.4c-0.7,0.1-1.6,0.3-2.4,0.6C11.2,19.3,10.5,19.9,10.2,20.2z M5.8,21.8l2.5-2.5l1.4,1.4l-2.5,2.5
	c-0.4,0.4-1,0.4-1.4,0C5.4,22.8,5.4,22.2,5.8,21.8z"/>
</svg>
