<?xml version="1.0" encoding="utf-8"?>
<!-- Generator: Adobe Illustrator 24.3.0, SVG Export Plug-In . SVG Version: 6.00 Build 0)  -->
<svg version="1.1" id="Capa_1" xmlns="http://www.w3.org/2000/svg" xmlns:xlink="http://www.w3.org/1999/xlink" x="0px" y="0px"
	 viewBox="0 0 28.3 28.3" style="enable-background:new 0 0 28.3 28.3;" xml:space="preserve">
<style type="text/css">
	.st0{fill:#698D86;}
	.st1{fill:#698D86;stroke:#698D86;stroke-width:0.2;stroke-linecap:round;stroke-linejoin:round;stroke-miterlimit:10;}
	.st2{fill:#455F5D;}
	.st3{fill:#FFFFFF;}
	.st4{fill-rule:evenodd;clip-rule:evenodd;fill:#698D86;}
	.st5{fill:none;stroke:#698D86;stroke-width:0.6;stroke-linejoin:round;stroke-miterlimit:10;}
	.st6{fill:none;stroke:#698D86;stroke-width:0.6;stroke-linecap:round;stroke-linejoin:round;stroke-miterlimit:10;}
	.st7{fill:none;stroke:#E30613;stroke-linejoin:round;stroke-miterlimit:10;}
	.st8{fill:#FFFFFF;stroke:#698D86;stroke-width:0.6;stroke-linecap:round;stroke-linejoin:round;stroke-miterlimit:10;}
	.st9{fill:none;stroke:#698D86;stroke-width:0.75;stroke-miterlimit:10;}
</style>
<g id="Grupo_39763" transform="translate(-29.521 -102.92)">
	<g>
		<path id="Trazado_78015_1_" class="st0" d="M56.6,113.5c-0.1-0.1-0.1-0.1-0.2-0.2c-0.2-0.2-0.4-0.3-0.6-0.5
			c-1.7-1.5-3.6-2.6-5.7-3.4c-2.1-0.7-4.3-1.1-6.5-1.2l0,0c-1.2,0-2.4,0.1-3.6,0.4c-3.5,0.7-6.7,2.4-9.3,4.8c0,0,0,0-0.1,0
			c-0.1,0.1-0.2,0.1-0.2,0.3c0,0.1,0,0.2,0.1,0.2c0,0.1,0.1,0.1,0.2,0.1c0.1,0,0.2-0.1,0.3-0.2l0,0c0,0,0,0,0.1-0.1s0,0,0.1-0.1
			c1.7-1.6,3.6-2.8,5.7-3.7c3-1.2,6.3-1.5,9.4-1c2.7,0.4,5.4,1.5,7.6,3.1c0.7,0.5,1.4,1.1,2.1,1.8c0.1,0.1,0.3,0.3,0.5,0.1
			c0.1,0,0.1-0.1,0.1-0.2C56.8,113.7,56.7,113.6,56.6,113.5z"/>
		<path class="st0" d="M56.5,114.2c-0.1,0-0.2,0-0.4-0.2c-0.6-0.6-1.3-1.2-2.1-1.7c-2.2-1.6-4.9-2.7-7.6-3.1c-3.2-0.5-6.4-0.2-9.4,1
			c-2.1,0.8-4.1,2-5.7,3.6c0,0,0,0,0,0c0,0,0,0-0.1,0.1l0,0c-0.1,0.1-0.2,0.2-0.4,0.2c-0.1,0-0.2,0-0.3-0.1
			c-0.1-0.1-0.1-0.2-0.1-0.3c0-0.2,0.1-0.3,0.2-0.4c0,0,0,0,0,0c2.6-2.5,5.8-4.2,9.4-4.9c1.2-0.2,2.4-0.4,3.6-0.4
			c2.2,0,4.4,0.4,6.5,1.2c2.1,0.8,4,1.9,5.7,3.4c0.2,0.2,0.4,0.3,0.5,0.5l0.2,0.2c0.1,0.1,0.2,0.2,0.2,0.4c0,0.1-0.1,0.2-0.1,0.3
			C56.7,114.1,56.6,114.2,56.5,114.2z M43.7,108.4c-1.2,0-2.4,0.1-3.6,0.4c-3.5,0.7-6.7,2.3-9.2,4.8c0,0,0,0-0.1,0.1
			c-0.1,0-0.1,0.1-0.1,0.2c0,0,0,0.1,0.1,0.1c0,0,0.1,0.1,0.1,0.1c0.1,0,0.1-0.1,0.2-0.1l0,0c0,0,0,0,0.1-0.1c0,0,0,0,0.1-0.1
			c1.7-1.6,3.6-2.9,5.8-3.7c3-1.2,6.3-1.5,9.5-1c2.8,0.4,5.4,1.5,7.7,3.1c0.8,0.5,1.5,1.1,2.1,1.8c0.1,0.2,0.2,0.1,0.3,0.1
			c0,0,0.1-0.1,0.1-0.1c0-0.1-0.1-0.1-0.1-0.2l0,0l-0.2-0.2c-0.2-0.2-0.4-0.3-0.6-0.5c-1.7-1.5-3.5-2.6-5.6-3.4
			C48.1,108.8,45.9,108.4,43.7,108.4z"/>
	</g>
	<g>
		<path id="Trazado_78016_1_" class="st0" d="M52.5,117.6C52.5,117.6,52.5,117.6,52.5,117.6c-2.4-2.3-5.6-3.6-8.8-3.5l0,0
			c-0.1,0-0.1,0-0.2,0c-0.1,0-0.3,0-0.4,0c-0.2,0-0.3,0-0.5,0l-0.2,0c-2.3,0.2-4.5,1-6.3,2.4c-0.5,0.3-0.9,0.7-1.3,1.1l0,0
			c-0.1,0.1-0.2,0.2-0.1,0.4c0,0.1,0.1,0.1,0.2,0.1c0.1,0,0.2-0.1,0.3-0.2c0,0,0.1-0.1,0.1-0.1c0,0,0.1-0.1,0.1-0.1
			c1.6-1.4,3.4-2.4,5.5-2.9c2-0.4,4.2-0.4,6.2,0.2c1.9,0.5,3.6,1.5,5,2.9l0,0c0.1,0.1,0.2,0.1,0.3,0.1h0c0.1,0,0.1,0,0.2-0.1
			c0.1-0.1,0.1-0.1,0.1-0.2C52.7,117.7,52.6,117.7,52.5,117.6z"/>
		<path class="st0" d="M52.4,118.3c-0.2,0-0.3-0.1-0.4-0.2l0,0c-1.4-1.3-3.1-2.3-4.9-2.8c-2-0.6-4.1-0.6-6.1-0.2
			c-2,0.5-3.9,1.5-5.4,2.9c0,0-0.1,0.1-0.1,0.1c0,0-0.1,0.1-0.1,0.1c-0.1,0.1-0.2,0.2-0.3,0.2c-0.1,0-0.2-0.1-0.3-0.1
			c-0.2-0.3,0-0.5,0.1-0.6l0,0c0.4-0.4,0.8-0.8,1.3-1.1c1.9-1.4,4.1-2.2,6.4-2.4l0.2,0c0.2,0,0.3,0,0.5,0c0.1,0,0.2,0,0.3,0l0.3,0
			c3.3,0,6.5,1.2,8.9,3.5c0,0,0,0,0,0c0.1,0.1,0.2,0.2,0.2,0.3c0,0.1,0,0.2-0.1,0.3C52.6,118.2,52.5,118.2,52.4,118.3z M43.6,114.5
			c1.2,0,2.4,0.2,3.5,0.5c1.9,0.5,3.6,1.5,5,2.9l0,0c0.1,0.1,0.1,0.1,0.2,0.1c0,0,0.1,0,0.1-0.1c0,0,0.1-0.1,0.1-0.1
			c0,0,0-0.1-0.1-0.1l0,0c0,0,0,0-0.1,0c-2.3-2.3-5.4-3.5-8.7-3.5l-0.3,0c-0.1,0-0.2,0-0.3,0c-0.2,0-0.3,0-0.5,0l-0.2,0
			c-2.3,0.2-4.4,1-6.2,2.4c-0.4,0.3-0.9,0.7-1.2,1.1c-0.1,0.1-0.1,0.2-0.1,0.3c0,0,0.1,0.1,0.1,0.1c0.1,0,0.1,0,0.2-0.1
			c0.1-0.1,0.1-0.1,0.1-0.1c0,0,0.1-0.1,0.1-0.1c1.6-1.4,3.5-2.4,5.5-2.9C41.8,114.6,42.7,114.5,43.6,114.5z"/>
	</g>
	<g>
		<path id="Trazado_78017_1_" class="st0" d="M48.5,121.6C48.4,121.6,48.4,121.6,48.5,121.6c-1.3-1.2-3-1.9-4.7-1.9l0,0
			c-1.1,0-2.2,0.3-3.2,0.8c-0.6,0.3-1.1,0.7-1.6,1.1c-0.1,0.1-0.1,0.1-0.1,0.2c0,0.1,0,0.1,0.1,0.2c0,0.1,0.1,0.1,0.2,0.1
			c0.1,0,0.2-0.1,0.2-0.1c0,0,0.1-0.1,0.1-0.1c1-0.9,2.4-1.5,3.7-1.7c1.4-0.1,2.8,0.2,4,0.9c0.4,0.2,0.7,0.5,1,0.8
			c0.1,0.1,0.3,0.1,0.4,0c0,0,0,0,0,0c0.1-0.1,0.1-0.1,0.1-0.2C48.6,121.8,48.6,121.8,48.5,121.6C48.5,121.7,48.5,121.7,48.5,121.6z
			"/>
		<path class="st0" d="M39.1,122.3c-0.1,0-0.2,0-0.3-0.1c-0.1-0.1-0.1-0.2-0.1-0.3c0-0.1,0.1-0.3,0.2-0.3c0.5-0.5,1-0.8,1.6-1.1
			c1-0.5,2.1-0.8,3.3-0.8c0,0,0,0,0,0c1.8,0,3.5,0.7,4.8,1.9l0.1,0.1c0.1,0.1,0.1,0.2,0.2,0.3c0,0.1,0,0.2-0.1,0.3c0,0,0,0,0,0
			c-0.2,0.1-0.4,0.1-0.6-0.1c-0.3-0.3-0.6-0.6-1-0.8c-1.2-0.7-2.5-1-3.9-0.9c-1.4,0.1-2.7,0.7-3.7,1.6c0,0-0.1,0.1-0.1,0.1
			C39.3,122.3,39.2,122.3,39.1,122.3z M43.7,119.9c-1.1,0-2.2,0.3-3.2,0.8c-0.6,0.3-1.1,0.7-1.5,1.1c-0.1,0-0.1,0.1-0.1,0.2
			c0,0,0,0.1,0.1,0.1c0,0,0.1,0.1,0.1,0.1c0,0,0.1,0,0.1-0.1c0,0,0.1-0.1,0.1-0.1c1-1,2.4-1.6,3.8-1.7c1.4-0.1,2.8,0.2,4,1
			c0.4,0.2,0.7,0.5,1.1,0.8c0.1,0.1,0.2,0.1,0.2,0c0,0,0,0,0,0c0,0,0.1-0.1,0.1-0.1c0,0,0-0.1-0.1-0.1c0,0,0,0,0,0h0l-0.1-0.1
			C47,120.5,45.4,119.9,43.7,119.9C43.7,119.9,43.7,119.9,43.7,119.9z"/>
	</g>
	<g>
		<path id="Trazado_78018_1_" class="st0" d="M43.7,124.5L43.7,124.5c-0.4,0-0.7,0.3-0.7,0.7c0,0.4,0.3,0.7,0.7,0.7h0
			c0.4,0,0.7-0.3,0.7-0.7v0C44.4,124.9,44.1,124.6,43.7,124.5z"/>
		<path class="st0" d="M43.7,126.1c-0.5,0-0.8-0.4-0.8-0.8c0-0.5,0.4-0.8,0.8-0.8h0c0.4,0,0.8,0.4,0.8,0.8
			C44.5,125.7,44.2,126.1,43.7,126.1z M43.7,124.7c-0.3,0-0.6,0.3-0.6,0.6c0,0.3,0.3,0.6,0.6,0.6c0.3,0,0.6-0.3,0.6-0.6
			C44.3,124.9,44,124.7,43.7,124.7L43.7,124.7z"/>
	</g>
</g>
</svg>
