<?xml version="1.0" encoding="utf-8"?>
<!-- Generator: Adobe Illustrator 24.3.0, SVG Export Plug-In . SVG Version: 6.00 Build 0)  -->
<svg version="1.1" id="Capa_1" xmlns="http://www.w3.org/2000/svg" xmlns:xlink="http://www.w3.org/1999/xlink" x="0px" y="0px"
	 viewBox="0 0 28.3 28.3" style="enable-background:new 0 0 28.3 28.3;" xml:space="preserve">
<style type="text/css">
	.st0{fill:#698D86;}
	.st1{fill:#698D86;stroke:#698D86;stroke-width:0.2;stroke-linecap:round;stroke-linejoin:round;stroke-miterlimit:10;}
	.st2{fill:#455F5D;}
	.st3{fill:#FFFFFF;}
	.st4{fill-rule:evenodd;clip-rule:evenodd;fill:#698D86;}
	.st5{fill:none;stroke:#698D86;stroke-width:0.6;stroke-linejoin:round;stroke-miterlimit:10;}
	.st6{fill:none;stroke:#698D86;stroke-width:0.6;stroke-linecap:round;stroke-linejoin:round;stroke-miterlimit:10;}
	.st7{fill:none;stroke:#E30613;stroke-linejoin:round;stroke-miterlimit:10;}
	.st8{fill:#FFFFFF;stroke:#698D86;stroke-width:0.6;stroke-linecap:round;stroke-linejoin:round;stroke-miterlimit:10;}
	.st9{fill:#FFFFFF;stroke:#000000;stroke-width:0.6;stroke-linecap:round;stroke-miterlimit:10;}
	.st10{stroke:#698D86;stroke-width:0.6;stroke-linecap:round;stroke-linejoin:round;stroke-miterlimit:10;}
</style>
<path class="st0" d="M22.5,6.6c-2-2-4.8-3.2-7.6-3.2c0,0,0,0,0,0c-2.9,0-5.6,1.1-7.6,3.2c-2,2-3.2,4.7-3.2,7.6s1.1,5.6,3.2,7.6
	c2,2,4.7,3.2,7.6,3.2c0,0,0,0,0,0c2.9,0,5.6-1.1,7.6-3.2c2-2,3.2-4.7,3.2-7.6C25.7,11.4,24.6,8.7,22.5,6.6z M7.7,21.2
	C4,17.3,4,11.3,7.6,7.4l2.1,2.1c-0.8,0.5-1.3,1.3-1.3,2.3c0,0.1,0.1,0.2,0.2,0.2l0.3,0c0.1,0,0.1,0,0.2-0.1s0.1-0.1,0.1-0.2
	c0-0.8,0.4-1.4,1-1.8l2.9,2.9c-0.4,0.8-1.1,1.6-1.7,2.2l-3.1,3.3c0,0-0.1,0.1-0.1,0.2V19c0,0.1,0.1,0.2,0.2,0.2h5.6
	c0.1,0,0.2-0.1,0.2-0.2v-0.3c0-0.1-0.1-0.2-0.2-0.2H9.6l2.4-2.6c0.6-0.7,1.3-1.4,1.8-2.3l4.9,4.9c-0.2,0-0.4,0-0.6,0
	c-1,0-1.8-0.3-2.3-1c0-0.1-0.1-0.1-0.2-0.1c-0.1,0-0.2,0-0.2,0.1l-0.1,0.2c-0.1,0.1,0,0.2,0,0.3c0.6,0.8,1.5,1.3,2.8,1.3
	c0.4,0,0.8-0.1,1.2-0.2l0.8,0.8c0,0,0,0,0,0l0.7,0.7l0.9,0.9l0,0l0,0C17.7,25.3,11.4,25.1,7.7,21.2z M11.4,9.9
	c1.3,0,2.1,0.7,2.1,1.9c0,0.2,0,0.3,0,0.4l-2.4-2.4C11.2,9.9,11.3,9.9,11.4,9.9z M22.3,21.1l-2.1-2.1c0.9-0.5,1.4-1.4,1.4-2.5
	c0-1.7-1.3-2.9-3.3-2.9c-0.1,0-0.3,0-0.4,0l3.4-3.7c0,0,0.1-0.1,0.1-0.2V9.5c0-0.1-0.1-0.2-0.2-0.2h-5.2c-0.1,0-0.2,0.1-0.2,0.2v0.3
	c0,0.1,0.1,0.2,0.2,0.2h4.2l-3.8,4c-0.1,0.1-0.1,0.2,0,0.3l0.1,0.2c0,0.1,0.1,0.1,0.1,0.1c0.1,0,0.1,0,0.2,0
	c0.4-0.2,0.9-0.3,1.5-0.3c1.5,0,2.5,0.8,2.5,2.1c0,0.9-0.4,1.6-1.2,1.9l-5.4-5.4c0.1-0.4,0.2-0.7,0.2-1.1c0-1.6-1.2-2.7-2.9-2.7
	c-0.3,0-0.6,0.1-0.9,0.1L8.1,6.9c1.9-1.7,4.3-2.7,6.8-2.7c2.7,0,5.2,1,7.1,2.9c1.9,1.9,2.9,4.4,2.9,7.1C24.9,16.8,24,19.2,22.3,21.1
	z"/>
</svg>
